<svg id="Calque_1" data-name="Calque 1" xmlns="http://www.w3.org/2000/svg" viewBox="0 0 187.08 198.06"><title>Scarole</title><path d="M119,38.84a162.87,162.87,0,0,1,16.44-7.31c7.62-2.91,20.54-8.53,28.38-3.76,4.65,2.83,5.51,10.88,3.65,14.79-3.75,7.86-12.27,15.91-20,19.58a1.21,1.21,0,0,0-.62,1.08c.76,9.49-9,14.6-17.07,16.28A1.28,1.28,0,0,0,129,81c.59,3.38-1.17,7-3.64,9.19-2.12,1.88-5.12,2.13-7.13,3.87-2.45,2.13-3.51,4.51-7,5.37-1.57.38-.9,2.79.66,2.41a15.11,15.11,0,0,0,6.73-4c2.79-2.65,6.55-3.79,9.27-6.6a12.94,12.94,0,0,0,3.52-10.91l-.87,1.54c6.48-1.35,14-4.8,17.35-10.81,1-1.87,1-3.75,1.63-5.72.78-2.56,3.93-3.62,6.15-5.39a63.32,63.32,0,0,0,12.08-13.28,15.89,15.89,0,0,0,2.11-15.31c-3.72-10-16.11-8-24.24-5.85a141,141,0,0,0-27.82,11.13c-1.43.74-.17,2.9,1.26,2.16Z" transform="translate(-4.05 -0.93)"/><path d="M157.52,58.23c6.86-2.87,15.78-3.26,21.88,1.44,9,7,.23,15.4-6.41,19.88-1.05.72-2.68,1.31-3.47,2.34s-1.11,3.11-1.64,4.35c-3.38,7.91-8.91,16-17.74,18a1.25,1.25,0,0,0-.88.87c-1.51,7.29-9.75,10.27-16.45,10.8-1.59.13-1.6,2.63,0,2.5,6.22-.5,13.9-2.86,17.32-8.48,1.51-2.5,1.07-3.1,4-4.28a21.78,21.78,0,0,0,5.76-3.55,36.48,36.48,0,0,0,8.74-11.53c1.19-2.31,1.78-5.49,3.18-7.62-.86,1.3.33.08,1.15-.38a33.78,33.78,0,0,0,4.18-2.94c5.66-4.42,12.3-12,6.81-19.11-6.17-8-18.4-8.33-27.06-4.71-1.46.61-.82,3,.67,2.41Z" transform="translate(-4.05 -0.93)"/><path d="M172.71,82.49a26.85,26.85,0,0,1,11.34,2.25c2.73,1.3,4.82,3.38,4.69,6.58-.29,6.78-6.12,9.23-11.08,12.33-5.4,3.36-7.74,6.66-11.47,11.77-3.57,4.91-8.89,12.8-15.72,13.37-1.59.13-1.61,2.63,0,2.5,6.93-.58,12.55-7.31,16.42-12.6,2.19-3,4.19-6.8,6.84-9.4,3.64-3.55,10-4.86,13.53-8.55,4.9-5.14,5.68-13.64-.79-17.55-4-2.39-9.17-3.19-13.76-3.2a1.25,1.25,0,0,0,0,2.5Z" transform="translate(-4.05 -0.93)"/><path d="M174.53,108.49c3.93-.48,7.56,2.27,5,6.41-2,3.35-6.87,7.22-10.17,9.59-4.89,3.5-13.08,7-19.1,10-14.38,7-30.77,10-44.68,18.11-4.08,2.36-7.62,5.2-12.15,6.81-3.79,1.36-7.14,1.93-10.64,4C75.17,168,68.22,174,61.47,179.86c-9.52,8.25-21.38,18.81-35,16.56-14-2.31-19.44-20.15-19.88-32.31a62.75,62.75,0,0,1,3-21.51,328.25,328.25,0,0,1,12.3-31.74C31,90.23,41.69,69.64,56.27,52.31A107.93,107.93,0,0,1,67.5,40.71C72.88,36,77,29.64,81.89,24.39c6.47-6.87,13.75-13.58,22.42-17.57C108.15,5.05,115.68,2,119.78,4c2.07,1,3.65,3.24,4.86,5.14.41.64,1.57,3.42,1.47,2.46.26,2.65-.94,6.08-1.52,8.64-1.09,4.81-2.47,9.84-5.12,14-1.13,1.8-3,2.79-4.14,4.4-1.28,1.9-1.51,5.68-2.32,7.93-1.18,3.31-2.87,8.22-4.73,10.66-2.16,2.83-5.11,5.29-7.58,7.85l-5.89,6.1a1.26,1.26,0,0,0,0,1.77c6.84,6.24-15.62,13.58-17.67,18.91-.2.54.22,1,.13,1.44s.58-1.16-.23-.85c-.43.17-1.21,1.84-1.49,2.24-4,5.81-8.91,11.94-15.47,14.91-1.46.66-.19,2.81,1.26,2.16,7.78-3.53,13.72-11.31,18.1-18.44a1.27,1.27,0,0,0-.19-1.51c.83.91-.22.72.92,0,1.44-.94,2.72-2.22,4.19-3.17C88.5,86,93.72,84.08,96.74,80c1.92-2.61,2.45-6.36-.17-8.75V73c4.5-4.66,10-9.14,13.86-14.35,2.57-3.51,4.12-8.67,5.47-12.74.89-2.67,1.12-4.84,2.95-6.85a24.78,24.78,0,0,0,4-5.73A57.75,57.75,0,0,0,127.41,19c.44-2.18,1.55-5.37,1.19-7.63-.45-2.76-3.34-6.08-5.32-7.87-2.79-2.53-5.55-3-9.14-2.32C96,4.85,82.72,18.7,71.44,32.62c-4.18,5.16-9.23,9.31-13.71,14.23a148.24,148.24,0,0,0-11.1,13.9A247.27,247.27,0,0,0,27.21,93.67a366.48,366.48,0,0,0-19.6,47c-5.45,16.24-5.41,36,5.49,50,12.29,15.83,32.91,5.88,45.13-4.67,4.85-4.19,9.61-8.46,14.64-12.44,4.23-3.35,8.62-6.84,13.44-9.31s10.32-3.2,15.2-6.05c2.45-1.43,4.59-3.18,7.16-4.35,4.62-2.1,9.28-4.1,14-6,8.89-3.68,18.18-6.16,26.88-10.27,5.36-2.54,44.37-20.16,31.1-30.24a8.61,8.61,0,0,0-6.08-1.37c-1.57.19-1.59,2.69,0,2.5Z" transform="translate(-4.05 -0.93)"/><path d="M126.89,19.52a40.82,40.82,0,0,1,10.61-4.6c2.61-.68,5.9-1.29,8.42.05,3.77,2,3.59,7.08,3.3,10.72-.13,1.6,2.37,1.59,2.5,0,.63-7.84-2.24-14.7-11.09-13.88-5.23.48-10.54,2.85-15,5.56a1.25,1.25,0,0,0,1.26,2.15Z" transform="translate(-4.05 -0.93)"/><path d="M167.37,46.27a4.7,4.7,0,0,1,.73.16,5.93,5.93,0,0,1,1.85.87c2.41,1.78,2.44,5.08,2,7.77-.25,1.58,2.15,2.26,2.41.67.56-3.54.44-7.52-2.46-10.05a7.92,7.92,0,0,0-4.55-1.92c-1.6-.1-1.6,2.4,0,2.5Z" transform="translate(-4.05 -0.93)"/><path d="M180.23,76.05a5.31,5.31,0,0,1,2.05,1.22c1.66,1.6,1.31,3.79.54,5.76-.58,1.49,1.83,2.14,2.41.66,1.63-4.15.2-8.73-4.34-10a1.25,1.25,0,0,0-.66,2.41Z" transform="translate(-4.05 -0.93)"/><path d="M90.77,57.19a153,153,0,0,0-32.1,33.6C51.26,101.4,47,113.49,40.73,124.71c-2.58,4.61-5.14,9.23-7.83,13.77a1.25,1.25,0,0,0,2.16,1.27c2.35-4,4.59-8,6.86-12,3.11-5.54,6.22-10.9,8.53-16.8a87.45,87.45,0,0,1,8.8-16.54A150,150,0,0,1,92,59.35c1.26-1,0-3.14-1.26-2.16Z" transform="translate(-4.05 -0.93)"/><path d="M126.74,66.1c-8.87,4.9-17,11.55-24.7,18.07-21.56,18.29-40.28,39.77-56.93,62.56-1,1.3,1.22,2.55,2.16,1.27,16.52-22.62,35.14-43.91,56.54-62.06,7.54-6.39,15.5-12.88,24.19-17.68,1.41-.78.15-2.94-1.26-2.16Z" transform="translate(-4.05 -0.93)"/><path d="M157,86.61C128.27,100.69,98.92,116,73.38,135.4,67.29,140,60.57,145.19,56.72,152a1.25,1.25,0,0,0,2.15,1.26c3.4-5.95,9.23-10.57,14.55-14.72a271.72,271.72,0,0,1,25.11-17c15.92-9.79,32.36-18.75,49-27.29,3.58-1.84,7.18-3.67,10.79-5.44,1.45-.71.18-2.86-1.26-2.16Z" transform="translate(-4.05 -0.93)"/><path d="M155.8,116c-13.25,4.8-26.38,10-39.33,15.56-9.42,4-18.83,8.23-27.81,13.19-4.67,2.59-12,6-14.34,11.2-.66,1.45,1.49,2.73,2.15,1.26,2.42-5.35,10.55-8.76,15.38-11.34,8.71-4.66,17.76-8.69,26.84-12.56q18.67-7.95,37.78-14.9c1.5-.55.85-3-.67-2.41Z" transform="translate(-4.05 -0.93)"/></svg>