<?xml version="1.0" encoding="utf-8"?>
<!-- Generator: Adobe Illustrator 22.1.0, SVG Export Plug-In . SVG Version: 6.00 Build 0)  -->
<svg version="1.1" id="ail" xmlns="http://www.w3.org/2000/svg" xmlns:xlink="http://www.w3.org/1999/xlink" x="0px" y="0px"
	 viewBox="0 0 200 200" style="enable-background:new 0 0 200 200;" xml:space="preserve">
<g>
	<g>
		<g>
			<g>
				<g>
					<path d="M120.3,188.4c0.4,1.6,0.9,3.2,1.3,4.8c0.1,0.4,0.5,0.8,0.9,0.9c6.3,1.6,12.8,3,19.3,4c3.6,0.6,7.4,1.2,11.1,0.9
						c4.2-0.3,4.8-2.9,6.5-6.6c0.7-1.4-1.5-2.7-2.2-1.3c-0.9,1.9-1.7,4.6-3.6,5.3c-1.4,0.5-3.7,0.1-5.1,0c-4.8-0.3-9.5-1.3-14.2-2.2
						c-3.2-0.6-6.5-1.9-9.7-2.2c-1.7-0.2-0.9-0.5-0.6,0.1c-0.6-1.3-0.8-3-1.2-4.3C122.3,186.2,119.9,186.9,120.3,188.4L120.3,188.4z
						"/>
				</g>
			</g>
			<g>
				<g>
					<path d="M34.3,169.2c0.5,1.9,0.9,3.7,1.4,5.6c0.1,0.4,0.5,0.8,0.9,0.9c6.9,1.9,14,3.6,21.1,4.7c4,0.7,8.3,1.4,12.4,1
						c4.5-0.4,5-3.7,6.8-7.6c0.6-1.5-1.5-2.7-2.2-1.3c-0.8,1.9-1.7,5.4-3.6,6.2c-1.5,0.7-4.7,0.2-6.3,0c-5.1-0.4-10.2-1.4-15.3-2.5
						c-3.6-0.8-7.3-2.2-10.9-2.6c-0.3,0-0.8-0.1-1.1-0.3c-0.9-0.4,0.6,1.5,0.3,0.1c-0.3-1.6-0.8-3.3-1.2-4.9
						C36.3,167,33.9,167.6,34.3,169.2L34.3,169.2z"/>
				</g>
			</g>
			<g>
				<g>
					<path d="M180.7,129.3c-2.8-1.9-6-3.3-8.6-5.4c-4.3-3.5-6.6-8.6-7.9-13.8c-2-7.9,0.4-16.5,2.6-24.1c3.7-12.5,8.7-24.8,14.4-36.6
						c0.3-0.6,0.1-1.7-0.7-1.8c-5.1-0.8-10.3-1.6-15.4-2.5c-0.7-0.1-1.3,0.2-1.5,0.9c-5.9,15.1-11.8,30.2-17.8,45.2
						c-1.5,3.8-3,7.6-4.6,11.4c-0.9,2.2-1.6,4.6-3.4,6.3c-6.5,6.2-15.9,8.7-22.9,14.3c0.7,0.2,1.4,0.4,2.1,0.6
						c-3.7-9.7-9.8-19.2-18.6-24.9c-3.2-2.1-6.5-3.8-9.1-6.6c-4.2-4.6-6.5-10.9-7.5-16.9c-1.4-8.5,1.1-17.6,3.3-25.7
						c2.5-9.2,5.7-18.3,9.2-27.2c2.1-5.3,4.2-10.6,6.6-15.9c0.3-0.7,0.1-1.7-0.7-1.8c-5.6-1-11.3-1.9-16.9-2.9
						c-0.7-0.1-1.3,0.2-1.5,0.9C73.2,25.8,65,49.1,55.9,72C52.2,81.3,40,84.2,32.4,89.6c-9.9,7.1-19,17.1-25,27.6
						c-8.1,14.2-7.6,29.8,5.2,41c14.7,12.9,35.9,16,54.7,16.2c8,0.1,15.9-0.4,23.8-1.3c0.8-0.1,3-0.8,3.7-0.5
						c0.8,0.4,3.1,4.1,4.1,5.1c3.1,2.8,6.6,5.2,10.4,7.1c15.9,8,35,9,52.5,8c5.7-0.3,12-0.4,17.5-1.8c7.1-1.8,13.9-10.9,16.7-17.4
						C202.6,157.8,193.8,138.9,180.7,129.3c-1.3-1-2.5,1.2-1.3,2.2c7.6,5.6,13.4,14.5,15.5,23.7c1.3,5.4,1,11.1-0.9,16.4
						c-1.3,3.3-3.2,6.4-5.5,9.1c-2.2,2.6-5.7,6.6-8.8,7.8c-4.5,1.7-10.9,1.5-15.7,1.8c-10.5,0.7-21.2,0.6-31.7-1
						c-13.3-2-28.3-6.8-36.3-18.4c-0.4-0.5-0.8-0.7-1.4-0.6c-21.9,3.1-46.6,3.6-67.1-5.5c-11-4.8-22.5-13.7-23.4-26.5
						c-0.8-10.5,5.1-20.5,11.4-28.4c4.9-6.2,10.6-11.8,16.7-16.8c3.9-3.2,8.6-5.2,12.9-7.8c5.6-3.4,10.8-6.5,13.3-12.7
						c2.9-7.2,5.5-14.6,8.3-21.9C72.5,34.8,78.3,19.1,84,3.3c-0.5,0.3-1,0.6-1.5,0.9c5.6,1,11.3,1.9,16.9,2.9
						c-0.2-0.6-0.5-1.2-0.7-1.8c-5.9,13-11.1,26.6-15.1,40.3C78.7,62,74.4,83.9,90,96.4c3.2,2.6,7,4.2,10.1,6.9
						c6.5,5.5,11.3,13.1,14.3,21c0.4,0.9,1.3,1.2,2.1,0.6c5.8-4.6,12.6-7.2,18.8-11.2c4.3-2.8,6.1-5.3,8-9.9
						c6-14.5,11.6-29.1,17.3-43.7c1.8-4.5,3.5-9,5.2-13.4c-0.5,0.3-1,0.6-1.5,0.9c5.1,0.8,10.3,1.6,15.4,2.5
						c-0.2-0.6-0.5-1.2-0.7-1.8c-6.4,13.3-12.2,27.2-15.8,41.5c-2.2,8.7-3.3,17-0.1,25.5c3.3,8.6,9.3,11.4,16.3,16.3
						C180.8,132.4,182,130.2,180.7,129.3z"/>
				</g>
			</g>
			<g>
				<g>
					<path d="M56.1,74.4c7.5,4.3,16.7,6.4,25.1,4.5c1.6-0.4,0.9-2.8-0.7-2.4c-7.8,1.8-16.4-0.2-23.2-4.2
						C55.9,71.4,54.7,73.5,56.1,74.4L56.1,74.4z"/>
				</g>
			</g>
			<g>
				<g>
					<path d="M43.7,101.7c-18.8,16.7-25,44-13.4,66.5c0.7,1.4,2.9,0.2,2.2-1.3c-11-21.5-4.8-47.5,13.1-63.4
						C46.7,102.4,44.9,100.6,43.7,101.7L43.7,101.7z"/>
				</g>
			</g>
			<g>
				<g>
					<path d="M65.2,110.5c-13.8,18-17.2,43.6-4.8,63.1c0.9,1.4,3,0.1,2.2-1.3c-12-18.8-8.4-43.3,4.8-60.6
						C68.4,110.5,66.2,109.3,65.2,110.5L65.2,110.5z"/>
				</g>
			</g>
			<g>
				<g>
					<path d="M85.4,117.7c10,15.9,7.4,37.8,0,54c-0.7,1.5,1.5,2.7,2.2,1.3c7.8-17,10.5-39.8,0-56.5
						C86.7,115.1,84.5,116.4,85.4,117.7L85.4,117.7z"/>
				</g>
			</g>
		</g>
		<g>
			<g>
				<g>
					<path d="M140.2,107.4c6.9,3.8,15.3,5.5,23,3.9c1.6-0.3,0.9-2.8-0.7-2.4c-7,1.5-14.8-0.2-21.1-3.6
						C140.1,104.5,138.8,106.7,140.2,107.4L140.2,107.4z"/>
				</g>
			</g>
			<g>
				<g>
					<path d="M128.9,130.5c-16.8,14.1-22.9,37.5-12.3,57.1c0.8,1.4,2.9,0.2,2.2-1.3c-10.1-18.6-4-40.7,11.9-54
						C131.9,131.3,130.1,129.5,128.9,130.5L128.9,130.5z"/>
				</g>
			</g>
			<g>
				<g>
					<path d="M148.7,137.9c-12.5,15.4-16,37.5-4.6,54.4c0.9,1.3,3.1,0.1,2.2-1.3c-10.7-15.9-7.6-36.8,4.2-51.4
						C151.5,138.4,149.7,136.6,148.7,137.9L148.7,137.9z"/>
				</g>
			</g>
			<g>
				<g>
					<path d="M166.9,144.5c9,13.5,6.7,32.2,0,46c-0.7,1.4,1.5,2.7,2.2,1.3c7.1-14.6,9.5-34.2,0-48.5
						C168.2,141.9,166,143.1,166.9,144.5L166.9,144.5z"/>
				</g>
			</g>
		</g>
	</g>
	<g>
		<g>
			<path d="M115,122.9c-16.9,9.8-24.6,30-21.2,48.7c0.3,1.6,2.7,0.9,2.4-0.7c-3.2-17.6,4.2-36.7,20.1-45.9
				C117.7,124.3,116.4,122.1,115,122.9L115,122.9z"/>
		</g>
	</g>
</g>
</svg>
