<?xml version="1.0" encoding="utf-8"?>
<!-- Generator: Adobe Illustrator 22.1.0, SVG Export Plug-In . SVG Version: 6.00 Build 0)  -->
<svg version="1.1" id="asperge" xmlns="http://www.w3.org/2000/svg" xmlns:xlink="http://www.w3.org/1999/xlink" x="0px" y="0px"
	 viewBox="0 0 200 200" style="enable-background:new 0 0 200 200;" xml:space="preserve">
<style type="text/css">
	.st0{fill:#1D1D1B;}
</style>
<g>
	<g>
		<g>
			<g>
				<path class="st0" d="M43.5,22.4c-4.7-5.5-10.4-11.2-16.9-14.5C19.8,4.3,11.3,4.3,4,5.6C3.6,5.7,3.4,6.1,3.5,6.4
					c5.4,13.2,22.7,19.5,34.8,24.3c0.7,0.3,1.1-0.9,0.3-1.2c-7.4-2.9-14.9-6.3-21.6-10.5c-3.8-2.4-7.4-5.4-10-9.1
					c-0.7-0.9-1.2-2-1.8-2.9C4.4,6,5.3,6.4,4.5,6.8c2.1-1.3,7.5-0.7,9.8-0.6c5.3,0.2,10,1.5,14.4,4.4c5.2,3.4,9.8,8,13.9,12.7
					C43.2,23.8,44,23,43.5,22.4L43.5,22.4z"/>
			</g>
		</g>
		<g>
			<g>
				<path class="st0" d="M71,52.1c-9.5-7.3-19.1-14.5-29.2-20.9c-6-3.8-12.8-5.3-16.7-12c-0.2,0.3-0.5,0.6-0.7,0.9
					c4.2,1.3,9,3.1,13.4,3.2c2,0,3.4-0.7,5.3,0c5.9,2.3,11.5,6,16.8,9.4C73.2,41.1,88,50.1,98.3,62.2c0.5,0.6,1.4-0.3,0.9-0.9
					C88.7,49,73.6,39.8,60.1,31.4c-5.3-3.3-10.8-6.9-16.6-9.2c-1.9-0.8-3.1-0.7-5.1-0.5c-4.4,0.4-9.4-1.4-13.7-2.8
					c-0.5-0.2-1,0.5-0.7,0.9c3.9,6.6,10.5,8.5,16.4,12c10.5,6.3,20.3,13.9,29.9,21.3C71,53.7,71.6,52.6,71,52.1L71,52.1z"/>
			</g>
		</g>
		<g>
			<g>
				<path class="st0" d="M76.3,43.5c-4.9-3-10-5.5-15-8.2c-0.4-0.2-0.9,0.1-0.9,0.5c0.1,6.1,4.2,11.4,9.1,14.6
					c0.7,0.4,1.3-0.6,0.6-1.1c-4.5-2.9-8.4-7.9-8.5-13.5c-0.3,0.2-0.6,0.4-0.9,0.5c5,2.7,10.1,5.3,15,8.2
					C76.3,45,76.9,43.9,76.3,43.5L76.3,43.5z"/>
			</g>
		</g>
		<g>
			<g>
				<path class="st0" d="M98.3,62.2c5.8,6.7,11.6,13.4,17.5,20.1c0.5,0.6,1.4-0.3,0.9-0.9C110.8,74.7,105,68,99.2,61.3
					C98.6,60.7,97.7,61.5,98.3,62.2L98.3,62.2z"/>
			</g>
		</g>
		<g>
			<g>
				<path class="st0" d="M41.3,21.5c-2-1.5-4-3-6.2-4.3c-1.7-1-1.3-0.7-2.1-2.1c-2.6-4.6-8.3-5.2-13.1-5.6c-0.4,0-0.7,0.4-0.6,0.8
					c0.8,3.9,5.1,6.6,8.3,8.4c0.7,0.4,1.3-0.7,0.6-1.1c-1.1-0.6-2.1-1.3-3.1-2c-0.9-0.7-1.9-1.5-2.7-2.4c-0.8-0.7-1.3-1.6-1.7-2.6
					c0.2,0.1,0.5,0.1,0.7,0.2c1.6-0.7,6.6,1.3,8.2,2.2c1.1,0.7,1.8,1.5,2.4,2.6c1.8,3.2,5.7,4.7,8.8,6.9C41.4,23.1,42,22,41.3,21.5
					L41.3,21.5z"/>
			</g>
		</g>
		<g>
			<g>
				<path class="st0" d="M20.5,10.6c-3.3-2.2-7.6-4-11.6-3.1C8.6,7.6,8.3,8,8.4,8.3c1.7,4.6,6.5,7.4,11.2,8.2
					c0.8,0.1,1.1-1.1,0.3-1.2c-4.2-0.7-8.8-3.1-10.3-7.3C9.5,8.2,9.4,8.4,9.2,8.7c3.7-0.8,7.7,0.9,10.7,3
					C20.6,12.1,21.2,11.1,20.5,10.6L20.5,10.6z"/>
			</g>
		</g>
		<g>
			<g>
				<path class="st0" d="M26,23c-4.8-1.3-10.4-3.7-13.1-8c-0.2,0.3-0.5,0.6-0.7,0.9c2.7,0.9,5.5,1.7,8.3,1.9c0.8,0,0.8-1.2,0-1.3
					c-2.7-0.2-5.4-1-8-1.8c-0.5-0.2-1,0.5-0.7,0.9c2.9,4.6,8.8,7.2,13.9,8.6C26.5,24.5,26.8,23.3,26,23L26,23z"/>
			</g>
		</g>
	</g>
	<g>
		<g>
			<g>
				<path class="st0" d="M42.5,34.5c-9.7-9.4-21.8-14-35.4-12.2c-0.4,0.1-0.7,0.4-0.6,0.8c1.1,6.3,8,10.8,13.2,13.4
					c0.7,0.4,1.3-0.7,0.6-1.1c-4.7-2.4-9.7-5.7-11.9-10.7c-0.7-1.6-0.1-1.8-1.2-1.2c1-0.6,3.2-0.3,4.3-0.3
					c11.7-0.4,21.7,4.1,30.1,12.2C42.1,36,43,35.1,42.5,34.5L42.5,34.5z"/>
			</g>
		</g>
		<g>
			<g>
				<path class="st0" d="M187.5,181.4c-1.7,3-6.5,6.5-10.1,7.4c0,0,0.7,0.9-0.1-0.3c-1.4-2.2-3-4.3-4.6-6.4
					c-6.6-9.2-13.2-18.3-20-27.3c-18-24.1-36.4-48.2-57.2-69.9c-7.1-7.4-15.4-16.7-25.3-20.3c-0.8-0.3-1.1,0.9-0.3,1.2
					c8.4,3,15.5,10.6,21.6,16.8c9.3,9.4,18,19.4,26.4,29.6c17,20.6,33.1,41.9,48.7,63.5c3.4,4.7,6.8,9.4,10.1,14.1
					c0.2,0.3,0.5,0.4,0.9,0.2c4-1.7,8.7-4.1,10.9-8C189,181.3,187.9,180.7,187.5,181.4L187.5,181.4z"/>
			</g>
		</g>
		<g>
			<g>
				<path class="st0" d="M100.4,90.1c-1.5-0.8-3.1-1.5-4.6-2.3c-0.6-0.3-1.3,0.5-0.8,1c4.3,4.1,8.7,8.1,13,12.2
					c0.6,0.5,1.5-0.3,0.9-0.9c-4.3-4.1-8.7-8.1-13-12.2c-0.3,0.3-0.5,0.7-0.8,1c1.5,0.8,3.1,1.5,4.6,2.3
					C100.5,91.5,101.2,90.4,100.4,90.1L100.4,90.1z"/>
			</g>
		</g>
		<g>
			<g>
				<path class="st0" d="M38.3,33.5c-1-0.8-2.5-1.2-2.9-1.9c-0.5-0.6-0.5-1.5-1.1-2.2c-2.6-3.3-8.1-3.5-11.9-3.7
					c-0.4,0-0.7,0.4-0.6,0.8c0.6,3.7,4.8,6.3,7.9,7.9c0.7,0.4,1.3-0.7,0.6-1.1c-2.8-1.5-6.8-3.8-7.3-7.2c-0.2,0.3-0.4,0.5-0.6,0.8
					c3.7,0.2,9.8,0.4,11.6,4.5c0.2,0.4,0.2,1,0.5,1.4c0.7,0.9,2.2,1.1,3.2,1.8C38.3,35,38.9,33.9,38.3,33.5L38.3,33.5z"/>
			</g>
		</g>
		<g>
			<g>
				<path class="st0" d="M23,26.7c-3.2-2.1-7.4-3.7-11.3-2.7c-0.3,0.1-0.5,0.5-0.4,0.8c1.6,4.5,6.3,7,10.9,7.7
					c0.8,0.1,0.8-1.1,0-1.3c-3.7-0.5-8.3-2.7-9.7-6.7c-0.1,0.3-0.3,0.5-0.4,0.8c3.5-0.9,7.4,0.6,10.3,2.6C23,28.2,23.6,27.1,23,26.7
					L23,26.7z"/>
			</g>
		</g>
		<g>
			<g>
				<path class="st0" d="M22.5,34.7c-2.9,0.9-5.6-1.2-7.1-3.5c-0.2,0.3-0.5,0.6-0.7,0.9c2.6,0.8,5.3,1.5,8.1,1.6
					c0.8,0,0.8-1.2,0-1.3c-2.6-0.1-5.3-0.7-7.7-1.5c-0.5-0.2-1,0.5-0.7,0.9c1.7,2.8,5,5.2,8.5,4.1C23.6,35.7,23.2,34.5,22.5,34.7
					L22.5,34.7z"/>
			</g>
		</g>
	</g>
	<g>
		<g>
			<g>
				<path class="st0" d="M58,46.4c-4.5-5.2-10.6-10.6-17.4-12.5c-7-1.9-15.2-0.3-22,1.9c-0.3,0.1-0.5,0.4-0.4,0.8
					c3.7,12.6,22.4,16.4,33.2,18.9c0.8,0.2,1.1-1,0.3-1.2c-7.4-1.8-15.3-4-22.1-7.5c-3.4-1.7-6.5-4.2-8.6-7.4
					c-0.5-0.8-0.9-1.6-1.3-2.4c-0.5-1.1-0.4,0-0.3,0c1.9-1.2,5.4-1.4,7.5-1.8c4.6-0.8,9.5-1.2,14,0.1c6.3,1.9,11.9,7.1,16.2,12
					C57.6,47.8,58.5,47,58,46.4L58,46.4z"/>
			</g>
		</g>
		<g>
			<g>
				<path class="st0" d="M181.9,186c-12.6-18.9-25.9-37.3-39.8-55.2c-10.4-13.4-21.2-26.7-33.1-38.9c-8.1-8.2-16.1-15.2-26.6-19.9
					c-6.2-2.8-12-7.5-17.9-11c-3.3-2-6.7-3.9-10.1-5.6c-5.6-2.9-12.3-2.9-15.5-9.3c-0.2,0.3-0.5,0.6-0.7,0.9
					c4.1,0.7,8.7,1.5,12.9,1.1c2.1-0.2,3.8-1.3,5.9-0.9c5.1,1,10.4,4.3,15,6.7c13.7,7.2,27.6,15.1,39.8,24.8
					c8.2,6.5,14.7,15.4,21.7,23.2c11.8,13.3,23.5,26.8,34.8,40.6c6.5,8,12.9,16.2,18.8,24.7c1.3,1.9,2.6,3.7,3.8,5.6
					c1.7,2.6,2.1,3.7-0.4,6c-2.8,2.6-6,4.8-9.3,6.8c-0.7,0.4-0.1,1.5,0.6,1.1c4.5-2.7,9.5-5.9,12.4-10.3c0.1-0.2,0.1-0.4,0-0.6
					c-17.4-28.3-40.7-53.2-62.6-77.9c-6.5-7.3-12.6-15.3-20.4-21.3c-11.8-9-24.8-16.6-38-23.5c-4.8-2.5-10-5.5-15.3-6.9
					c-2-0.5-3.1-0.3-5.1,0.2c-4.4,1-9.5,0.2-14.2-0.5c-0.5-0.1-1,0.4-0.7,0.9c3,5.8,8.8,6.8,14.1,8.8c5.5,2.1,10.9,5.8,15.9,8.9
					c4.6,2.8,9.3,6.6,14.2,8.8c2.2,1,4.4,1.7,6.6,2.9c5.5,3.3,10.4,7.7,15,12.1c23.9,22.9,43.6,50.4,62.7,77.3
					c4.9,6.9,9.8,13.9,14.5,21C181.3,187.3,182.3,186.6,181.9,186z"/>
			</g>
		</g>
		<g>
			<g>
				<path class="st0" d="M89.4,62.3c-4.8-2.2-9.9-4-14.8-6c-0.3-0.1-0.7,0.1-0.8,0.4c-0.8,5.7,2.4,10.9,7.4,13.4
					c0.7,0.4,1.3-0.7,0.6-1.1c-4.5-2.3-7.5-7.1-6.8-12c-0.3,0.1-0.5,0.3-0.8,0.4c4.8,1.9,9.8,3.7,14.5,5.8
					C89.5,63.8,90.1,62.7,89.4,62.3L89.4,62.3z"/>
			</g>
		</g>
		<g>
			<g>
				<path class="st0" d="M109.9,77.3c1.8,3.2,3.5,6.4,5.3,9.5c0.4,0.7,1.5,0.1,1.1-0.6c-1.8-3.2-3.5-6.4-5.3-9.5
					C110.6,76,109.5,76.6,109.9,77.3L109.9,77.3z"/>
			</g>
		</g>
		<g>
			<g>
				<path class="st0" d="M110,93.1c-1.3-0.5-2.5-0.9-3.8-1.4c-0.6-0.2-1.1,0.6-0.6,1c4.2,3.6,8.3,7.3,12.5,10.9
					c0.6,0.5,1.5-0.4,0.9-0.9c-4.2-3.6-8.3-7.3-12.5-10.9c-0.2,0.3-0.4,0.7-0.6,1c1.3,0.5,2.5,0.9,3.8,1.4
					C110.4,94.6,110.8,93.4,110,93.1L110,93.1z"/>
			</g>
		</g>
		<g>
			<g>
				<path class="st0" d="M150.2,120.9c-0.8,4.9-1.6,9.8-2.5,14.7c-0.1,0.4,0.2,0.8,0.6,0.8c3.4,0.1,7-0.7,9.8-2.6
					c0.7-0.5,0-1.5-0.6-1.1c-2.6,1.8-6,2.5-9.1,2.5c0.2,0.3,0.4,0.5,0.6,0.8c0.8-4.9,1.6-9.8,2.5-14.7
					C151.6,120.4,150.4,120.1,150.2,120.9L150.2,120.9z"/>
			</g>
		</g>
		<g>
			<g>
				<path class="st0" d="M185.8,165.6c0.9,4,1.9,8,2.8,11.9c0.2,0.8,1.4,0.5,1.2-0.3c-0.9-4-1.9-8-2.8-11.9
					C186.8,164.5,185.6,164.8,185.8,165.6L185.8,165.6z"/>
			</g>
		</g>
		<g>
			<g>
				<path class="st0" d="M55.8,45.9c-2.2-1.3-4.5-2.4-6.7-3.6c-1.2-0.7-0.5-0.2-1.2-1.7c-1.9-4.4-9.3-3.6-13-3.4
					c-0.3,0-0.7,0.3-0.6,0.6c0.3,3.8,4.5,6.1,7.7,7.4c0.7,0.3,1.1-0.9,0.3-1.2c-1.2-0.5-2.5-1.2-3.5-1.9c-0.6-0.4-2.7-1.8-2.7-2.6
					c-0.1-1.7,1.6-1.2,2.8-1.2c3.1,0.1,6.5,0.2,8,3.2c0.4,0.8,0.2,1.1,0.9,1.7c0.9,0.8,2.9,1.3,4,1.9c1.1,0.6,2.2,1.3,3.3,1.9
					C55.8,47.4,56.5,46.3,55.8,45.9L55.8,45.9z"/>
			</g>
		</g>
		<g>
			<g>
				<path class="st0" d="M35.4,38.2c-3.6-2-8-2.7-11.9-1.4c-0.3,0.1-0.5,0.4-0.4,0.8c1.2,4.7,6.4,6.5,10.8,6.6c0.8,0,0.8-1.2,0-1.3
					c-3.8,0-8.6-1.5-9.6-5.6c-0.1,0.3-0.3,0.5-0.4,0.8c3.6-1.2,7.6-0.6,10.9,1.2C35.5,39.7,36.1,38.6,35.4,38.2L35.4,38.2z"/>
			</g>
		</g>
		<g>
			<g>
				<path class="st0" d="M39.1,49.7c-4.3-0.5-10.2-1.9-12.5-5.9c-0.2,0.3-0.5,0.6-0.7,0.9c2.8,0.5,5.7,0.9,8.5,0.6
					c0.8-0.1,0.8-1.3,0-1.3c-2.7,0.3-5.5-0.1-8.2-0.6c-0.5-0.1-1,0.4-0.7,0.9c2.6,4.4,8.8,6,13.6,6.5C39.9,51.1,39.9,49.8,39.1,49.7
					L39.1,49.7z"/>
			</g>
		</g>
	</g>
</g>
</svg>
