<?xml version="1.0" encoding="utf-8"?>
<!-- Generator: Adobe Illustrator 22.1.0, SVG Export Plug-In . SVG Version: 6.00 Build 0)  -->
<svg version="1.1" id="aubergine" xmlns="http://www.w3.org/2000/svg" xmlns:xlink="http://www.w3.org/1999/xlink" x="0px" y="0px"
	 viewBox="0 0 200 200" style="enable-background:new 0 0 200 200;" xml:space="preserve">
<g>
	<g>
		<g>
			<path d="M139.6,26.9c-19.9,16.1-40,32-60.9,46.8c-9,6.4-17.8,12.7-28.2,16.3c-5.4,1.9-10.2,6.5-14.3,10.4
				c-6.1,5.8-11.6,12.4-16.5,19.3c-9.1,12.8-19.2,30.1-16.4,46.5c2.1,12.6,13.2,20.4,24.7,24c36.6,11.6,76.4-9.7,98.5-38.4
				c14.5-18.9,27.7-38.9,41.5-58.3c4.4-6.3,8.9-12.5,13.2-18.8c0.9-1.3-1.3-2.6-2.2-1.3c-12.5,18.2-25.5,36.1-38.2,54.1
				c-7.6,10.7-14.8,22-23.8,31.6c-7.6,8.1-16.5,15.1-26.3,20.4c-15.3,8.3-33.3,12.7-50.7,10.7c-12.2-1.4-26.7-6.5-32.3-18.4
				c-7.5-15.6,3.6-35.3,12.2-48c4.9-7.3,10.5-14.1,16.7-20.3c4.1-4.1,9-9,14.6-11.1c9.4-3.5,17.4-8.6,25.6-14.4
				c22.2-15.5,43.5-32.3,64.6-49.4C142.6,27.7,140.8,25.9,139.6,26.9L139.6,26.9z"/>
		</g>
	</g>
	<g>
		<g>
			<path d="M141.3,26.9c-2.9-2.8,9.8-4.2,11.3-4.7c4.9-1.5,10.1-3.2,15.2-1.7c2.6,0.8,3.4-0.2,5.5-2.3c3-3.1,5.8-6.6,8.6-10
				c-0.7-0.2-1.4-0.4-2.1-0.6c1.4,3.8,2.8,7.5,4.1,11.3c0.2,0.7,0.7,1.5,0.8,2.2c0,0.2,0.4-1-0.3,0.5c-0.8,1.7-1.5,3.3-2.2,5
				c-0.2,0.4-0.3,0.9,0,1.3c3.3,4.3,4.1,10.7,3.8,16c-0.6,10.5-8.1,19.7-7.2,30.2c0.7-0.3,1.4-0.6,2.1-0.9c-2.1-2-3.9-4.6-5.2-7.2
				c-1.4-2.5-2.4-5.3-2.9-8.1c-0.6-3.2,0.2-6.4-0.3-9.5c-0.3-2-1.2-2.8-3.2-2.2c-1.6,0.5-2.9,2.2-4.5,2.9c-2.2,0.9-4.4,0.4-6.4-0.6
				c-4.5-2.4-5.3-7.5-4.8-12.1c0.2-1.9,0.8-3.9,1.2-5.7c0.1-0.2,0.5-0.4,0.5-0.7c0-0.8,0.1-1-0.4-1.7c-1.1-1.4-5-1.2-6.5-1.4
				c-2.7-0.2-5.3-0.4-8-0.4c-1.6,0-1.6,2.5,0,2.5c2.5,0.1,5.1,0.2,7.6,0.4c1.3,0.1,3.8,1,5.1,0.7c0.1,0,0.1-2.2-0.5-0.9
				c-0.5,1.2-0.7,2.5-1,3.7c-1.4,6.8-0.8,14.8,6.3,18c2.7,1.2,5.4,1.6,8.1,0.3c0.4-0.2,4-2.9,4.2-2.8c-0.1,0-0.4,7.2-0.3,8.3
				c0.9,6.6,4.2,13.5,9.1,18.1c0.7,0.7,2.2,0.2,2.1-0.9c-0.9-9.6,5.8-18.2,6.9-27.6c0.7-5.7,0.4-13.1-2.9-18.2
				c-0.3-0.4-0.7-1-0.9-1.4c-0.3-0.7-0.1,1-0.1,0.9c0.1-0.4,0.4-1,0.6-1.3c0.9-1.4,2.3-3.9,2.2-5.6c-0.1-2.1-1.8-4.9-2.5-6.9
				c-0.8-2.3-1.7-4.6-2.5-6.9c-0.3-0.8-1.4-1.4-2.1-0.6c-2.9,3.7-6.2,9-10.2,11.6c-1.2,0.8,0.3,0.4-0.7,0.4c-0.4,0-1-0.5-1.4-0.7
				c-1.9-0.6-4-0.5-5.9-0.2c-4.7,0.6-9.1,2.4-13.8,3.2c-2.7,0.5-6.2,0.5-8.4,2.4c-1.7,1.6-1.7,3.9,0,5.5
				C140.7,29.8,142.5,28,141.3,26.9z"/>
		</g>
	</g>
</g>
</svg>
