<?xml version="1.0" encoding="utf-8"?>
<!-- Generator: Adobe Illustrator 22.1.0, SVG Export Plug-In . SVG Version: 6.00 Build 0)  -->
<svg version="1.1" id="betterave" xmlns="http://www.w3.org/2000/svg" xmlns:xlink="http://www.w3.org/1999/xlink" x="0px" y="0px"
	 viewBox="0 0 200 200" style="enable-background:new 0 0 200 200;" xml:space="preserve">
<g>
	<g>
		<g>
			<path d="M80.5,108c1.5-7.2,4-14.7,7.8-21c3.1-5.2,7.9-7.2,5.3-13.5C91,67.1,86,61.6,82.1,56C77,48.6,71.8,40.4,70.4,31.3
				c-1.1-6.8,0.5-19,8.3-21.7c5.1-1.8,10.1,2.8,13.2,6.3c10.1,11.5,15.4,29.1,14,44.3c-0.4,4.6-1.6,9.2-3.9,13.3
				c-2.5,4.6-6.7,7.9-9.5,12.3c-4.5,7.2-8.5,16-8.9,24.6c-0.1,1.6,2.4,1.6,2.5,0c0.4-9.8,5.7-21.3,12.3-28.4
				c5.4-5.8,8.7-12,9.7-19.9c2.1-15.7-3.2-33.5-12.8-46c-3.2-4.1-7.7-8.7-13.1-9.4c-5.4-0.7-9.3,3.3-11.7,7.8
				c-9,17.3,4.1,35.2,13.8,48.9c2.4,3.3,5,6.6,6.7,10.3c2,4.3,0,5-2.6,8.4c-5.4,7.1-8.5,16.4-10.4,25.1
				C77.8,108.9,80.2,109.5,80.5,108L80.5,108z"/>
		</g>
	</g>
	<g>
		<g>
			<path d="M87.7,112.2c3.4-4.7,6.8-9.3,10.2-14c2.1-2.9,4.2-5.8,6.3-8.7c0.8-1.1,1.9-2.2,2.3-3.5c1.1-3.9,0.6-9.1,1-13.2
				c0.8-8.7,2-17.3,4-25.8c1.3-5.5,3.1-15.5,8.7-18.6c4.6-2.5,11.1,1.8,14.6,4.5c14.2,11,17.4,29.4,4.9,43.1
				c-9.9,10.7-24.3,14.5-35.2,23.8c-5.1,4.3-10,9.6-13.2,15.5c-0.8,1.4,1.4,2.7,2.2,1.3c3.2-6.1,8.5-11.5,13.8-15.8
				c10.9-9,25-12.6,34.6-23.4c11.5-12.9,10.6-30-1.1-42.3c-4.1-4.3-9.7-8.5-15.7-9.6c-5.3-0.9-8.7,2.1-11.1,6.7
				c-3.9,7.4-5.5,16.1-6.8,24.3c-1.3,8-2.2,16.2-2.8,24.3c-0.1,1.1-0.2,4.9-0.3,5c0.2-0.4-1.2,1.4-1.4,1.8c-1.2,1.6-2.4,3.2-3.5,4.9
				c-4.5,6.2-9,12.4-13.5,18.6C84.5,112.2,86.7,113.5,87.7,112.2L87.7,112.2z"/>
		</g>
	</g>
	<g>
		<g>
			<path d="M84.7,33c3.3,2.2,5.7,6.1,7.4,9.5c5.6,11.1,5.4,24.1,3.3,36.1c-0.3,1.6,2.1,2.2,2.4,0.7c2.6-15.2,2.8-38.4-11.9-48.4
				C84.7,29.9,83.4,32.1,84.7,33L84.7,33z"/>
		</g>
	</g>
	<g>
		<g>
			<path d="M131.1,52.1c-0.8,17.5-16,33.5-28.8,43.6c-1.3,1,0.5,2.8,1.8,1.8c13.3-10.5,28.7-27.2,29.5-45.3
				C133.7,50.5,131.2,50.5,131.1,52.1L131.1,52.1z"/>
		</g>
	</g>
	<g>
		<g>
			<path d="M126.5,70c-5.3-3-10.6-8.8-8.7-15.3c0.5-1.5-2-2.2-2.4-0.7c-2.2,7.6,3.6,14.5,9.8,18.1C126.7,73,127.9,70.8,126.5,70
				L126.5,70z"/>
		</g>
	</g>
	<g>
		<g>
			<path d="M119.2,82.3c9.2-0.2,18.9-4.5,23-13.2c0.7-1.4-1.5-2.7-2.2-1.3c-3.7,7.8-12.4,11.8-20.8,11.9
				C117.6,79.8,117.6,82.3,119.2,82.3L119.2,82.3z"/>
		</g>
	</g>
	<g>
		<g>
			<path d="M97.8,58c-6.5-0.3-11.6-7.7-14.4-12.7c-0.8-1.4-2.9-0.1-2.2,1.3c3.2,5.8,9.1,13.6,16.5,13.9C99.5,60.6,99.4,58.1,97.8,58
				L97.8,58z"/>
		</g>
	</g>
	<g>
		<g>
			<path d="M99.1,123.6c7.1-2.8,14.2-6.5,20.1-11.4c2.4-2,5-7.1,8.2-7.3c3.1-0.2,6.7,1.8,9.4,3.1c15.1,7.1,33.8,18.9,50.8,10.7
				c4.9-2.4,10.8-6.9,10.6-13c-0.1-5-4.2-9-8.1-11.6c-12.6-8.7-30.6-11.4-45.5-8.8c-8.4,1.5-16.7,5.1-22.1,11.9
				c-6.9,8.6-16.6,16.7-27.8,19.1c-1.6,0.3-0.9,2.7,0.7,2.4c6.8-1.4,13.4-5.4,18.9-9.5c7.6-5.8,12-14.3,20.9-18.4
				c14.2-6.4,32.6-4.5,46.6,1.6c5,2.2,11.5,5.6,13.5,11.1c2.5,6.9-5.6,12.1-11,14.1c-17,6.1-34.2-6.7-49.1-13
				c-2.4-1-5.2-2.2-7.8-2.1c-2.9,0.2-3.7,1.7-5.4,3.8c-5.7,7-15,11.8-23.3,15C97,121.8,97.6,124.2,99.1,123.6L99.1,123.6z"/>
		</g>
	</g>
	<g>
		<g>
			<path d="M173.4,103.3c-12.2-12.7-35.1-8.8-49.4-3.8c-1.5,0.5-0.9,2.9,0.7,2.4c13.5-4.7,35.5-8.8,47,3.2
				C172.8,106.2,174.5,104.4,173.4,103.3L173.4,103.3z"/>
		</g>
	</g>
	<g>
		<g>
			<path d="M142.3,96.6c1.5,7.3,10.3,11.8,16.5,14c1.5,0.5,2.2-1.9,0.7-2.4c-5.4-1.9-13.4-5.8-14.7-12.2
				C144.4,94.4,142,95,142.3,96.6L142.3,96.6z"/>
		</g>
	</g>
	<g>
		<g>
			<path d="M67.1,104.5c-23.6,0.4-41.9,21.8-37.6,45.4c0.6,3.3,1.7,6.6,3.2,9.7c0,0,2.3,3.5,2.3,3.2c0,0.4-1,1.4-1.2,1.7
				c-4.1,5.4-9.3,7.7-15.9,8.6c-9.4,1.2-16.9,6.7-14.6,17c0.2,1,1.8,1.3,2.3,0.3c4-8.4,14.4-10.4,21.9-12.1c2.4-0.5,4.8-1.3,7-2.3
				c1.9-0.8,3.7-1.8,5.5-2.7c2.1-1,2.2-1.1,4.2,0.1c7.2,4.1,13.5,7.4,22,7.6c27.6,0.6,47-28.7,35.7-53.8
				C95.8,113.3,82.1,104.7,67.1,104.5c-1.6,0-1.6,2.5,0,2.5c23.5,0.4,41.1,23.2,34.2,46.1c-7.5,24.9-38.6,33-58,16.3
				c-0.4-0.4-1-0.5-1.5-0.2c-6.4,4.1-12.7,5.9-19.7,7.6c-7.3,1.7-15.4,5.2-18.8,12.3c0.8,0.1,1.5,0.2,2.3,0.3
				c-1.1-5.1,0.5-9.5,5.4-12c4.4-2.2,9.4-1.5,14-3.2c5.1-1.9,9.5-5.9,12.3-10.5c0.2-0.4,0.2-0.9,0-1.3c-15.1-23.9,1.5-55,29.8-55.5
				C68.7,106.9,68.7,104.4,67.1,104.5z"/>
		</g>
	</g>
</g>
</svg>
