<?xml version="1.0" encoding="utf-8"?>
<!-- Generator: Adobe Illustrator 22.1.0, SVG Export Plug-In . SVG Version: 6.00 Build 0)  -->
<svg version="1.1" id="brocoli" xmlns="http://www.w3.org/2000/svg" xmlns:xlink="http://www.w3.org/1999/xlink" x="0px" y="0px"
	 viewBox="0 0 200 200" style="enable-background:new 0 0 200 200;" xml:space="preserve">
<g>
	<g>
		<g>
			<path d="M138.6,110.2c-11.2,8.3-5.7,27.4-3.7,38.7c1.6,9.5,4.4,19.1,4.3,28.8c0,7-1.5,15.9-9.4,17.9c-4.6,1.1-11.1,2-15.7,0.4
				c-6-2.2-8.2-9.3-9.5-15c-1.3-5.6-1.2-11.6-2.6-17.1c-1.3-5.4-4.5-10.9-7.1-15.7c-7.1-13.3-16.6-26.5-28-36.4
				c-1.2-1.1-3,0.7-1.8,1.8c11,9.5,19.9,21.9,26.9,34.5c3.3,6,6.9,12.5,7.9,19.3c0.8,5.2,1.3,10.4,2.6,15.4
				c1.3,5.2,3.4,11.1,8.2,14.2c4.1,2.7,9.3,2.4,14,1.9c5.9-0.7,11.2-1.8,14.3-7.4c4.5-8.1,3.1-18.7,1.4-27.3
				c-1.7-8.5-3.2-17-4.5-25.5c-1.2-8.2-3.5-20.7,4.1-26.3C141.1,111.5,139.9,109.3,138.6,110.2L138.6,110.2z"/>
		</g>
	</g>
	<g>
		<g>
			<path d="M87.3,106.7c-11.2,5.8-25.8,5.1-36.4-1.5c-5.2-3.3-10.3-8.1-13.3-13.5c-2-3.4-3.7-11,1.3-12.7c3.7-1.3,8.7,0.5,12.1,2.1
				c1.5,0.7,2.7-1.4,1.3-2.2C39.5,72.1,34.2,56.7,37.5,43c3.1-12.9,12.7-25.9,27.4-23.2c5.6,1,11.2,3.9,15.4,7.7
				c0.8,0.8,2.6,0,2.1-1.2C78.3,16.1,83.2,6.8,93.8,4.3C111.1,0.2,130.4,7.1,136,25c0.5,1.6,2.9,0.9,2.4-0.7
				c-3.7-12-14.6-21.6-27.1-23.2C99-0.5,79.4,1.4,78.5,17.4c-0.2,3.1,0.3,6.6,1.5,9.5c0.7-0.4,1.4-0.8,2.1-1.2
				c-9.4-8.4-24-12.3-34.8-4.1c-15.1,11.5-17.9,36.4-6.1,51c2.7,3.3,6,6.5,9.8,8.5c0.4-0.7,0.9-1.5,1.3-2.2
				c-7.9-3.6-20.4-4.9-19,7.4c1.1,9.8,11,18.6,19.4,22.8c7,3.5,14.9,4.6,22.7,3.6c4.5-0.6,9.1-1.8,13.2-3.9
				C90,108.1,88.8,105.9,87.3,106.7L87.3,106.7z"/>
		</g>
	</g>
	<g>
		<g>
			<path d="M134.9,18.2c1.6-3.3,5.7-4.8,9.1-5c12.9-0.8,24.6,9.3,30.9,19.6c5.5,8.9,6.6,21.6-3.8,27.5c-1.4,0.8-0.1,3,1.3,2.2
				c12.8-7.2,10.4-22.9,3.2-33.3c-7-10.1-18.9-19.5-32-18.5c-4.1,0.3-8.9,2.3-10.8,6.2C132,18.3,134.2,19.6,134.9,18.2L134.9,18.2z"
				/>
		</g>
	</g>
	<g>
		<g>
			<path d="M144.8,65.3c4-3.4,10.5-2.9,15.1-0.8c10.2,4.7,21.1,18.4,15.3,30.1c-2.7,5.4-8.7,8.1-14.4,9.1c-5.5,1-8.9-5.3-11.7-9.6
				c-0.9-1.4-3.1-0.1-2.2,1.3c2.4,3.6,5.3,8.4,9.3,10.5c1,0.5,2.8,0.6,2.9,0.6c4.3-0.3,8.9-1.9,12.5-4.3c6.2-4.1,8.4-10.9,7.2-18.1
				c-1.7-10.3-11.2-20.6-21.5-23.2c-4.7-1.2-10.4-0.6-14.3,2.7C141.8,64.6,143.6,66.4,144.8,65.3L144.8,65.3z"/>
		</g>
	</g>
	<g>
		<g>
			<path d="M160.6,104.2c-2.3,3.2-5.7,7.8-9.9,7.9c-2.6,0.1-5.5-0.7-7.9-1.7c-12.9-5-19.4-19.2-23.2-31.5c-0.5-1.6-2.9-0.9-2.4,0.7
				c4.2,13.4,11.4,28.4,25.6,33.5c2.6,0.9,5.9,1.8,8.7,1.6c4.9-0.3,8.7-5.6,11.4-9.2C163.8,104.1,161.6,102.9,160.6,104.2
				L160.6,104.2z"/>
		</g>
	</g>
	<g>
		<g>
			<path d="M65.9,49.1C71.4,38.2,83,33.2,94.5,37.8c1.5,0.6,2.2-1.8,0.7-2.4c-12.5-5-25.5,0.6-31.5,12.5
				C62.9,49.3,65.1,50.6,65.9,49.1L65.9,49.1z"/>
		</g>
	</g>
	<g>
		<g>
			<path d="M123.1,26.7c9.7-2.1,19.6,2.2,24.8,10.5c0.9,1.4,3.1,0.1,2.2-1.3c-5.8-9.3-16.8-14.1-27.6-11.7
				C120.8,24.6,121.5,27.1,123.1,26.7L123.1,26.7z"/>
		</g>
	</g>
	<g>
		<g>
			<path d="M69.5,79.9c8.5,15.7,28.4,39.5,47.6,24.9c1.3-1,0-3.2-1.3-2.2c-17.9,13.7-36.2-9.4-44.1-24
				C70.9,77.2,68.7,78.5,69.5,79.9L69.5,79.9z"/>
		</g>
	</g>
	<g>
		<g>
			<path d="M87.8,121c2.4,2.3,4.9,4.6,7.3,6.9c1.2,1.1,3-0.7,1.8-1.8c-2.4-2.3-4.9-4.6-7.3-6.9C88.4,118.1,86.6,119.9,87.8,121
				L87.8,121z"/>
		</g>
	</g>
	<g>
		<g>
			<path d="M120,113.4c-0.4,3.4-0.7,6.8-1.1,10.2c-0.2,1.6,2.4,1.6,2.5,0c0.4-3.4,0.7-6.8,1.1-10.2
				C122.7,111.8,120.1,111.8,120,113.4L120,113.4z"/>
		</g>
	</g>
</g>
</svg>
