<?xml version="1.0" encoding="utf-8"?>
<!-- Generator: Adobe Illustrator 22.1.0, SVG Export Plug-In . SVG Version: 6.00 Build 0)  -->
<svg version="1.1" id="carotte" xmlns="http://www.w3.org/2000/svg" xmlns:xlink="http://www.w3.org/1999/xlink" x="0px" y="0px"
	 viewBox="0 0 200 200" style="enable-background:new 0 0 200 200;" xml:space="preserve">
<g>
	<g>
		<g>
			<path d="M89.8,80.3C94.9,76,99.6,72,102,65.7c4.7-12.1-1-25.4,4.7-37c3.1-6.4,7.5-11.9,14.2-13.6c2.7-0.7,5.7-1.1,8.5-0.2
				c2.9,0.9,7.7,4.6,6.5,8.2c-0.9,2.8-5.2,4-7.8,4.4c-1.7,0.3-1.3,3,0.4,3c9.6-0.4,19.6-3.6,27.6-8.8c9.2-5.9,19.4-12.3,30.9-11.8
				c5,0.2,8.6,3.3,7.3,8.6c-2.5,10.3-13.4,19.6-23.3,22.9c-1.3,0.4-1.6,2.7,0,2.9c5.9,1,10.2,4.5,9.9,10.7
				c-0.4,7.5-8.9,11.3-15.1,13.4c-11.5,3.9-24.2,5.6-36.2,7.3c-2.4,0.4-4.8,0.7-7.2,0.9c-0.4,0-2.3,0.1-1.7,0.1c0.5,0-0.5-0.2-0.9,0
				c-1.2,0.4-2.3,1-3.5,1.5c-3.2,1.4-7.9,3-9.8,6.2c-1,1.7,1.6,3.2,2.6,1.5c1.9-3.2,8-4.7,11.2-6.2c0.9-0.4-1.6,0-0.4-0.1
				c0.3,0,0.7,0.1,1,0.1c5.6-0.1,11.3-1.3,16.8-2.2c12.6-2.1,27.1-3.3,38.1-10.4c4.8-3,8.4-7.6,8.1-13.5
				c-0.4-7.1-5.1-11.1-12.1-12.2c0,1,0,1.9,0,2.9c7.9-2.7,15.5-8.6,20.3-15.3c3.5-4.8,8.6-13.3,3.4-18.8c-2.1-2.3-5.6-3.3-8.6-3.4
				c-8.3-0.3-17.5,3-24.6,7c-7.5,4.2-13.6,9.1-22,11.5c-3.8,1.1-7.9,1.9-11.9,2.1c0.1,1,0.3,2,0.4,3c4.7-0.8,11.1-3.8,10-9.6
				c-1.9-9.8-13.8-10.7-21.3-7.9c-4.9,1.8-8.4,6-11.3,10.3s-4.8,9.2-5.3,14.4c-0.7,7.1,1.1,14.1-0.2,21.3
				c-1.6,8.8-6.5,13.7-13.1,19.3C86.2,79.4,88.3,81.5,89.8,80.3L89.8,80.3z"/>
		</g>
	</g>
	<g>
		<g>
			<path d="M102.2,93.6c4.8,3.6,1.4,10.6-0.6,14.7c-2.6,5.5-5.9,10.7-9.2,15.7c-3.8,5.6-7.8,11.1-11.9,16.4
				c-8.3,10.6-18.4,20.2-29.7,27.5c-10.4,6.7-22,11.5-32.5,18.1c-2.1,1.3-3.9,3-5.7,4.6c-1.1,0.9-2.9,2.7-3.8,3.1
				c-3.1,1.4-5-1.9-3.8-4.6c0.7-1.6,2-2.7,2.9-4.1c3.7-5.5,5.2-13.5,7.5-19.7c1.7-4.7,3.4-9.4,5.1-14.1c0.5-1.5,1-3,1.6-4.4
				c0.3-0.9,0.3-0.8,0.4-0.9c3.4-7,8-13.6,12.2-20.1c7.3-11.3,41.6-65.8,58.1-41c1.1,1.6,3.7,0.1,2.6-1.5
				c-16.4-24.5-45.1,14.6-54,27.2c-7.2,10.1-13.8,20.5-20,31.2c-3.1,5.4-4.8,11.5-6.9,17.3c-2.1,5.9-4.3,11.8-6.4,17.7
				c-0.6,1.7-1.3,3.4-1.8,5.1c-0.1,0.4-0.3,0.9-0.5,1.3c0.6-1-0.5,0.4-0.9,0.8C1.8,187.4-1,195.1,5.6,197c4.1,1.1,7.2-2.6,10-4.9
				c6.5-5.4,15.3-9.6,23.4-14c15.9-8.7,29.8-18.8,41.5-32.8c5.3-6.4,10.8-13.9,15.8-21.6c4.8-7.4,18-24.9,7.6-32.8
				C102.2,89.8,100.7,92.4,102.2,93.6L102.2,93.6z"/>
		</g>
	</g>
	<g>
		<g>
			<path d="M73.4,122.2c6.9,1.8,8.3,11.4,8.2,17.2c0,1.9,3,2,3,0c0.1-7.3-2.1-17.9-10.4-20.1C72.3,118.8,71.5,121.7,73.4,122.2
				L73.4,122.2z"/>
		</g>
	</g>
	<g>
		<g>
			<path d="M47.8,141.6c7.5,3.7,13.7,11.3,12.1,20c-0.3,1.9,2.6,2.7,2.9,0.8c1.8-10.1-4.6-19.1-13.5-23.5
				C47.6,138.1,46,140.7,47.8,141.6L47.8,141.6z"/>
		</g>
	</g>
	<g>
		<g>
			<path d="M114.3,48.9c-2.4-5.5-1.6-12.9,2.4-18.1c1.2-1.5-1.4-3.1-2.6-1.5c-4.6,6-5.5,14.2-2.4,21.2
				C112.5,52.2,115.1,50.7,114.3,48.9L114.3,48.9z"/>
		</g>
	</g>
	<g>
		<g>
			<path d="M145,46c2.9-3.8,6.9-7.8,11.5-9.3c1.9-0.6,1.1-3.5-0.8-2.9c-5.2,1.6-9.6,5.8-12.9,10.1C141.6,45.3,143.8,47.5,145,46
				L145,46z"/>
		</g>
	</g>
	<g>
		<g>
			<path d="M140.1,65.5c5.8,1.2,11.7-1.8,15.8-5.6c1.5-1.3-0.7-3.4-2.1-2.1c-3.3,3-8.4,5.7-12.9,4.8C139,62.2,138.2,65.1,140.1,65.5
				L140.1,65.5z"/>
		</g>
	</g>
</g>
</svg>
