<?xml version="1.0" encoding="utf-8"?>
<!-- Generator: Adobe Illustrator 22.1.0, SVG Export Plug-In . SVG Version: 6.00 Build 0)  -->
<svg version="1.1" id="celeri" xmlns="http://www.w3.org/2000/svg" xmlns:xlink="http://www.w3.org/1999/xlink" x="0px" y="0px"
	 viewBox="0 0 200 200" style="enable-background:new 0 0 200 200;" xml:space="preserve">
<g>
	<g>
		<g>
			<path d="M93,61.8c-2.8,4.2-5.6,8.4-8.5,12.6c-3.6,5.2-6.9,10.2-11.7,14.5c-4.5,4.1-9,8.2-13.4,12.5
				c-12.6,12.1-24.9,24.8-35.8,38.4c-8.3,10.4-18,22.4-21.5,35.6c-0.6,2.2-0.8,4.6-0.4,7.7c1,9.9,8.4,15.4,18.1,15.6
				c3,0.1,6.8,0,9.5-1.4c2.8-1.5,5.5-3.8,8-5.7c5.8-4.4,11.4-9,16.9-13.7c12.2-10.4,23.9-21.2,35.5-32.3
				c16-15.3,29.7-31.4,49.8-41.2c1.4-0.7,0.2-2.9-1.3-2.2c-15.2,7.4-26.7,18.7-38.5,30.3c-20.8,20.3-42,40.9-65.4,58.2
				c-2.3,1.7-4.7,3.8-7.3,4.8c-3.7,1.4-9.3,1.1-13,0c-4.9-1.5-8.2-5.1-9.4-10.1c-0.7-2.9-0.6-6.9-0.1-8.8
				c2.9-11.9,11.7-23.1,19.1-32.5c11.3-14.4,24-27.6,37.1-40.2c4.6-4.4,9.3-8.8,14-13.1c4.4-4,7.4-8.2,10.7-13.1
				c3.3-4.8,6.6-9.7,9.8-14.5C96.1,61.7,93.9,60.4,93,61.8L93,61.8z"/>
		</g>
	</g>
	<g>
		<g>
			<path d="M25.8,177.5c2.5-11.4,8.3-22.4,14.5-32.1c6.8-10.7,15-20.4,24.4-29c8.2-7.5,17.5-13.2,26.2-19.9
				c10.8-8.3,21-18,28.1-29.7c0.8-1.4-1.3-2.6-2.2-1.3C110,76.8,100,86.2,89.5,94.3c-8.2,6.4-17.1,11.8-24.9,18.7
				c-16,14.2-29.2,32-37.3,52c-1.5,3.8-3,7.8-3.9,11.8C23.1,178.4,25.5,179,25.8,177.5L25.8,177.5z"/>
		</g>
	</g>
	<g>
		<g>
			<path d="M61.6,154.1c0.8-5,4.7-10.2,7.4-14.2c12.4-18.2,28.7-33.8,44.7-48.6c1.2-1.1-0.6-2.9-1.8-1.8
				c-16.2,15-32.6,30.8-45.1,49.2c-2.9,4.2-6.9,9.6-7.7,14.8C59,155,61.4,155.7,61.6,154.1L61.6,154.1z"/>
		</g>
	</g>
	<g>
		<g>
			<path d="M64.3,153.8c8.9-7.8,17.8-15.6,26.6-23.4c9.9-8.6,19.5-18.2,30.1-26c1.3-0.9,0-3.1-1.3-2.2c-10.5,7.7-20,17.1-29.8,25.7
				c-9.2,8-18.3,16-27.4,24.1C61.3,153.1,63.1,154.9,64.3,153.8L64.3,153.8z"/>
		</g>
	</g>
	<g>
		<g>
			<path d="M71.3,92.8c-0.9-4-3-6.7-6-9.4c-1.8-1.6-5.2-3.2-6.6-5c-3.1-4,10.6-9.3,13.4-9.7c2.9-0.4,3.5-0.2,4.9,2.4
				c0.4,0.7,0.7,1.5,1.1,2.2c1.6,2.6,2.9,3.8,2.4,7.1c-0.2,1.6,2.2,2.3,2.4,0.7c0.4-2.6,0.3-4.6-1-6.8c-1-1.7-2-3.1-2.9-5
				c-0.4-0.8-0.6-1.4-1.2-2c-4.2-4-12.9,1.1-16.7,3.3c-3.7,2.1-8.4,5.5-4.1,9.6c1.7,1.5,3.8,2.5,5.5,3.9c3.1,2.7,5.6,5.2,6.5,9.3
				C69.3,95,71.7,94.3,71.3,92.8L71.3,92.8z"/>
		</g>
	</g>
	<g>
		<g>
			<path d="M94.7,63.1c-0.5-3-2.4-4.3-5-2.8c-1.5,0.9-1.6,2.9-2.5,1c-0.1-0.3,0.1-1.1,0.1-1.4c-0.2-1.9-0.7-3.8-0.8-5.7
				c0-1.5-0.1-3,0.4-4.4c0.7-2.4,2.2-2.5,3.6-4.1c1.7-1.9,1.1-5.7,1.8-8.3c0.4-1.6,2.3-7,4.5-5.8c0.4,0.2,0.9,0.3,1.3,0
				c1.5-1,4-2.5,5.3-0.2c0.7,1.4,2.9,0.2,2.2-1.3c-1.5-2.8-4.2-3.1-7-1.7c-0.5,0.3-1,0.7-1.6,0.9c-0.1,0,1.9-0.1,0.7-0.1
				c-0.4,0-0.8-0.3-1.2-0.3c-6.7,0.2-5.9,9.3-7.7,13.5c-1.2,2.8-3.9,4.2-4.6,7.6c-0.7,3.4,0.2,6.5,0.5,9.8c0.1,1.6-0.4,4,1.3,5
				c2.3,1.5,5.9-3.6,6.3-1C92.5,65.3,94.9,64.6,94.7,63.1L94.7,63.1z"/>
		</g>
	</g>
	<g>
		<g>
			<path d="M108.5,38.6c-0.7-1.9-1.4-3.8-1.9-5.7c-0.7-2.4-2.9-8.1-1.5-10.5c2.2-3.6,1.7,1.3,3.5,1.8c1.4,0.4,1.8-0.6,2-1.8
				c0.8-4.7-4.9-18.6,4.7-17.9c7.5,0.5,3.2,12.1,1.7,15.8c-0.4,1-1.2,2.1-0.7,3.2c0.2,0.5,0.9,0.7,1.4,0.6c1.4-0.3,2.8-3.1,3.6-4
				c2.3-3,4.6-6,7.4-8.7c3.2-3.1,6.5-5.7,9.4-0.7c4.6,8.1,0.5,19.1-2.9,26.8c-0.6,1.5,1.5,2.7,2.2,1.3c3.4-7.7,6.7-17.1,4.4-25.6
				c-1-3.5-3.5-8.6-7.8-8c-3.9,0.5-7.4,4.7-9.8,7.4c-1.4,1.6-2.7,3.2-3.9,4.8c-0.5,0.7-3.2,3.3-3.2,4.2c0.1,4.9,3.3-2.3,3.3-2.5
				c1.4-3.4,2.4-7.5,1.6-11.2c-1.1-4.7-5.3-7.1-9.8-5.2c-4.6,1.9-5.1,7.2-4.8,11.5c0.1,1.7,0,5.9,0.9,7.3c1.4,2.3,2.6-1,1.1-2.4
				c-1.3-1.2-4-0.6-5.2,0.5c-1.5,1.3-1.5,3.6-1.5,5.4c0.2,4.8,1.9,9.8,3.6,14.3C106.7,40.7,109.1,40.1,108.5,38.6L108.5,38.6z"/>
		</g>
	</g>
	<g>
		<g>
			<path d="M141.4,21.4c1.9-0.4,4.1-0.4,6,0.2c6.3,2.2,5,10,3.8,15c-0.2,0.8,0.4,1.6,1.2,1.6c1.1,0,5-0.3,5.8,0.7
				c-0.2-0.3,0.3-0.5-0.2-0.2c-0.6,0.5-0.4,1.6,0.3,2c4.7,2.6,6.5,7.1,3.8,12c-2.5,4.6-6.4,10.5-11.7,12.3c0.4,0.7,0.8,1.4,1.2,2.1
				c0.8-0.9,4.8-2.2,6.4-2.8c2.5-1,5.7-2.6,8.5-2.4c1.1,0.1,1.3,1.1,2.4-0.2c0.9-1,0.9-3.7,1.1-5c0.5-2.8,0.9-5.5,1.6-8.3
				c0.5-2.3,1.1-6.7,3.1-8.3c3.7-2.9,7.1,6.2,7,8.9c-0.1,3.2-2,6.3-4.5,8.2c-0.8,0.6-0.3,1.9,0.6,2.1c8.2,2.1-7.9,9.9-9.8,11.7
				c-3.3,3.2,1.1,3.2,3.6,2.5c2.8-0.7,5.5-1.7,8.3-2.3c0.7-0.2,2.7-0.9,3.5-0.6c-0.3-0.1,0.2,0.4,0.3,1.5c1.2,9.1-1,16.2-11.2,17.8
				c-1.6,0.3-0.9,2.7,0.7,2.4c9.2-1.5,14.2-7.9,13.5-17.2c-0.1-1.6-0.1-5.3-1.5-6.5c-1.5-1.4-4.6-0.2-6.3,0.2
				c-1.7,0.4-3.3,0.9-5,1.4c-1.1,0.3-4,0.6-4.8,1.3c-0.8,0.7-0.6,1.3,0.6,1.3c0.5,0,1.6-1,1.9-1.2c2.9-1.7,6-3.3,8.4-5.6
				c3.5-3.3,3.6-7.9-1.6-9.2c0.2,0.7,0.4,1.4,0.6,2.1c6.7-5.2,6.9-15.5,0.1-20.8c-5.3-4.2-8.2,3-9.3,7.2c-1,3.7-1.6,7.5-2.2,11.2
				c-0.1,0.5-0.9,3-0.7,3.4c0.8,1.5,2.5-0.2,0.1-0.6c-3.3-0.5-7.1,1.4-10.1,2.6c-2,0.8-5.6,1.6-7,3.2c-0.8,0.9,0,2.5,1.2,2.1
				c6.4-2.1,12.6-10.1,14.6-16.3c1.7-5.2-1.7-10-6.1-12.5c0.1,0.7,0.2,1.3,0.3,2c4.8-3.9-6.2-4.8-7.4-4.9c0.4,0.5,0.8,1.1,1.2,1.6
				c1.4-5.7,2.5-13.9-3.6-17.3c-2.7-1.5-6.2-1.7-9.2-1C139.2,19.3,139.9,21.7,141.4,21.4L141.4,21.4z"/>
		</g>
	</g>
	<g>
		<g>
			<path d="M184.9,83.8c5.4-1.6,12.2-1.1,11.8,6.1c-0.3,5.6-3.4,10.6-9.4,8.9c-1.9-0.5-3.7-1.5-5.2-2.7c-1.2-0.9-2.5,1-1.5,2
				c1.2,1.2,2.7,2.6,3.4,4.2c1.4,3.5-0.9,4-3.6,4.6c-5.7,1.2-11.6,1.6-17.4,1.9c-4.5,0.2-8.7,0.1-13.2-0.8c-3.6-0.7-6.5,1.4-8.3,4.5
				c-0.4,0.7,0,1.6,0.7,1.8c1.4,0.4,4.5,1.3,4.2,2c-0.5,1.1-4.4,2.3-5.3,2.6c-8.5,3.1-17.8,1.8-26.4-0.5c-1.6-0.4-2.2,2-0.7,2.4
				c10.3,2.8,21.8,4,31.5-1.1c1.5-0.8,4.2-1.8,3.9-3.8c-0.3-2.4-4.8-3.4-6.6-4c0.2,0.6,0.5,1.2,0.7,1.8c1.8-3.2,4.1-3.2,7.5-2.8
				c2.1,0.3,4.3,0.4,6.4,0.4c6.4,0,12.9-0.5,19.3-1.4c3-0.4,9.1-0.6,10.3-4.2c1-3.4-2.6-7.3-4.8-9.4c-0.5,0.7-1,1.3-1.5,2
				c2.6,2,6.1,3.6,9.5,3.5c5.7-0.2,8.2-5.6,8.9-10.7c1.2-9.5-7.1-12-14.8-9.7C182.7,81.8,183.4,84.2,184.9,83.8L184.9,83.8z"/>
		</g>
	</g>
	<g>
		<g>
			<path d="M116.3,85.3c4.5-2,9.1-3.7,13.8-5.1c5.5-1.7,16.2-5.4,21.1-0.6c1.1,1.1,2.9-0.6,1.8-1.8c-5.1-5-14.5-2.5-20.5-0.9
				c-5.9,1.6-11.8,3.7-17.4,6.2C113.5,83.8,114.8,85.9,116.3,85.3L116.3,85.3z"/>
		</g>
	</g>
	<g>
		<g>
			<path d="M119.9,92.4c5.9,2.7,11.9,5,18,7.2c6.8,2.4,16.6,6.6,24,4.2c1.5-0.5,0.9-2.9-0.7-2.4c-7.1,2.3-17.1-2.2-23.7-4.6
				c-5.5-2-11-4.1-16.4-6.5C119.7,89.6,118.4,91.8,119.9,92.4L119.9,92.4z"/>
		</g>
	</g>
	<g>
		<g>
			<path d="M106.2,56.4C102,69.1,91.8,80.2,81.8,88.5c-1.2,1,0.5,2.8,1.8,1.8c10.4-8.6,20.8-20.1,25.1-33.2
				C109.1,55.5,106.7,54.9,106.2,56.4L106.2,56.4z"/>
		</g>
	</g>
	<g>
		<g>
			<path d="M68.5,80.1c3.1,0.5,5,5.8,5.8,8.4c0.5,1.5,2.9,0.9,2.4-0.7c-1.1-3.3-3.4-9.4-7.6-10.1C67.6,77.4,66.9,79.8,68.5,80.1
				L68.5,80.1z"/>
		</g>
	</g>
	<g>
		<g>
			<path d="M130.3,20.7c-2.3,12.4-6.5,25-13.2,35.7c-0.9,1.4,1.3,2.6,2.2,1.3c6.8-10.9,11.1-23.8,13.5-36.3
				C133,19.8,130.6,19.1,130.3,20.7L130.3,20.7z"/>
		</g>
	</g>
	<g>
		<g>
			<path d="M152.5,47.9c-5.6,8.9-14.6,16.1-23.2,21.9c-1.3,0.9-0.1,3.1,1.3,2.2c9-6,18.3-13.4,24.1-22.8
				C155.5,47.8,153.4,46.6,152.5,47.9L152.5,47.9z"/>
		</g>
	</g>
</g>
</svg>
