<?xml version="1.0" encoding="utf-8"?>
<!-- Generator: Adobe Illustrator 22.1.0, SVG Export Plug-In . SVG Version: 6.00 Build 0)  -->
<svg version="1.1" id="chicons" xmlns="http://www.w3.org/2000/svg" xmlns:xlink="http://www.w3.org/1999/xlink" x="0px" y="0px"
	 viewBox="0 0 200 200" style="enable-background:new 0 0 200 200;" xml:space="preserve">
<style type="text/css">
	.st0{fill:none;}
	.st1{fill:#FFFFFF;}
</style>
<g>
	<g>
		<g>
			<g>
				<g>
					<path d="M155.2,118.8c-21.2-3.5-33.6-8.3-52.4,3.1c-1.4,0.8-0.1,3,1.3,2.2c18.2-11,29.9-6.2,50.4-2.9
						C156.1,121.5,156.8,119.1,155.2,118.8L155.2,118.8z"/>
				</g>
			</g>
		</g>
		<g>
			<g>
				<path class="st0" d="M139.3,1.6c0,0-146,88.8-133.1,185.7C47.1,233,117.3,99,117.3,99S141.4,27.9,139.3,1.6z"/>
				<g>
					<path class="st0" d="M126.8,73.5c-0.6,1.9-1.1,3.8-1.7,5.7c-2.4,7.9-4.3,16.4-8.3,23.7c-15.1,27.4-32.7,55.3-55.6,76.7
						c-7.3,6.8-16.5,14.3-26.6,17.3c13.2,0.9,27.3-5.7,38.4-11.6c16.4-8.7,31.6-19.6,46.1-31.1c8.3-6.6,16.9-13.3,24.4-20.9
						c1.1-1.2,3.4-4.2,4.9-6.3c5.5-7.4,10.9-15,16.2-22.6c6.6-9.7,13.1-19.5,19-29.6c4.4-7.7,9-15.6,11.7-24.2
						c-8.5,2.6-17.4,4.5-26,7.2C154.9,62.3,140.7,67.5,126.8,73.5z"/>
					<path d="M195.9,48.4c-0.2,0.7-0.4,1.5-0.6,2.2c0.3-0.1,0.6-0.2,0.9-0.3c0.4-0.1,0.9-0.2,1.3-0.3c1-0.4,0.9-1.7,0.3-2.2
						C197.1,47.4,196.1,47.5,195.9,48.4z"/>
					<path d="M169.3,57.8c8.6-2.7,17.4-4.6,26-7.2c0.2-0.7,0.4-1.5,0.6-2.2c0.2-0.9,1.2-1,1.9-0.6c-0.3-0.2-0.6-0.4-1.1-0.3
						c-23.5,5.2-46.8,13.4-68.9,22.7c-0.3,1.1-0.6,2.2-1,3.2C140.7,67.5,154.9,62.3,169.3,57.8z"/>
					<path d="M197.8,47.8c0.7,0.6,0.7,1.9-0.3,2.2c-0.4,0.1-0.9,0.2-1.3,0.3c-0.3,0.1-0.6,0.2-0.9,0.3c-2.6,8.6-7.2,16.6-11.7,24.2
						c-5.9,10.1-12.4,19.9-19,29.6c-5.3,7.6-10.7,15.2-16.2,22.6c-1.5,2.1-3.8,5.1-4.9,6.3c-7.5,7.6-16.1,14.3-24.4,20.9
						c-14.5,11.5-29.7,22.4-46.1,31.1c-11,5.8-25.2,12.5-38.4,11.6c-2.4,0.7-4.9,1.2-7.4,1.3c9.8,2.8,21.2,0.2,30.5-3.2
						c17.8-6.5,34-17.2,49.2-28.3c12-8.8,23.5-18.2,34.6-28.1c6.1-5.5,10.5-12.2,15.3-18.8c13.5-18.7,27.4-38,37.1-59
						c1.7-3.8,3.3-7.6,4.4-11.6C198.5,48.5,198.2,48,197.8,47.8z"/>
					<path d="M116.8,102.9c4-7.3,5.9-15.8,8.3-23.7c0.6-1.9,1.2-3.8,1.7-5.7c-1,0.5-2.1,0.9-3.1,1.4c-1.4,4.6-2.8,9.3-4.3,13.9
						c-0.8,2.6-1.7,5.2-2.5,7.8c-0.2,0.5-0.8,2.2-0.6,1.9c-3.6,8-8.8,15.7-13.4,23.1c-9.2,14.8-19.1,29.2-30.5,42.5
						c-10.2,11.8-22.5,25-37.8,29.9c-2.5,0.8-5.1,1.3-7.7,1.4c0.2,0.1,0.3,0.1,0.5,0.2c2.3,0.8,4.8,1.2,7.2,1.4
						c10.1-2.9,19.3-10.4,26.6-17.3C84.1,158.2,101.7,130.3,116.8,102.9z"/>
					<path d="M16,193.2c-2.8-1.4-7-3.8-8.4-6.7c-0.9-1.9-0.6-5.4-0.7-7.6c-0.1-2.7-0.1-5.5,0-8.2c2-44.5,32.7-83.2,63.2-113
						c20.8-20.3,44-37.7,68.2-54c0-0.7-0.1-1.4-0.1-2.1c0-0.4,0.1-0.7,0.3-0.9c-22.2,13.6-43.2,30.2-62.3,47.9
						C44.2,78,11.9,115.7,5.3,160.2c-0.8,5.3-1.2,10.7-1.1,16.1c0.1,4.1-0.6,9.9,2.3,13.1c4.3,4.7,10.4,7.9,16.7,8.6
						c1.3,0.1,2.7,0.2,4,0.1c-2.7-0.8-5.2-1.9-7.6-3.6C18.4,194.2,17.2,193.8,16,193.2z"/>
					<path d="M138.3,3.7c0.1-0.1,0.2-0.1,0.3-0.2c0.4-0.3,0.9-0.5,1.3-0.8c1.1-0.6,0.5-2.1-0.4-2.3c-0.2,0-0.4,0-0.6,0.1
						c-0.1,0-0.2,0.1-0.2,0.1c-0.1,0-0.1,0.1-0.2,0.1c-0.2,0.2-0.4,0.5-0.3,0.9C138.3,2.3,138.3,3,138.3,3.7z"/>
					<path d="M138.9,0.5c-0.2,0.1-0.3,0.1-0.4,0.2c0.1,0,0.1-0.1,0.2-0.1C138.8,0.5,138.9,0.5,138.9,0.5z"/>
					<path d="M139.9,2.7c-0.4,0.3-0.9,0.5-1.3,0.8c-0.1,0.1-0.2,0.1-0.3,0.2c0.3,8.6-1.3,17.4-3,25.8c-2.2,10.9-4.9,21.8-7.9,32.5
						c-0.9,3.2-1.8,6.4-2.7,9.6c1-0.4,2-0.8,2.9-1.3c0.1,0,0.1-0.1,0.2-0.1c5.4-18.3,10.4-37,12.5-56c0.5-4.2,0.7-8.4,0.4-12.6
						c0-0.7-0.6-1.1-1.2-1.2C140.4,0.6,141,2.1,139.9,2.7z"/>
					<path d="M139.5,0.4c-0.2,0-0.4,0-0.6,0.1C139.1,0.4,139.3,0.4,139.5,0.4z"/>
					<path d="M27.4,195.5c-0.2-0.1-0.3-0.1-0.5-0.2c-2.5,0.1-4.9-0.1-7.3-0.8c2.4,1.7,4.9,2.8,7.6,3.6c2.5-0.1,5-0.6,7.4-1.3
						C32.2,196.7,29.7,196.3,27.4,195.5z"/>
					<path d="M124.7,71.6c-0.3,1.1-0.6,2.2-1,3.3c1-0.5,2.1-0.9,3.1-1.4c0.3-1.1,0.6-2.2,1-3.2c-0.1,0-0.1,0.1-0.2,0.1
						C126.6,70.7,125.6,71.1,124.7,71.6z"/>
				</g>
			</g>
			<g>
				<path class="st1" d="M70.3,55.8c0,0,9,56.3-46.9,140.8"/>
				<g>
					<path d="M69,56.2c1.1,6.9,0.5,16.1-0.3,23.6c-2.4,22.7-9.4,45-18.6,65.8c-7.8,17.6-17.3,34.4-27.9,50.5
						c-0.9,1.3,1.3,2.6,2.2,1.3C50,158.6,72.9,111.3,72,63.6c0-2.7-0.1-5.5-0.6-8.1C71.2,53.9,68.8,54.6,69,56.2L69,56.2z"/>
				</g>
			</g>
			<g>
				<path class="st1" d="M122.5,82.8c0,0-41.1,6.9-58.7,28.6"/>
				<g>
					<path d="M122.2,81.6c-21,3.6-45.3,12.1-59.3,28.9c-1,1.2,0.7,3,1.8,1.8c13.7-16.4,37.5-24.8,58.2-28.2
						C124.4,83.7,123.8,81.3,122.2,81.6L122.2,81.6z"/>
				</g>
			</g>
		</g>
	</g>
	<g>
		<g>
			<path d="M113,95.8c-14.6,1-33.6,5-42.6,17.5c-0.9,1.3,1.2,2.6,2.2,1.3C81,102.9,99.4,99.3,113,98.3
				C114.6,98.2,114.6,95.7,113,95.8L113,95.8z"/>
		</g>
	</g>
	<g>
		<g>
			<path d="M59.5,76.4c1.4,10.1,0.3,21.8-3.7,31.5c-0.6,1.5,1.8,2.1,2.4,0.7c4.2-10.2,5.3-22,3.7-32.8
				C61.7,74.1,59.3,74.8,59.5,76.4L59.5,76.4z"/>
		</g>
	</g>
	<g>
		<g>
			<path d="M146.8,123c-8.2,0-16.5,0.3-24.6,0.9c-5.4,0.4-10.9,1-16.2,2.1c-3,0.7-6.7,1.5-8.7,4.1c-1,1.3,1.2,2.5,2.2,1.3
				c2-2.6,7.7-3.1,10.7-3.6c5.4-0.9,10.8-1.3,16.2-1.7c6.8-0.4,13.7-0.7,20.5-0.7C148.5,125.5,148.5,123,146.8,123L146.8,123z"/>
		</g>
	</g>
</g>
</svg>
