<?xml version="1.0" encoding="utf-8"?>
<!-- Generator: Adobe Illustrator 22.1.0, SVG Export Plug-In . SVG Version: 6.00 Build 0)  -->
<svg version="1.1" id="choux_de_bruxelles" xmlns="http://www.w3.org/2000/svg" xmlns:xlink="http://www.w3.org/1999/xlink" x="0px"
	 y="0px" viewBox="0 0 197.8 187.7" style="enable-background:new 0 0 197.8 187.7;" xml:space="preserve">
<style type="text/css">
	.st0{fill:#FFFFFF;}
</style>
<title>Choux de bruxelles</title>
<path d="M54.4,79.8c-1-10.5-1.6-9.9-4.8-19.9c-1.9-5.7-4.3-11.9-8.7-16.1c-3.4-3.3-8.1-5.6-8.5-11c-0.1-2.4,0.6-4.7,2.1-6.5
	c1-1.2-0.7-3-1.8-1.8c-2.8,3.3-3.6,7.8-2.1,11.8c1.6,4.3,5.3,6.2,8.4,9.2c2.7,2.7,4.6,6.2,6.1,9.7c4.8,11,5.7,12.8,6.9,24.7
	C52.2,81.5,54.6,81.4,54.4,79.8L54.4,79.8z"/>
<path d="M77.1,87.3C82,78,86.5,68.4,90.4,58.6c3.2-7.5,5.7-15.2,7.6-23.1c1.2-5.2,2.3-11.3,0.3-16.4l-0.9,1.5
	c3.3-1.1,7.7-2.3,10.4-4.8c1.2-1.1-0.6-2.9-1.8-1.8c-2.3,2.2-6.4,3.2-9.3,4.1c-0.7,0.2-1.1,0.9-0.9,1.5c2.2,5.4,0.6,12-0.8,17.5
	c-2,7.4-4.5,14.7-7.5,21.7c-3.8,9.2-8,18.3-12.7,27.1C74.1,87.4,76.3,88.7,77.1,87.3L77.1,87.3z"/>
<path d="M65.3,82.1c3.3-17.7,5.2-39.1-2-56c-0.6-1.5-2.8-0.2-2.2,1.3c6.9,16.2,4.8,37.2,1.7,54.1C62.6,83,65,83.7,65.3,82.1
	L65.3,82.1z"/>
<path d="M66.6,54.7c8.5-0.7,18.1-4.8,20.8-13.5c0.5-1.5-1.9-2.2-2.4-0.7c-2.3,7.6-11.1,11.1-18.4,11.7C65,52.3,65,54.8,66.6,54.7z"
	/>
<path d="M65.3,70.2c-5.2,2.2-8.2-4.1-9.2-8.1c-0.2-0.7-0.9-1-1.6-0.8c-0.6,0.2-1,0.8-0.8,1.5c1.3,5.3,5.7,12.6,12.3,9.8
	C67.4,72,66.7,69.6,65.3,70.2z"/>
<path d="M85.1,94.6C91.3,80.5,99,65.5,110,54.7c1.2-1.1-0.6-2.9-1.8-1.8c-11.2,11-19,26.2-25.3,40.4C82.3,94.8,84.4,96.1,85.1,94.6z
	"/>
<path d="M93.8,74c1.6,1.7,3.6,2.9,5.8,3.5c4,1,7.2-1.2,9.3-4.4c0.9-1.3-1.3-2.6-2.2-1.3c-3,4.6-7.7,4-11.2,0.4
	C94.5,71.1,92.7,72.9,93.8,74z"/>
<path d="M103.5,59.8c0.4,0.3-0.5-0.4-0.6-0.6c-0.6-0.6-1-1.4-1.4-2.2c-1.5-3.2-0.8-6.7,0.4-9.9c0.6-1.5-1.8-2.2-2.4-0.7
	c-2,5.1-2.1,11.9,2.8,15.5C103.6,62.9,104.8,60.7,103.5,59.8L103.5,59.8z"/>
<path d="M33.2,79.3C40.6,77,42.7,68.9,42,62c-0.2-1.6-2.7-1.6-2.5,0c0.6,5.7-0.6,13-7,15C30.9,77.5,31.6,79.9,33.2,79.3L33.2,79.3z"
	/>
<path d="M138.1,162.6c-10.6-7.9-22.7-14.5-30.1-25c-7.1-10.2-10.5-22.8-8.2-35.1c3.2-16.9,15.5-35.1,32.5-40.4
	c16.6-5.2,35.8,2,49,12.5c5.8,4.6,10.1,10.8,12.4,17.9c2.1,6.9,2.1,14.2,0.2,21.1c-1.2,4.4-3,8.7-5.2,12.8
	c-2.1,3.9-2.9,8.2-4.3,12.5c-1.5,4.7-3,10.7-6.1,14.6c-0.7,0.9,0.4,0-1.1,0.7l-5.9,2.7c-6.4,2.8-12.7,5.6-19.3,7.9
	c-2.1,0.8-4.8,2.1-7.1,2.3c-2.7,0.2-4.7-2.4-6.6-4.1c-1.2-1.1-2.9,0.7-1.8,1.8c3.2,3.1,5.5,5.7,10,4.5c6.3-1.6,12.3-4.3,18.3-6.8
	c5.6-2.4,13.8-3.9,16.9-9.7c3.4-6.4,5.1-13.4,7.3-20.2c1.6-5.1,4.6-9.6,6.4-14.7c1.4-3.9,2.2-8,2.5-12.1c0.6-11-3.4-21.7-11.1-29.6
	c-10.2-10.6-28.2-18.4-43.7-18.1c-32.4,0.6-54.3,40.6-43.3,69.4c6.9,17.9,22.4,26.5,37.1,37.4C138.1,165.7,139.3,163.5,138.1,162.6z
	"/>
<path class="st0" d="M143.1,152.8c0,0-18.3-34.4-33.2-37.7s-11-14.8-11-14.8"/>
<path d="M144.2,152.1c-5.4-10.1-11.9-20.1-19.8-28.5c-4.4-4.9-10-8.5-16.3-10.3c-5.5-1.8-9.9-6.6-7.9-12.7c0.5-1.5-1.9-2.2-2.4-0.7
	c-1.2,3.7-0.4,7.8,2,10.9c2.1,2.6,5.2,4.1,8.4,5c3.9,1.1,7.6,3,10.7,5.7c9.7,8.5,17.2,20.4,23.3,31.8
	C142.8,154.8,145,153.5,144.2,152.1L144.2,152.1z"/>
<path class="st0" d="M161.4,140.9c0,0,5.9-58.6-5.9-70.2c6.4-5.4,7.4-7.8,7.4-7.8"/>
<path d="M162.6,140.9c1.1-10.7,1.6-21.5,1.5-32.3c0.1-7.8-0.5-15.6-1.7-23.2c-0.9-5.3-2.2-11.4-6.1-15.5v1.8
	c2.5-2.2,6.1-4.9,7.6-8.1c0.7-1.4-1.5-2.7-2.2-1.3c-1.4,3-4.8,5.5-7.2,7.6c-0.5,0.5-0.5,1.3,0,1.8c4.2,4.4,5.1,11.7,5.9,17.4
	c0.9,7.6,1.3,15.2,1.1,22.8c-0.1,9.7-0.5,19.5-1.5,29.1C160,142.5,162.5,142.5,162.6,140.9L162.6,140.9z"/>
<path class="st0" d="M148.5,140.9c0,0-7.4-35.8-22.5-50.3"/>
<path d="M149.8,140.6c-3.6-17.4-9.9-38-22.8-50.8c-1.2-1.1-2.9,0.6-1.8,1.8c12.7,12.5,18.6,32.7,22.2,49.7
	C147.7,142.8,150.1,142.1,149.8,140.6L149.8,140.6z"/>
<path class="st0" d="M140.2,113.8c0,0,14.8-7.5,13.4-19.1"/>
<path d="M140.8,114.8c7.4-3.8,14.8-11.2,14-20.2c-0.1-1.6-2.6-1.6-2.5,0c0.7,8.1-6.1,14.6-12.8,18
	C138.1,113.4,139.4,115.6,140.8,114.8z"/>
<path class="st0" d="M146,130.7c0,0-6,6.1-13.3-4.2"/>
<path d="M145.1,129.8c-3.9,3.9-9-0.8-11.3-4c-0.9-1.3-3.1,0-2.2,1.3c3.4,4.5,10.1,9.6,15.3,4.5C148,130.4,146.2,128.7,145.1,129.8
	L145.1,129.8z"/>
<path class="st0" d="M171.5,144.7c0,0,0.7-30.3,8.1-46.7"/>
<path d="M172.8,144.7c0.4-15.3,1.8-32,7.9-46.1c0.6-1.5-1.5-2.7-2.2-1.3c-6.3,14.5-7.8,31.6-8.2,47.3c0,0.7,0.6,1.3,1.3,1.3
	S172.8,145.4,172.8,144.7z"/>
<path class="st0" d="M173.6,121.3c0,0,10.3,4.6,11.9-5.6"/>
<path d="M173,122.4c2,0.9,4.3,1.3,6.5,1.2c4.2-0.4,6.5-3.6,7.2-7.5c0.3-1.6-2.1-2.2-2.4-0.7c-0.6,3.3-2.3,5.7-5.9,5.7
	c-1,0-2-0.2-3-0.5c-0.3-0.1-0.7-0.2-1-0.3c-0.2-0.1-0.5-0.2-0.2-0.1C172.8,119.6,171.5,121.8,173,122.4L173,122.4z"/>
<path class="st0" d="M176.5,106.9c0,0-7.4-1.8-7.4-12.2"/>
<path d="M176.9,105.7c-4.7-1.2-6.4-6.8-6.4-11c0-0.7-0.6-1.3-1.3-1.3s-1.3,0.6-1.3,1.3c0.1,5.4,2.4,11.9,8.3,13.4
	c0.7,0.2,1.3-0.3,1.5-0.9C177.9,106.5,177.5,105.9,176.9,105.7L176.9,105.7z"/>
<path class="st0" d="M118.2,149.4c2.6-2.1,6.6-8.2,1.2-17.9"/>
<path d="M119.1,150.2c6-5,4.6-13.3,1.4-19.4c-0.8-1.4-2.9-0.2-2.2,1.3c2.8,5.2,4.1,12.2-1,16.4C116.1,149.5,117.8,151.3,119.1,150.2
	L119.1,150.2z"/>
<g>
	<path d="M37.7,83.8l-4.9-8.2c-2.3-3.7-4-7.9-5-12.2c-2.6-11.3-1.4-23.4,4.4-33.5C40.3,15.7,57.1,3.5,73.7,2.6
		c19.4-1.1,36.2,13.7,45.5,29.6c3.1,5.2,4.8,11.2,5.1,17.2c0.3,5.9-1,11.9-3.6,17.2c1.2-0.9,2.4-1.7,3.7-2.4
		c0.2-0.4,0.3-0.8,0.4-1.2c3.3-9.9,2.4-20.8-2.3-30.1c-7.3-14.2-21.3-27.7-37-31.7C56.1-6.3,24.4,22,24,51.3
		c-0.2,12.9,4.9,23.3,11.1,33.6C36,84.5,36.9,84.1,37.7,83.8z"/>
	<path d="M91.9,103.7c3.3-3,6.1-6.4,8.9-9.7c1.1-3,2.6-6.1,4.4-9.3c-0.2,0.2-0.5,0.4-0.7,0.7c-2,2.1-3.5,4.7-5.4,6.9
		c-2.8,3.4-5.8,7.2-9.2,10.2c0.5,0.6,1,1.3,1.5,1.9C91.5,104.1,91.7,103.9,91.9,103.7z"/>
</g>
<path d="M22.3,177.9L8.8,155.5c-2.3-3.7-4-7.9-5-12.1c-2.6-11.4-1.4-23.5,4.4-33.6c8.1-14.2,24.9-26.4,41.5-27.3
	c19.4-1.1,36.2,13.7,45.5,29.6c3.1,5.2,4.8,11.2,5.1,17.2c0.3,7-1.5,14-5.1,20c-2.4,3.9-5.3,7.5-8.6,10.7c-1.9,1.8-4.3,3.3-6.1,5.2
	c-2,2.1-3.5,4.7-5.4,6.9c-3.5,4.3-7.3,9.2-12,12.3c-1.3,0.9,0.4,0.2-0.8,0.4c-2.1,0.2-4.1,0.3-6.2,0.2c-7,0.2-14,0.4-21,0.1
	c-2.5-0.1-6.3,0.3-8.7-0.7C24.3,183.4,23.3,180,22.3,177.9c-0.6-1.5-2.8-0.2-2.1,1.2c2,4.4,3,7.3,7.9,7.9c6.7,0.8,13.5,0.6,20.2,0.5
	c4.5-0.1,10.2,0.7,14.6-0.4c2-0.5,3.5-2.2,5-3.6c6.8-6.3,11.7-14.1,18.6-20.2c6.3-5.6,11.6-12.5,14.3-20.5
	c3.3-9.9,2.4-20.8-2.3-30.1C91.2,98.4,77.2,85,61.6,81C32.1,73.5,0.4,101.7,0,131c-0.3,18.9,10.8,32.6,20.1,48
	c0.5,0.5,1.2,0.6,1.8,0.1C22.3,178.9,22.4,178.4,22.3,177.9z"/>
<path class="st0" d="M30.6,170.6c0,0-3.9-38.7-16.5-47.4s-4.6-17.8-4.6-17.8"/>
<path d="M31.9,170.6c-1-10.5-3.1-20.8-6.3-30.8c-1.9-5.7-4.3-11.9-8.7-16.1c-3.4-3.3-8.1-5.6-8.5-11c-0.1-2.4,0.6-4.7,2.1-6.5
	c1-1.2-0.7-3-1.8-1.8c-2.8,3.3-3.6,7.8-2.1,11.8c1.6,4.3,5.3,6.2,8.4,9.2c2.7,2.7,4.6,6.2,6.1,9.7c4.8,11,7.1,23.5,8.3,35.4
	C29.6,172.1,32.1,172.2,31.9,170.6L31.9,170.6z"/>
<path class="st0" d="M52,166.5c0,0,27.6-52,21-67.2c8-2.6,9.8-4.5,9.8-4.5"/>
<path d="M53.1,167.1c4.9-9.3,9.4-18.9,13.3-28.7c3.2-7.5,5.7-15.2,7.6-23.1c1.2-5.2,2.3-11.3,0.3-16.4l-0.9,1.5
	c3.3-1.1,7.7-2.3,10.4-4.8c1.2-1.1-0.6-2.9-1.8-1.8C79.7,96,75.6,97,72.7,98c-0.7,0.2-1.1,0.9-0.9,1.5l0,0c2.2,5.4,0.6,12-0.8,17.5
	c-2,7.4-4.5,14.7-7.4,21.7c-3.8,9.2-8,18.3-12.7,27.1C50.2,167.3,52.3,168.5,53.1,167.1L53.1,167.1z"/>
<path class="st0" d="M40.2,161.6c0,0,6.7-36-1.9-55.1"/>
<path d="M41.4,162c3.3-17.7,5.2-39.1-2-56c-0.6-1.5-2.8-0.2-2.2,1.3c6.9,16.2,4.8,37.2,1.7,54.1C38.6,162.9,41,163.6,41.4,162
	L41.4,162z"/>
<path class="st0" d="M42.6,133.3c0,0,16.5-1.3,19.6-12.6"/>
<path d="M42.6,134.6c8.5-0.7,18.1-4.8,20.8-13.5c0.5-1.5-1.9-2.2-2.4-0.7c-2.3,7.6-11.1,11.1-18.4,11.7
	C41,132.2,41,134.7,42.6,134.6z"/>
<path class="st0" d="M41.6,151.3c0,0-7.8,3.4-10.7-8.9"/>
<path d="M41.3,150.1c-5.2,2.2-8.2-4-9.2-8c-0.2-0.7-0.9-1-1.6-0.8c-0.6,0.2-1,0.8-0.8,1.5c1.3,5.3,5.7,12.6,12.3,9.8
	C43.4,151.9,42.8,149.5,41.3,150.1L41.3,150.1z"/>
<path class="st0" d="M60,173.8c0,0,12.1-27.8,25.1-40.2"/>
<path d="M61.1,174.5c6.2-14.1,13.9-29.1,24.9-39.9c1.2-1.1-0.6-2.9-1.8-1.8c-11.2,11-19.1,26.2-25.3,40.4
	C58.3,174.7,60.4,175.9,61.1,174.5L61.1,174.5z"/>
<path class="st0" d="M70.8,153c0,0,7.8,8.2,13.1-0.6"/>
<path d="M69.9,153.9c1.6,1.7,3.6,2.9,5.8,3.5c4,1,7.2-1.1,9.3-4.4c0.9-1.4-1.3-2.6-2.2-1.3c-3,4.6-7.7,4-11.2,0.4
	C70.5,151,68.7,152.8,69.9,153.9z"/>
<path class="st0" d="M78.9,140.7c0,0-6.1-4.4-2.2-14.1"/>
<path d="M79.5,139.6c0.4,0.3-0.5-0.4-0.6-0.6c-0.6-0.6-1-1.4-1.4-2.1c-1.5-3.2-0.8-6.7,0.4-9.9c0.6-1.5-1.8-2.2-2.4-0.7
	c-2,5.1-2.1,11.9,2.8,15.5C79.6,142.8,80.8,140.6,79.5,139.6L79.5,139.6z"/>
<path class="st0" d="M8.9,158c3.2-0.9,9.2-5.1,7.9-16.2"/>
<path d="M9.2,159.2c7.4-2.3,9.5-10.4,8.8-17.4c-0.2-1.6-2.7-1.6-2.5,0c0.6,5.7-0.6,13-7,15C6.9,157.3,7.6,159.7,9.2,159.2L9.2,159.2
	z"/>
</svg>
