<?xml version="1.0" encoding="utf-8"?>
<!-- Generator: Adobe Illustrator 22.1.0, SVG Export Plug-In . SVG Version: 6.00 Build 0)  -->
<svg version="1.1" id="chou-fleur" xmlns="http://www.w3.org/2000/svg" xmlns:xlink="http://www.w3.org/1999/xlink" x="0px" y="0px"
	 viewBox="0 0 200 200" style="enable-background:new 0 0 200 200;" xml:space="preserve">
<g>
	<g>
		<g>
			<path d="M123.9,103.8c0.3-11.6,12.2-19.5,21.2-24.6c3.5-2,7.1-3.7,10.8-5.3c1.3-0.5,2.1-0.8,3.1-1.7c2-1.9,3.5-4.6,5.2-6.6
				c3-3.5,6.1-6.9,9.5-9.9c3.1-2.8,6.9-6,11.2-6.9c4.4-0.9,5.8,2,8.6,4.3c4.1,3.4,3.5,9.7,3.1,14.8c-0.7,9.8-2.9,19.6-5.4,29.1
				c-5.8,21.9-13.7,44.4-26,63.6c-11.4,17.7-32.8,32.4-54.6,28.3c-1.4-0.3-1.8-0.3-3.2,0c-4.9,1-9.8,1.6-14.8,1.4
				c-15.8-0.5-29.4-7-40.2-18.3c-16.2-16.8-26.2-39.2-33.5-61.1C12.6,92.2,8.2,72.9,5.1,53.5c-0.7-4.6-0.6-10.1-2-14.5
				c-0.9-2.8,0.2,0.7-1.1-0.3c0.6,0.4,3.8-0.3,4.6-0.3c17.3-0.5,35,6.1,44.2,21.5c3.3,5.6,5.3,11.9,6.5,18.3
				c0.1,0.4,0.5,0.8,0.9,0.9c25.6,6.1,35.2,37.5,36.2,60.8c0.1,1.6,2.6,1.6,2.5,0c-0.8-18.9-6.8-41.4-21.2-54.5
				c-2.1-1.9-4.3-3.5-6.7-4.9c-2.4-1.4-8-2.4-9.5-4.4c-0.9-1.3-1.2-4.9-1.7-6.4c-0.5-1.7-1.1-3.3-1.8-4.9c-1.4-3.4-3.2-6.7-5.4-9.6
				c-6.9-9.5-17.4-15.4-28.8-17.8c-6.6-1.4-13.8-1.9-20.5-1c-0.5,0.1-1,0.7-0.9,1.2c2.7,28.1,9.3,56.7,19.2,83.1
				c7.2,19.1,16.6,38.3,30.9,53.1c8.7,9,18.9,15.3,31.4,17.8c5.9,1.2,11.9,1.5,17.9,1c3.1-0.3,6.3-1.4,9.4-1.6c0.5,0-1,0,0.2,0.1
				c0.9,0.1,1.8,0.5,2.7,0.6c3.2,0.6,6.4,0.6,9.6,0.3c12.3-1.2,23.6-7.6,32.9-15.3c14-11.6,21.9-30.4,28.4-46.9
				c7.3-18.6,13.5-38.3,15.6-58.3c0.6-5.3,1.4-12.1-0.9-17.2c-0.8-1.7-1.7-2.2-3-3.3c-1.6-1.4-3-3.6-5.4-4.5
				c-6.3-2.2-13.2,3.6-17.5,7.4c-5.2,4.6-10.7,10.2-14.5,16.1c-0.2,0.4-0.5,0.9-0.9,1.2c1.2-1.2,0-0.2-0.8,0c-3,1-5.9,2.6-8.7,4
				c-8.2,4.2-16.7,9.6-22,17.3c-2.3,3.4-3.7,7.1-3.8,11.2C121.3,105.4,123.8,105.4,123.9,103.8L123.9,103.8z"/>
		</g>
	</g>
	<g>
		<g>
			<path d="M43.4,48.3c2.4-8.6,6.4-17.2,11.7-24.4c4.2-5.6,9.6-10.8,16.6-12.7c9.2-2.5,18.1,1.8,25.5,7.1c0.4,0.3,0.9,0.2,1.3,0
				c10.7-6.3,23.2-8.6,33.4-0.2c3.8,3.1,7.1,7.3,9,11.8c0.6,1.5,2.8,0.2,2.2-1.3c-2.5-5.6-6.9-10.8-11.9-14.2
				c-4.2-2.9-9.2-4.5-14.4-4.5c-3,0-5.9,0.5-8.8,1.3c-3.3,1-8,4.6-11.1,3.7c-2.6-0.7-5.4-3.4-8-4.5C86,9.3,83,8.5,80,8.1
				c-4.6-0.5-9.2,0.3-13.3,2.3c-8.3,4-14.2,11.9-18.5,19.8c-3,5.5-5.5,11.4-7.2,17.4C40.6,49.2,43,49.9,43.4,48.3L43.4,48.3z"/>
		</g>
	</g>
	<g>
		<g>
			<path d="M147.4,34.9c11.5,0.7,23.1,7.3,25.4,19.2c0.3,1.6,2.7,0.9,2.4-0.7c-2.5-13.1-15.2-20.3-27.8-21
				C145.7,32.3,145.8,34.8,147.4,34.9L147.4,34.9z"/>
		</g>
	</g>
	<g>
		<g>
			<path d="M119.7,191.8c20.7-22.5,39.9-48.9,51.5-77.3c4-9.9,7-20.5,7-31.3c0-1.6-2.5-1.6-2.5,0c0,25.4-15.2,50-29.1,70.3
				c-8.7,12.8-18.2,25.2-28.7,36.6C116.8,191.2,118.6,193,119.7,191.8L119.7,191.8z"/>
		</g>
	</g>
	<g>
		<g>
			<path d="M161.6,133.7c3.2-5.9,6.5-11.6,10-17.3c2.6-4.2,5.2-8.4,8.1-12.4c1.4-1.9,4.1-6.7,6.9-7.1c1.6-0.2,0.9-2.6-0.7-2.4
				c-2.6,0.4-4.7,3.5-6.1,5.3c-3.2,4-6,8.4-8.7,12.8c-4.1,6.5-7.9,13.2-11.6,20C158.7,133.8,160.9,135.1,161.6,133.7L161.6,133.7z"
				/>
		</g>
	</g>
	<g>
		<g>
			<path d="M151.8,148.7c-5.8-10.6-8.6-24.2-4.9-35.9c0.5-1.5-1.9-2.2-2.4-0.7c-3.9,12.4-1,26.6,5.2,37.8
				C150.4,151.4,152.6,150.2,151.8,148.7L151.8,148.7z"/>
		</g>
	</g>
	<g>
		<g>
			<path d="M87.7,190.2c-8.3-8.7-15.4-18.7-21.8-28.8c-13.5-21.4-23.4-45.5-25.3-70.9c-0.1-1.6-2.6-1.6-2.5,0
				c1.9,25.5,11.6,49.6,25,71.1c6.6,10.7,14.1,21.3,22.8,30.4C87.1,193.1,88.8,191.3,87.7,190.2L87.7,190.2z"/>
		</g>
	</g>
	<g>
		<g>
			<path d="M51.1,133.2c1.4-4.2,3-8.3,4.7-12.4c2.2-5.1,5.1-14.1,10.4-16.8c1.4-0.7,0.2-2.9-1.3-2.2c-5.4,2.8-8.3,10.8-10.6,16
				c-2.1,4.8-4,9.7-5.6,14.7C48.2,134.1,50.6,134.8,51.1,133.2L51.1,133.2z"/>
		</g>
	</g>
	<g>
		<g>
			<path d="M67.6,165.4c-6.1-1.4-11.7-5.7-15.1-10.8c-0.9-1.3-3.1-0.1-2.2,1.3c3.8,5.7,9.8,10.5,16.6,12
				C68.5,168.2,69.2,165.8,67.6,165.4L67.6,165.4z"/>
		</g>
	</g>
</g>
</svg>
