<?xml version="1.0" encoding="utf-8"?>
<!-- Generator: Adobe Illustrator 22.1.0, SVG Export Plug-In . SVG Version: 6.00 Build 0)  -->
<svg version="1.1" id="concombre" xmlns="http://www.w3.org/2000/svg" xmlns:xlink="http://www.w3.org/1999/xlink" x="0px" y="0px"
	 viewBox="0 0 200 200" style="enable-background:new 0 0 200 200;" xml:space="preserve">
<g>
	<g>
		<g>
			<g>
				<path d="M185.9,4.5c-7.2-3.4-16.4-3.3-24-2.3c-23.6,3-44.6,17.5-61.7,33.2c-24.7,22.7-48.4,48-68,75.3
					c-12.6,17.5-27.6,40-26.2,62.7c0.5,7.9,2.9,19,11,22.6c5.6,2.5,11.9,0.2,16.8-2.8c5.7-3.4,8.3-7.9,12.1-13.3
					c21.7-30.7,44-61.1,68.1-89.9c10.9-13.1,22.2-26.7,35.6-37.4c8.8-7,18.9-12.1,27.4-19.6c5.3-4.7,11-10.7,11.6-18.1
					c0.3-3.4-0.6-6.6-1.9-9.7c-0.6-1.5-3-0.8-2.4,0.7c8,19.9-18.6,32.8-31.8,41.6c-11.6,7.7-21.1,18.8-30.3,29.2
					c-24.5,27.8-46.7,57.8-68.3,87.9c-5.4,7.4-10.2,15.7-16.1,22.7c-5.1,6.1-18.6,11.2-24.6,2.1c-12.3-18.6,0.7-44.6,10.5-61
					C39.2,102.1,60.3,79,81.6,57.2c19.6-20,40.5-41.1,67.9-49.7c10.7-3.4,22.9-4.9,33.8-1.3c0.5,0.2,1.1,0.4,1.3,0.5
					C186,7.4,187.3,5.2,185.9,4.5z"/>
			</g>
		</g>
		<g>
			<g>
				<path d="M185.2,6.9c1.1-0.1,2.2-0.2,3.3-0.2c0.8,0,1.7-0.1,2.6-0.1c0.3,0,0.7,0.1,1.1,0c0.2,0,0.7,0.2,0.1-0.1
					c0,0,0.1,0,0.1,0.3c0,0.4-0.2,0.8-0.4,1.2c-1.1,1.9-3.5,3-5.4,3.9c-1.5,0.7-0.2,2.8,1.3,2.2c2.5-1.2,9-4.9,6.6-8.8
					c-0.8-1.3-2.7-1.1-4.1-1.1c-1.7,0-3.4,0.1-5.1,0.3C183.6,4.5,183.6,7,185.2,6.9L185.2,6.9z"/>
			</g>
		</g>
	</g>
	<g>
		<g>
			<path d="M18.7,176c2.4-2.9,4.4-6.2,5.7-9.7c0.9-2.3,1.6-4.9,1.4-7.4c-0.2-2.4-1.4-3.7-2.4-5.7c-2.5-5.2,1.9-11.9,4.9-16
				c1.7-2.3,3.6-4.6,6-6.2c1.7-1.2,2.6-1,4.3-1.2c7.3-0.8,13.9-9.9,18-15.2c4.7-6,11.9-15.7,8.7-23.8c-3.6-9,11.9-16.8,18.2-20.4
				c4.8-2.8,8.4-4.7,12.5-8.5c6.5-6,15.4-13.4,18.5-22c1-2.8-0.7-5.3,1.6-7.3c3.3-3,8.3-4.7,12.4-6.3c7.7-3,15.7-5.8,23.8-7.5
				c5.3-1.2,21.6-2.5,21.7-10.1c0-1.6-2.5-1.6-2.5,0c-0.1,4-10.6,5.8-13.4,6.4c-2.3,0.5-4.7,0.9-7,1.4c-7.9,1.8-15.7,4.5-23.2,7.4
				c-4.5,1.7-15.9,5-15.7,11.3c0,1.5,0.6,2.2,0,3.8c-0.7,2.2-2.3,4.3-3.7,6.1c-3.4,4.5-7.4,8.5-11.5,12.4c-4.6,4.5-7.6,6.8-12.7,9.6
				c-7.4,4-17.4,9.3-21.4,17.1c-1.8,3.6-0.5,5.3,0.5,8.7c1.3,4.5-2,9.9-4.2,13.5c-3,4.9-6.6,9.5-10.6,13.6c-2.4,2.5-6.1,6.9-9.8,7.4
				c-1.3,0.2-2.2-0.3-3.6,0.2c-1.9,0.7-3.6,2.3-5.1,3.7c-3.9,3.8-7.3,8.7-9.1,13.9c-0.7,2-1.2,4.3-0.9,6.4c0.4,2.8,2.7,4.6,3,7.4
				c0.6,5.3-3.2,11.3-6.4,15.3C15.9,175.5,17.7,177.3,18.7,176L18.7,176z"/>
		</g>
	</g>
	<g>
		<g>
			<path d="M29.1,182.4c0.8-11.8,11.7-19.5,20.4-25.7c4.1-2.9,8.8-5.7,12.1-9.5c1.9-2.2,2-4.1,2.6-6.8c2.1-8.3,7-17,12-23.9
				c0.9-1.3,2.1-3.3,3.6-4.1c0.9-0.5,1.6-0.3,2.6-0.6c2.6-0.8,4.8-3.4,6.6-5.4c4.1-4.7,10.6-12.4,10.9-19c0.1-2.3-1.3-2.7-0.3-5
				c1.5-3.3,4.2-6.2,6.6-8.9c2.9-3.3,6-6.4,9.4-9.2c1.9-1.6,5-4.6,7.7-4.7c2.3-0.1,3.6,0.5,6.2-0.4c3.5-1.3,6.9-3.3,10-5.3
				c4.6-3,12.3-7.3,12-13.4c-0.2-3.6,4.2-6.7,7.2-8.8c3.5-2.5,9.5-6.7,13.9-5c1.5,0.6,2.2-1.9,0.7-2.4c-6.8-2.5-15.9,4.7-20.4,9
				c-1.6,1.5-4.7,4.3-4.4,6.8c0.1,0.6,0.8,1.5,0.8,1.9c-0.1,1.3-2.2,2.9-3.1,3.8c-3.4,3.2-7.3,5.8-11.4,8.1c-2.9,1.7-6.5,3.9-10,3.8
				c-2.1-0.1-3.1-0.4-5.2,0.7c-3.2,1.7-6,4.3-8.7,6.7c-4.9,4.5-12.2,10.9-14.3,17.6c-0.7,2.1,0.5,3,0.6,4.9
				c0.1,3.7-3.7,8.5-5.7,11.4c-2.2,3.3-5.2,7.8-8.7,9.9c-1.9,1.1-3.7,0.8-5.4,2.4c-6.3,5.6-10.4,15.3-13.6,22.9
				c-1.3,3.2-1.6,7.1-3,10c-1.3,2.7-4.8,4.9-7.1,6.6c-2.9,2.2-6,4.2-9,6.4c-8.5,6.1-17.5,14.2-18.2,25.4C26.5,184,29,184,29.1,182.4
				L29.1,182.4z"/>
		</g>
	</g>
</g>
</svg>
