<?xml version="1.0" encoding="utf-8"?>
<!-- Generator: Adobe Illustrator 22.1.0, SVG Export Plug-In . SVG Version: 6.00 Build 0)  -->
<svg version="1.1" id="courgette" xmlns="http://www.w3.org/2000/svg" xmlns:xlink="http://www.w3.org/1999/xlink" x="0px" y="0px"
	 viewBox="0 0 200 200" style="enable-background:new 0 0 200 200;" xml:space="preserve">
<g>
	<g>
		<g>
			<g>
				<g>
					<path d="M58.7,20.7C56,7,41.1,0.2,28.2,1.5C10.8,3.3,1.4,18.2,1.2,34.7c-0.2,14,5.1,26.6,11,39c6.1,12.8,13.5,24.9,22.1,36.2
						c14.7,19.4,32.5,36.1,52.4,50.1c15.4,10.9,32,20.1,49.3,27.4c7.7,3.3,16.3,7.6,24.7,8.9c14.4,2.3,24.5-23,16.1-32.9
						c-2-2.3-4.5-3.6-7.3-4.6c-5.9-2.3-11.7-5.8-17.1-9.1c-13.3-8-25.7-17.4-36.8-28.1C88.3,95.4,68.2,60.9,59.5,24
						C59.2,22.9,59,21.8,58.7,20.7c-0.4-1.6-2.8-0.9-2.4,0.7c6.6,27.4,17.9,53.1,34.6,75.9c15,20.4,33.7,38,55.1,51.6
						c6.5,4.2,13.3,8.1,20.3,11.5c2,1,4.3,1.5,6.2,2.7c10.6,7,3.1,26.3-6.9,30.3c-4.8,1.9-10.7-1.2-16-3.1
						c-13.8-5-27.1-11.3-39.8-18.5c-40.8-23.2-75.3-57.2-95.6-99.9C8.2,59.4,3,46.7,3.8,32.6c0.5-8.9,3.7-18,11.1-23.5
						c10.7-8,28.3-7,37.2,3.4c2.2,2.5,3.5,5.5,4.2,8.8C56.6,22.9,59,22.3,58.7,20.7z"/>
				</g>
			</g>
			<g>
				<g>
					<path d="M174.8,185.3c4.8,4.4,13.5,9.9,20.3,7.2c5.2-2.1,3.6-8.8,1.6-12.8c-0.3-0.6-1.2-0.8-1.7-0.4
						c-5.3,3.6-11.6,1.2-15.9-2.8c-1.2-1.1-3,0.7-1.8,1.8c5.1,4.7,12.7,7.4,18.9,3.1c-0.6-0.1-1.1-0.3-1.7-0.4
						c1.9,3.7,3,9.5-2.8,9.6c-5.5,0.1-11.2-3.4-15.1-7C175.4,182.4,173.6,184.2,174.8,185.3L174.8,185.3z"/>
				</g>
			</g>
		</g>
	</g>
	<g>
		<g>
			<path d="M159,183.5c-14.6-6.1-30.1-14.7-44-23.4c-28.9-18-56.4-40.2-76.2-68.2C26.7,74.8,17.9,55.5,14.5,34.7
				c-0.3-1.6-2.7-0.9-2.4,0.7c6.1,37,29,68.3,56.2,93c22,19.9,47.3,36.5,73.7,49.9c5.4,2.7,10.8,5.4,16.3,7.7
				C159.8,186.5,160.5,184.1,159,183.5L159,183.5z"/>
		</g>
	</g>
	<g>
		<g>
			<path d="M166.4,167.6c-13-6.6-25.2-15-36.8-23.7c-24.8-18.6-47.7-40.9-63.8-67.6c-10.2-16.9-17.3-35.5-20-55.1
				c-0.2-1.6-2.6-0.9-2.4,0.7C51.8,82.9,101,130.6,151,161.6c4.6,2.9,9.3,5.7,14.1,8.2C166.6,170.5,167.8,168.4,166.4,167.6
				L166.4,167.6z"/>
		</g>
	</g>
</g>
</svg>
