<?xml version="1.0" encoding="utf-8"?>
<!-- Generator: Adobe Illustrator 22.1.0, SVG Export Plug-In . SVG Version: 6.00 Build 0)  -->
<svg version="1.1" id="epinard" xmlns="http://www.w3.org/2000/svg" xmlns:xlink="http://www.w3.org/1999/xlink" x="0px" y="0px"
	 viewBox="0 0 200 200" style="enable-background:new 0 0 200 200;" xml:space="preserve">
<style type="text/css">
	.st0{fill:#FFFFFF;}
</style>
<g>
	<g>
		<g>
			<g>
				<path d="M170.7,109c-14.5-25-35.8-48.6-60.2-63.9c-10.3-6.4-18.3-11-30.3-13.3c-1.6-0.3-2.2,2.1-0.7,2.4
					c26.6,5.1,45.6,22.4,63.3,42c9.5,10.4,18.5,21.8,25.6,34.1C169.3,111.7,171.5,110.4,170.7,109L170.7,109z"/>
			</g>
		</g>
		<g>
			<g>
				<path d="M131.8,33.2c3,5.4,5.6,11,8,16.7c3.6,8.7,7.9,19.4,6.4,29c-0.3,1.6,2.2,2.3,2.4,0.7c1.6-9.8-2.3-20.3-5.9-29.2
					c-2.5-6.3-5.4-12.5-8.7-18.4C133.1,30.5,131,31.8,131.8,33.2L131.8,33.2z"/>
			</g>
		</g>
		<g>
			<g>
				<path d="M104.9,28c4.8,6.5,11.7,14.4,12,22.8c0,1.6,2.5,1.6,2.5,0c-0.3-8.9-7.2-17.1-12.3-24.1C106.2,25.4,104,26.7,104.9,28
					L104.9,28z"/>
			</g>
		</g>
		<g>
			<g>
				<path d="M129.3,73.6c2.8-0.2,8.4-0.6,10.6-2.5c1.3-1-0.5-2.7-1.7-1.7l0,0c-1.4,1.2-7.8,1.8-10.2,1.8"/>
			</g>
		</g>
	</g>
	<g>
		<g>
			<g>
				<path d="M145.4,161.1c-13.7,2.7-28,3.4-41.9,3.2c-26.5-0.4-54.6-5.4-76-22c-1.3-1-3,0.8-1.8,1.8c30.4,23.6,73.4,25.6,110.1,21
					c3.4-0.4,6.8-0.9,10.2-1.5C147.7,163.2,147,160.8,145.4,161.1L145.4,161.1z"/>
			</g>
		</g>
		<g>
			<g>
				<path d="M63.9,186.7c6.7-1.5,13.3-3.4,19.8-5.7c8.9-3.2,19.2-7,25.4-14.5c1-1.2-0.7-3-1.8-1.8c-6.4,7.7-17.3,11.5-26.5,14.6
					c-5.8,1.9-11.7,3.7-17.7,5C61.7,184.6,62.3,187.1,63.9,186.7L63.9,186.7z"/>
			</g>
		</g>
		<g>
			<g>
				<path d="M41.9,170.1c8.7-0.8,20.3-1.6,27.3-7.4c1.2-1-0.5-2.8-1.8-1.8c-6.4,5.2-17.6,6-25.5,6.7
					C40.3,167.7,40.3,170.2,41.9,170.1L41.9,170.1z"/>
			</g>
		</g>
		<g>
			<g>
				<path d="M97.3,165.3c0-2.9-2.3-6-4-8.1c-7.5-9.5-5.6-4-16.1-9.6c-1.4-0.8-2.7,1.4-1.3,2.2c10,5.4,7.3-0.6,14.7,8.2
					c1.6,1.9,4.1,5.1,4.1,7.4C94.8,166.9,97.3,166.9,97.3,165.3L97.3,165.3z"/>
			</g>
		</g>
		<g>
			<g>
				<path d="M54.9,157.3c-3.1-8.9-2.7-10.1-8.5-17.4c-1-1.3-2.8,0.5-1.8,1.8c5.5,7,4.9,7.9,7.8,16.3C53,159.5,55.4,158.8,54.9,157.3
					L54.9,157.3z"/>
			</g>
		</g>
	</g>
	<g>
		<g>
			<g>
				<path d="M161.5,143.2c-10.2-3.6-19.7-10.5-28.5-16.6c-0.3-0.2-0.9-0.2-1.3,0c-18.1,12.9-39.8,23-62.6,20.3
					c-15-1.8-28.6-9.3-39.5-19.5c-5.6-5.3-11.3-11.6-15-18.5c-1.8-3.4-3.2-8.2-4.5-12.1C4.4,78.2-1.9,49.3,15.5,34.9
					c13.3-11,33.9-8.1,49.3-4.7c19.4,4.2,38.6,12.4,52.2,27.4c14.3,15.9,18.6,36,17.2,56.8c0,0.4-0.1,0.7-0.2,1.1
					c-0.1,0.4,0,0.9,0.3,1.2c9.9,8.1,19.7,16.3,29.6,24.4c0-0.6,0-1.2,0-1.8c-1.2,1.4-2.4,2.8-3.6,4.2c-1,1.2,0.7,3,1.8,1.8
					c1.2-1.4,2.4-2.8,3.6-4.2c0.4-0.5,0.6-1.3,0-1.8c-5.7-4.7-11.4-9.4-17.1-14.1c-3.3-2.7-6.6-5.5-9.9-8.2
					c-0.7-0.6-1.5-1.4-2.3-1.9c-0.6-0.4,0,1.6,0.1,0.7c1.5-8.4,0.8-17.4-0.8-25.7c-3.3-16.7-12.4-31.7-25.7-42.4
					C91.1,32.5,63.9,24.3,39.8,24.8c-15.2,0.3-29.5,6.5-35,21.5C0,59.2,1.9,74,5,87.1c1.8,7.5,3.8,15.7,7.3,22.6
					c4.1,8.1,11.1,15.5,17.8,21.4c14,12.3,31.7,19.7,50.5,18.6c13.1-0.7,25.7-5.1,37.1-11.3c3.3-1.8,6.5-3.7,9.6-5.7
					c1.8-1.2,3.7-3.3,6-2.8c1.9,0.4,4.9,3.3,6.5,4.4c5.2,3.3,10.5,6.5,16,9.2c1.6,0.8,3.3,1.6,5,2.2
					C162.4,146.1,163,143.7,161.5,143.2z"/>
			</g>
		</g>
		<g>
			<path d="M198.3,147.1c-3.7-5.1-7.2-10.3-10.6-15.6c-5.4-8.3-11.4-17.2-14.4-26.7c-1.1-3.3-0.8-6.8-1.3-10.2
				c-0.7-4.8-1.8-9.6-3-14.4c-6.7-26.5-19.4-58.9-45-72.4c-14.2-7.5-30.2-6.1-44.6,0.4c-5.1,2.3-9.9,5.1-14.6,8.3
				c-3.5,2.3-8.7,5.4-11.6,8.8c1.1,0.1,2.3,0.3,3.4,0.4c2.5-2.6,5.8-4.6,8.8-6.6c14.8-10.2,33-17.8,50.7-12
				c28,9.1,41.9,43,49.2,68.9c2.2,7.8,4.4,15.9,4.6,24c0.2,7.4,4.8,14.6,8.3,20.9c4.6,8,9.6,15.7,14.8,23.2c0.7,1,1.4,2,2.1,3
				c-2.3,0-4.4-5-5.5-6.7c-2.2-3.3-4.5-6.7-6.9-9.9c-3.2-4.5-6.5-8.9-10-13.2c-2.8-3.4-6.2-8.6-10.1-10.9c-1.3-0.8-2.9-0.8-4.5-1.1
				c-4.6-0.8-9.2-1.7-13.8-2.6c-2.5-0.5-4.9-1.1-7.4-1.6c0.1,0.8,0.1,1.6,0.1,2.5c7.3,1.7,14.7,3.2,22,4.4c0.6,0.1,1.3,0.1,1.9,0.2
				c-0.4,0,1.1,0.9,1.5,1.4c6,5.8,11.2,12.6,16.1,19.4c4.9,6.7,9.5,13.6,14,20.6c0.3,0.5,0.8,0.7,1.4,0.6c1.2-0.2,2.5-0.5,3.5-1.2
				c0,0,0,0,0,0C198.3,148.6,198.8,147.9,198.3,147.1z"/>
		</g>
	</g>
	<g>
		<path class="st0" d="M154.8,135.9c0,0-95.6-62.6-106.7-64.2"/>
		<g>
			<path d="M155.4,134.8c-29.4-19.3-59-38.6-89.6-56c-5.2-2.9-11.4-7.4-17.4-8.4c-1.6-0.3-2.3,2.1-0.7,2.4
				c5.3,0.9,10.6,4.7,15.2,7.2c8.9,5,17.6,10.2,26.2,15.5c17.8,10.9,35.4,22.2,53,33.5c4,2.6,8,5.2,12.1,7.8
				C155.5,137.9,156.7,135.7,155.4,134.8L155.4,134.8z"/>
		</g>
	</g>
	<g>
		<g>
			<path d="M75.6,63.4C82.4,71,91,83.2,88,93.9c-0.4,1.6,2,2.2,2.4,0.7c3.3-11.7-5.6-24.6-13-32.9C76.3,60.5,74.5,62.2,75.6,63.4
				L75.6,63.4z"/>
		</g>
	</g>
	<g>
		<g>
			<path d="M115.8,88.1c3.7,7,8.3,17.9,4.3,25.5c-0.8,1.4,1.4,2.7,2.2,1.3c4.5-8.5-0.2-20.2-4.3-28
				C117.2,85.5,115.1,86.7,115.8,88.1L115.8,88.1z"/>
		</g>
	</g>
	<g>
		<g>
			<path d="M98.6,99c-14.6,4.6-31.7-0.3-44.4-7.7c-1.4-0.8-2.6,1.3-1.3,2.2c13.3,7.8,31,12.7,46.3,8C100.8,101,100.1,98.5,98.6,99
				L98.6,99z"/>
		</g>
	</g>
	<g>
		<path class="st0" d="M129.2,119.3c0,0-20.5,5.6-43.5-1.8"/>
		<g>
			<path d="M128.8,118.1c-13.8,3.7-29.3,2.4-42.8-1.8c-1.5-0.5-2.2,1.9-0.7,2.4c13.9,4.2,29.9,5.5,44.1,1.8
				C131.1,120.1,130.4,117.7,128.8,118.1L128.8,118.1z"/>
		</g>
	</g>
</g>
<path d="M193.7,157.2c-0.3-1.1-0.7-2.1-1.4-3.1c-0.3-0.5-0.9-0.7-1.4-0.6c-13.6,2-27.3,3.8-41.1,3.9c-2.8,0-5.7,0-8.5-0.2
	c-0.4,0-2.4-0.4-2.1-0.2c-2.3-1.3-4.5-3.8-6.4-5.3c-5.2-4.1-10.4-8-15.8-11.7c-0.6-0.5-1.3-0.9-2-1.3c-0.9,0.4-1.7,0.9-2.6,1.3
	c0.2,0.1,0.4,0.2,0.5,0.4c5.7,3.9,11.3,8,16.8,12.2c2.5,2,5,4.7,7.7,6.3c1.7,1,3.8,0.9,5.8,1c9.1,0.4,18.3-0.3,27.4-1.2
	c3.5-0.4,6.9-0.8,10.4-1.2c1.9-0.3,7.7-1.9,9.6-0.5c-14.2,1.5-29,3.2-42.6,7.5c-7.6,2.4-13.5,7.9-20.4,11.8
	c-22.5,12.5-50.9,23.5-77,19.5c-14.7-2.3-26.9-10.6-33.8-23.9c-4.7-9-6.9-19.2-7.9-29.2c-0.6-5.7-1.7-11.5,1.4-16.5
	c2.2-3.6,5.1-6.9,8.5-9.5c-0.5-0.7-1-1.4-1.5-2c-4.4,3.3-8,7.7-10.6,12.6c-2.4,4.5-0.8,11.6-0.2,16.5c0.6,5.2,1.5,10.4,2.9,15.5
	c4,14.7,12.6,28.2,26.8,34.7c25.5,11.7,57.2,1.3,81.1-9.8c7.7-3.6,15.9-7.5,22.5-12.9c5.4-4.4,12.6-5.8,19.3-7.2
	c9.4-2,18.9-3.3,28.5-4.4c1.6-0.2,3.1-0.4,4.6-0.6c0.7,0.2,1.6-0.2,1.5-1.1C193.8,157.7,193.8,157.4,193.7,157.2z"/>
</svg>
