<?xml version="1.0" encoding="utf-8"?>
<!-- Generator: Adobe Illustrator 22.1.0, SVG Export Plug-In . SVG Version: 6.00 Build 0)  -->
<svg version="1.1" id="haricot" xmlns="http://www.w3.org/2000/svg" xmlns:xlink="http://www.w3.org/1999/xlink" x="0px" y="0px"
	 viewBox="0 0 200 200" style="enable-background:new 0 0 200 200;" xml:space="preserve">
<g>
	<g>
		<g>
			<g>
				<path d="M155,5.9c-8.3,11-18.2,22.9-23.3,35.9c-1,2.7-0.8,5.3-1.6,8c-1.5,4.9-4.3,9.5-6.9,13.8c-3.3,5.5-6.2,9.1-9.9,14
					c-3.4,4.6-6.5,9.5-8.8,14.8c-2.8,6.4-2.8,13.7-6.5,19.6c-3.4,5.5-8.3,8.2-13.4,11.7c-7.8,5.2-15.8,11.5-20.9,19.4
					c-1.3,2.1-1.9,4.2-3,6.4c-1.6,3.1-5.3,5.1-8.2,6.7c-2.4,1.3-5,2.2-7.4,3.5c-7.8,4.1-16.8,11.4-19.8,19.9
					c-0.6,1.6-0.5,1.7-1.8,2.6c-0.9,0.6-2.3,0.9-3.3,1.3c-2.5,1-5.1,1.9-7.6,2.9c-3.6,1.3-7.1,2.7-10.7,4c-1.2,0.5-1.2,2.5,0.3,2.5
					c3.5-0.1,7.2-0.1,10.7,0.4c3,0.4,4.5,1.6,6.8,3c2.6,1.7,6.1,2,9.1,1.9c16.1-0.1,31.6-10.2,43.8-19.8
					c43.9-34.5,71.2-85.6,83.8-139.3c1.7-7.1,3.1-14.2,4.1-21.4c0.7-4.7-1.3-7.4-3.3-11.8c-0.7-1.5-2.8-0.2-2.2,1.3
					c0.5,1.2,1.1,2.4,1.6,3.5c0.4,0.9,0.8,1.9,1.3,2.8c0.2,0.4,0.6,2,0.5,0.9c0.1,0.8-0.2,1.7-0.3,2.4c-0.8,5.6-1.9,11.2-3.1,16.8
					c-4.8,22.1-12.1,43.7-21.9,64.1c-13.2,27.3-31.4,51.8-54.1,72c-13,11.6-29.9,24.5-48.1,25.9c-3.3,0.2-7.4,0.3-10.2-1.6
					c-2.3-1.6-4.2-2.7-7.4-3.2c-3.7-0.5-7.5-0.6-11.2-0.5c0.1,0.8,0.2,1.6,0.3,2.5c7.3-2.7,14.7-5.3,22-8.3c3.8-1.6,3.7-6,6.1-9.3
					c3.3-4.5,7.9-8.1,12.5-11.2c5.7-3.8,12.7-5.7,18.1-10.8c2-1.9,2-3.7,3.3-6.3c1.4-2.8,3.3-5.3,5.4-7.6c3.8-4.2,8.2-7.9,12.8-11.2
					c4-2.9,8.5-5,12.1-8.3c9.6-8.6,9-21.6,15.1-32.3c3.4-5.9,8-10.8,11.8-16.5c4.5-6.8,10.7-15.2,11.7-23.5
					c1-8.4,6.7-15.8,11.4-22.8c4-6,8.2-11.8,12.6-17.6C158.1,5.9,155.9,4.7,155,5.9z"/>
			</g>
		</g>
		<g>
			<g>
				<path d="M156.4,7.8c9.3-3,21-2,28.4,4.8c6.4,5.9,9.8,16.1,11.5,24.4c0.4,1.9,1.1,6.6-0.1,7.9c0.7,0.1,1.3,0.2,2,0.3
					c-1.4-3-1.2-4.4-1.7-8.4c-0.8-5.8-2.7-11.5-5.9-16.5c-3.9-6-10-11.5-16.9-13.7c-2.6-0.8-7.3-0.9-9.7,0.8c-2.1,1.5-2.6,4.3-4.9,6
					c-1.3,0.9,0,3.1,1.3,2.2c2.3-1.7,3.1-3.7,4.7-5.8c0.9-1.2-0.5,0.3,0-0.1c0.4-0.3,1.2-0.5,1.7-0.6c3.3-0.7,5.9-0.3,9,1.2
					c6.7,3.4,11.9,8.8,15,15.6c3.1,6.7,2.3,14.1,5.3,20.6c0.3,0.7,1.4,0.8,2,0.3c1.8-1.9,1.4-5.6,1.2-7.8c-1.1-8.8-5-19.6-10.9-26.3
					c-7.8-8.9-21.5-10.6-32.4-7.1C154.2,5.8,154.9,8.2,156.4,7.8L156.4,7.8z"/>
			</g>
		</g>
	</g>
	<g>
		<g>
			<path d="M24.5,182.9c0.7,2.5,3.1,4.2,5.4,5c8.6,2.7,18.9-3.1,26.1-7c1.4-0.8,0.2-2.9-1.3-2.2c-6.4,3.5-15.9,9-23.6,6.9
				c-1.7-0.5-3.8-1.6-4.2-3.4C26.5,180.7,24.1,181.3,24.5,182.9L24.5,182.9z"/>
		</g>
	</g>
	<g>
		<g>
			<path d="M60.4,151.2c0.9,2.6,3.8,4,6.4,4.3c10.3,1,21-8.6,28.2-14.6c1.2-1-0.5-2.8-1.8-1.8c-6.5,5.3-16.3,14.1-25.4,13.9
				c-2-0.1-4.5-1.1-5-2.5C62.3,149,59.8,149.7,60.4,151.2L60.4,151.2z"/>
		</g>
	</g>
	<g>
		<g>
			<path d="M101.3,104.1c4.1,12.1,18.3-3.1,21.7-7.2c1-1.2-0.8-3-1.8-1.8c-2.2,2.7-14.5,17-17.5,8.3
				C103.2,101.9,100.8,102.6,101.3,104.1L101.3,104.1z"/>
		</g>
	</g>
</g>
</svg>
