<?xml version="1.0" encoding="utf-8"?>
<!-- Generator: Adobe Illustrator 22.1.0, SVG Export Plug-In . SVG Version: 6.00 Build 0)  -->
<svg version="1.1" id="Calque_1" xmlns="http://www.w3.org/2000/svg" xmlns:xlink="http://www.w3.org/1999/xlink" x="0px" y="0px"
	 viewBox="0 0 200 200" style="enable-background:new 0 0 200 200;" xml:space="preserve">
<style type="text/css">
	.st0{clip-path:url(#SVGID_2_);}
	.st1{clip-path:url(#SVGID_4_);fill-rule:evenodd;clip-rule:evenodd;fill:#FF5A00;}
	.st2{opacity:0.8;clip-path:url(#SVGID_4_);fill-rule:evenodd;clip-rule:evenodd;fill:url(#SVGID_5_);}
	.st3{clip-path:url(#SVGID_4_);fill-rule:evenodd;clip-rule:evenodd;fill:url(#SVGID_6_);}
	.st4{opacity:0.85;clip-path:url(#SVGID_4_);fill-rule:evenodd;clip-rule:evenodd;fill:url(#SVGID_7_);}
	.st5{opacity:0.35;clip-path:url(#SVGID_4_);fill-rule:evenodd;clip-rule:evenodd;fill:url(#SVGID_8_);}
	.st6{opacity:0.7;clip-path:url(#SVGID_4_);fill-rule:evenodd;clip-rule:evenodd;fill:url(#SVGID_9_);}
	.st7{opacity:0.6;clip-path:url(#SVGID_4_);}
	.st8{opacity:0.4;clip-path:url(#SVGID_4_);fill-rule:evenodd;clip-rule:evenodd;fill:url(#SVGID_10_);}
	.st9{opacity:0.7;clip-path:url(#SVGID_4_);fill-rule:evenodd;clip-rule:evenodd;fill:url(#SVGID_11_);}
	.st10{opacity:0.5;clip-path:url(#SVGID_4_);fill-rule:evenodd;clip-rule:evenodd;fill:url(#SVGID_12_);}
	.st11{clip-path:url(#SVGID_14_);}
	.st12{clip-path:url(#SVGID_16_);fill-rule:evenodd;clip-rule:evenodd;fill:#FF5A00;}
	.st13{opacity:0.8;clip-path:url(#SVGID_16_);fill-rule:evenodd;clip-rule:evenodd;fill:url(#SVGID_17_);}
	.st14{clip-path:url(#SVGID_16_);fill-rule:evenodd;clip-rule:evenodd;fill:url(#SVGID_18_);}
	.st15{opacity:0.85;clip-path:url(#SVGID_16_);fill-rule:evenodd;clip-rule:evenodd;fill:url(#SVGID_19_);}
	.st16{opacity:0.35;clip-path:url(#SVGID_16_);fill-rule:evenodd;clip-rule:evenodd;fill:url(#SVGID_20_);}
	.st17{opacity:0.7;clip-path:url(#SVGID_16_);fill-rule:evenodd;clip-rule:evenodd;fill:url(#SVGID_21_);}
	.st18{opacity:0.6;clip-path:url(#SVGID_16_);}
	.st19{opacity:0.4;clip-path:url(#SVGID_16_);fill-rule:evenodd;clip-rule:evenodd;fill:url(#SVGID_22_);}
	.st20{opacity:0.7;clip-path:url(#SVGID_16_);fill-rule:evenodd;clip-rule:evenodd;fill:url(#SVGID_23_);}
	.st21{opacity:0.5;clip-path:url(#SVGID_16_);fill-rule:evenodd;clip-rule:evenodd;fill:url(#SVGID_24_);}
	.st22{clip-path:url(#SVGID_26_);}
	.st23{clip-path:url(#SVGID_28_);fill-rule:evenodd;clip-rule:evenodd;fill:#FF5A00;}
	.st24{opacity:0.8;clip-path:url(#SVGID_28_);fill-rule:evenodd;clip-rule:evenodd;fill:url(#SVGID_29_);}
	.st25{clip-path:url(#SVGID_28_);fill-rule:evenodd;clip-rule:evenodd;fill:url(#SVGID_30_);}
	.st26{opacity:0.85;clip-path:url(#SVGID_28_);fill-rule:evenodd;clip-rule:evenodd;fill:url(#SVGID_31_);}
	.st27{opacity:0.35;clip-path:url(#SVGID_28_);fill-rule:evenodd;clip-rule:evenodd;fill:url(#SVGID_32_);}
	.st28{opacity:0.7;clip-path:url(#SVGID_28_);fill-rule:evenodd;clip-rule:evenodd;fill:url(#SVGID_33_);}
	.st29{opacity:0.6;clip-path:url(#SVGID_28_);}
	.st30{opacity:0.4;clip-path:url(#SVGID_28_);fill-rule:evenodd;clip-rule:evenodd;fill:url(#SVGID_34_);}
	.st31{opacity:0.7;clip-path:url(#SVGID_28_);fill-rule:evenodd;clip-rule:evenodd;fill:url(#SVGID_35_);}
	.st32{opacity:0.5;clip-path:url(#SVGID_28_);fill-rule:evenodd;clip-rule:evenodd;fill:url(#SVGID_36_);}
</style>
<g>
	<defs>
		<path id="SVGID_1_" d="M100,18c26.7,0,29.9,0.1,40.4,0.6c9.7,0.4,15,2.1,18.6,3.4c4.7,1.8,8,4,11.5,7.5c3.5,3.5,5.7,6.8,7.5,11.5
			c1.4,3.5,3,8.8,3.4,18.6c0.5,10.5,0.6,13.7,0.6,40.4s-0.1,29.9-0.6,40.4c-0.4,9.7-2.1,15-3.4,18.6c-1.8,4.7-4,8-7.5,11.5
			c-3.5,3.5-6.8,5.7-11.5,7.5c-3.5,1.4-8.8,3-18.6,3.4c-10.5,0.5-13.7,0.6-40.4,0.6s-29.9-0.1-40.4-0.6c-9.7-0.4-15-2.1-18.6-3.4
			c-4.7-1.8-8-4-11.5-7.5C26,167,23.9,163.6,22,159c-1.4-3.5-3-8.8-3.4-18.6C18.1,129.9,18,126.7,18,100s0.1-29.9,0.6-40.4
			c0.4-9.7,2.1-15,3.4-18.6c1.8-4.7,4-8,7.5-11.5C33,26,36.4,23.9,41,22c3.5-1.4,8.8-3,18.6-3.4C70.1,18.1,73.3,18,100,18 M100,0
			C72.8,0,69.4,0.1,58.8,0.6C48.1,1.1,40.9,2.8,34.5,5.2c-6.6,2.6-12.2,6-17.7,11.5c-5.6,5.6-9,11.1-11.5,17.7
			c-2.5,6.4-4.2,13.6-4.6,24.3C0.1,69.4,0,72.8,0,100c0,27.2,0.1,30.6,0.6,41.2c0.5,10.6,2.2,17.9,4.6,24.3
			c2.6,6.6,6,12.2,11.5,17.7c5.6,5.6,11.1,9,17.7,11.5c6.4,2.5,13.6,4.2,24.3,4.6c10.7,0.5,14.1,0.6,41.2,0.6s30.6-0.1,41.2-0.6
			c10.6-0.5,17.9-2.2,24.3-4.6c6.6-2.6,12.2-6,17.7-11.5c5.6-5.6,9-11.1,11.5-17.7c2.5-6.4,4.2-13.6,4.6-24.3
			c0.5-10.7,0.6-14.1,0.6-41.2s-0.1-30.6-0.6-41.2c-0.5-10.6-2.2-17.9-4.6-24.3c-2.6-6.6-6-12.2-11.5-17.7
			c-5.6-5.6-11.1-9-17.7-11.5c-6.4-2.5-13.6-4.2-24.3-4.6C130.6,0.1,127.2,0,100,0L100,0z"/>
	</defs>
	<clipPath id="SVGID_2_">
		<use xlink:href="#SVGID_1_"  style="overflow:visible;"/>
	</clipPath>
	<g id="calque_2_" class="st0">
		<defs>
			<path id="SVGID_3_" d="M0,0h200v200H0V0z"/>
		</defs>
		<clipPath id="SVGID_4_">
			<use xlink:href="#SVGID_3_"  style="overflow:visible;"/>
		</clipPath>
		<path class="st1" d="M-0.3,0h200v200h-200V0z"/>
		
			<radialGradient id="SVGID_5_" cx="-2813.9443" cy="-2682.9827" r="45.7468" gradientTransform="matrix(3.9597 0.2615 -7.309227e-02 1.2452 11160.2793 4282.3105)" gradientUnits="userSpaceOnUse">
			<stop  offset="0" style="stop-color:#FF1E00;stop-opacity:0.9"/>
			<stop  offset="1" style="stop-color:#FF1E00;stop-opacity:0"/>
		</radialGradient>
		<path class="st2" d="M216.4,146.4c102.4,6.1,184.4,37.5,183.2,70.2c-1.3,32.7-85.4,54.3-187.8,48.2
			c-102.4-6.1-184.4-37.5-183.2-70.2C29.8,161.9,113.9,140.3,216.4,146.4z"/>
		
			<radialGradient id="SVGID_6_" cx="-2774.363" cy="-2819.3474" r="17.0173" fx="-2772.8054" fy="-2810.28" gradientTransform="matrix(3.6797 -1.8881 2.9636 5.7758 18818.873 11027.1357)" gradientUnits="userSpaceOnUse">
			<stop  offset="0" style="stop-color:#FF1E00"/>
			<stop  offset="1" style="stop-color:#FF1E00;stop-opacity:0"/>
		</radialGradient>
		<path class="st3" d="M200.3-121.9c35.5-21.4,88.6,7.5,118.6,64.4c30,56.9,25.6,120.4-9.9,141.7c-35.5,21.4-88.6-7.5-118.6-64.4
			C160.4-37.1,164.8-100.5,200.3-121.9z"/>
		
			<radialGradient id="SVGID_7_" cx="-2795.8179" cy="-2822.1355" r="23.1534" gradientTransform="matrix(2.8217 3.0237 -2.145 2.0017 2001.4994 14072.3848)" gradientUnits="userSpaceOnUse">
			<stop  offset="0" style="stop-color:#FF00AE;stop-opacity:0.9"/>
			<stop  offset="1" style="stop-color:#FF00AE;stop-opacity:0"/>
		</radialGradient>
		<path class="st4" d="M107.7-114.2c36.8-16.4,91.4,6.5,121.9,51.2c30.5,44.7,25.4,94.2-11.4,110.6C181.4,64,126.8,41.1,96.3-3.6
			C65.8-48.3,70.9-97.8,107.7-114.2z"/>
		
			<radialGradient id="SVGID_8_" cx="-2786.5972" cy="-2807.8037" r="40.3905" gradientTransform="matrix(0.755 -4.2316 2.439 0.3723 9165.4453 -10674.2734)" gradientUnits="userSpaceOnUse">
			<stop  offset="0" style="stop-color:#FF00AE"/>
			<stop  offset="1" style="stop-color:#FF00AE;stop-opacity:0"/>
		</radialGradient>
		<path class="st5" d="M229.3-112.2c62-2.7,105.2,76.9,96.5,177.8c-8.8,100.9-66.2,184.8-128.2,187.5c-62,2.7-105.2-76.9-96.5-177.8
			C109.9-25.5,167.3-109.5,229.3-112.2z"/>
		
			<radialGradient id="SVGID_9_" cx="-2784.8921" cy="-2751.5054" r="74.9744" gradientTransform="matrix(1.5212 3.6828 -1.4213 0.5383 536.5753 11744.2803)" gradientUnits="userSpaceOnUse">
			<stop  offset="0" style="stop-color:#FF00AE;stop-opacity:0.9"/>
			<stop  offset="1" style="stop-color:#FF00AE;stop-opacity:0"/>
		</radialGradient>
		<path class="st6" d="M102.9-276.3c67.8-13,171.2,103.3,231,259.7c59.8,156.4,53.3,293.7-14.5,306.7
			c-67.8,13-171.2-103.3-231-259.7C28.6-126.1,35.1-263.4,102.9-276.3z"/>
		<g class="st7">
			<image style="overflow:visible;" width="377" height="401" xlink:href="CFD62471.png"  transform="matrix(1 0 0 1 -27 -200)">
			</image>
		</g>
		
			<radialGradient id="SVGID_10_" cx="-2965.7153" cy="-2924.3" r="24.8365" gradientTransform="matrix(4.8072 0 0 5.5246 14314.3486 16174.8496)" gradientUnits="userSpaceOnUse">
			<stop  offset="0" style="stop-color:#FED520;stop-opacity:0.9"/>
			<stop  offset="1" style="stop-color:#FED520;stop-opacity:0"/>
		</radialGradient>
		<path class="st8" d="M57.5-119.5c68.9,0,124.8,62.2,124.8,138.9S126.5,158.3,57.5,158.3S-67.3,96.1-67.3,19.4
			S-11.4-119.5,57.5-119.5z"/>
		
			<radialGradient id="SVGID_11_" cx="-2835.7927" cy="-2964.8054" r="36.742" gradientTransform="matrix(4.1358 0 0 6.1159 11728.8457 18132.752)" gradientUnits="userSpaceOnUse">
			<stop  offset="0" style="stop-color:#FED520;stop-opacity:0.9"/>
			<stop  offset="1" style="stop-color:#FED520;stop-opacity:0"/>
		</radialGradient>
		<path class="st9" d="M0.6-227.6c83.6,0,151.4,102,151.4,227.9S84.2,228.1,0.6,228.1c-83.6,0-151.4-102-151.4-227.9
			S-83-227.6,0.6-227.6z"/>
		
			<radialGradient id="SVGID_12_" cx="-2892.7632" cy="-3144.0657" r="24.8365" gradientTransform="matrix(4.4177 0 0 8.3521 12778.165 26249.668)" gradientUnits="userSpaceOnUse">
			<stop  offset="0" style="stop-color:#FED520;stop-opacity:0.9"/>
			<stop  offset="1" style="stop-color:#FED520;stop-opacity:0"/>
		</radialGradient>
		<path class="st10" d="M-1.1-220.1c63.4,0,114.7,94,114.7,210S62.2,200-1.1,200s-114.7-94-114.7-210S-64.5-220.1-1.1-220.1z"/>
	</g>
</g>
<g>
	<defs>
		<path id="SVGID_13_" d="M100,48.6c-28.4,0-51.4,23-51.4,51.4s23,51.4,51.4,51.4s51.4-23,51.4-51.4S128.4,48.6,100,48.6z
			 M100,133.3c-18.4,0-33.3-14.9-33.3-33.3c0-18.4,14.9-33.3,33.3-33.3c18.4,0,33.3,14.9,33.3,33.3
			C133.3,118.4,118.4,133.3,100,133.3z"/>
	</defs>
	<clipPath id="SVGID_14_">
		<use xlink:href="#SVGID_13_"  style="overflow:visible;"/>
	</clipPath>
	<g id="calque_1_" class="st11">
		<defs>
			<path id="SVGID_15_" d="M0,0h200v200H0V0z"/>
		</defs>
		<clipPath id="SVGID_16_">
			<use xlink:href="#SVGID_15_"  style="overflow:visible;"/>
		</clipPath>
		<path class="st12" d="M-0.3,0h200v200h-200V0z"/>
		
			<radialGradient id="SVGID_17_" cx="-2813.9443" cy="-2682.9827" r="45.7468" gradientTransform="matrix(3.9597 0.2615 -7.309227e-02 1.2452 11160.2793 4282.3105)" gradientUnits="userSpaceOnUse">
			<stop  offset="0" style="stop-color:#FF1E00;stop-opacity:0.9"/>
			<stop  offset="1" style="stop-color:#FF1E00;stop-opacity:0"/>
		</radialGradient>
		<path class="st13" d="M216.4,146.4c102.4,6.1,184.4,37.5,183.2,70.2c-1.3,32.7-85.4,54.3-187.8,48.2
			c-102.4-6.1-184.4-37.5-183.2-70.2C29.8,161.9,113.9,140.3,216.4,146.4z"/>
		
			<radialGradient id="SVGID_18_" cx="-2774.363" cy="-2819.3474" r="17.0173" fx="-2772.8054" fy="-2810.28" gradientTransform="matrix(3.6797 -1.8881 2.9636 5.7758 18818.873 11027.1357)" gradientUnits="userSpaceOnUse">
			<stop  offset="0" style="stop-color:#FF1E00"/>
			<stop  offset="1" style="stop-color:#FF1E00;stop-opacity:0"/>
		</radialGradient>
		<path class="st14" d="M200.3-121.9c35.5-21.4,88.6,7.5,118.6,64.4c30,56.9,25.6,120.4-9.9,141.7c-35.5,21.4-88.6-7.5-118.6-64.4
			C160.4-37.1,164.8-100.5,200.3-121.9z"/>
		
			<radialGradient id="SVGID_19_" cx="-2795.8179" cy="-2822.1355" r="23.1534" gradientTransform="matrix(2.8217 3.0237 -2.145 2.0017 2001.4994 14072.3848)" gradientUnits="userSpaceOnUse">
			<stop  offset="0" style="stop-color:#FF00AE;stop-opacity:0.9"/>
			<stop  offset="1" style="stop-color:#FF00AE;stop-opacity:0"/>
		</radialGradient>
		<path class="st15" d="M107.7-114.2c36.8-16.4,91.4,6.5,121.9,51.2c30.5,44.7,25.4,94.2-11.4,110.6C181.4,64,126.8,41.1,96.3-3.6
			C65.8-48.3,70.9-97.8,107.7-114.2z"/>
		
			<radialGradient id="SVGID_20_" cx="-2786.5972" cy="-2807.8037" r="40.3905" gradientTransform="matrix(0.755 -4.2316 2.439 0.3723 9165.4453 -10674.2734)" gradientUnits="userSpaceOnUse">
			<stop  offset="0" style="stop-color:#FF00AE"/>
			<stop  offset="1" style="stop-color:#FF00AE;stop-opacity:0"/>
		</radialGradient>
		<path class="st16" d="M229.3-112.2c62-2.7,105.2,76.9,96.5,177.8c-8.8,100.9-66.2,184.8-128.2,187.5
			c-62,2.7-105.2-76.9-96.5-177.8C109.9-25.5,167.3-109.5,229.3-112.2z"/>
		
			<radialGradient id="SVGID_21_" cx="-2784.8921" cy="-2751.5054" r="74.9744" gradientTransform="matrix(1.5212 3.6828 -1.4213 0.5383 536.5753 11744.2803)" gradientUnits="userSpaceOnUse">
			<stop  offset="0" style="stop-color:#FF00AE;stop-opacity:0.9"/>
			<stop  offset="1" style="stop-color:#FF00AE;stop-opacity:0"/>
		</radialGradient>
		<path class="st17" d="M102.9-276.3c67.8-13,171.2,103.3,231,259.7c59.8,156.4,53.3,293.7-14.5,306.7
			c-67.8,13-171.2-103.3-231-259.7C28.6-126.1,35.1-263.4,102.9-276.3z"/>
		<g class="st18">
			<image style="overflow:visible;" width="377" height="401" xlink:href="CFD62473.png"  transform="matrix(1 0 0 1 -27 -200)">
			</image>
		</g>
		
			<radialGradient id="SVGID_22_" cx="-2965.7153" cy="-2924.3" r="24.8365" gradientTransform="matrix(4.8072 0 0 5.5246 14314.3486 16174.8496)" gradientUnits="userSpaceOnUse">
			<stop  offset="0" style="stop-color:#FED520;stop-opacity:0.9"/>
			<stop  offset="1" style="stop-color:#FED520;stop-opacity:0"/>
		</radialGradient>
		<path class="st19" d="M57.5-119.5c68.9,0,124.8,62.2,124.8,138.9S126.5,158.3,57.5,158.3S-67.3,96.1-67.3,19.4
			S-11.4-119.5,57.5-119.5z"/>
		
			<radialGradient id="SVGID_23_" cx="-2835.7927" cy="-2964.8054" r="36.742" gradientTransform="matrix(4.1358 0 0 6.1159 11728.8457 18132.752)" gradientUnits="userSpaceOnUse">
			<stop  offset="0" style="stop-color:#FED520;stop-opacity:0.9"/>
			<stop  offset="1" style="stop-color:#FED520;stop-opacity:0"/>
		</radialGradient>
		<path class="st20" d="M0.6-227.6c83.6,0,151.4,102,151.4,227.9S84.2,228.1,0.6,228.1c-83.6,0-151.4-102-151.4-227.9
			S-83-227.6,0.6-227.6z"/>
		
			<radialGradient id="SVGID_24_" cx="-2892.7632" cy="-3144.0657" r="24.8365" gradientTransform="matrix(4.4177 0 0 8.3521 12778.165 26249.668)" gradientUnits="userSpaceOnUse">
			<stop  offset="0" style="stop-color:#FED520;stop-opacity:0.9"/>
			<stop  offset="1" style="stop-color:#FED520;stop-opacity:0"/>
		</radialGradient>
		<path class="st21" d="M-1.1-220.1c63.4,0,114.7,94,114.7,210S62.2,200-1.1,200s-114.7-94-114.7-210S-64.5-220.1-1.1-220.1z"/>
	</g>
</g>
<g>
	<defs>
		<circle id="SVGID_25_" cx="153.4" cy="46.6" r="12"/>
	</defs>
	<clipPath id="SVGID_26_">
		<use xlink:href="#SVGID_25_"  style="overflow:visible;"/>
	</clipPath>
	<g id="calque" class="st22">
		<defs>
			<path id="SVGID_27_" d="M0,0h200v200H0V0z"/>
		</defs>
		<clipPath id="SVGID_28_">
			<use xlink:href="#SVGID_27_"  style="overflow:visible;"/>
		</clipPath>
		<path class="st23" d="M-0.3,0h200v200h-200V0z"/>
		
			<radialGradient id="SVGID_29_" cx="-2813.9443" cy="-2682.9827" r="45.7468" gradientTransform="matrix(3.9597 0.2615 -7.309227e-02 1.2452 11160.2793 4282.3105)" gradientUnits="userSpaceOnUse">
			<stop  offset="0" style="stop-color:#FF1E00;stop-opacity:0.9"/>
			<stop  offset="1" style="stop-color:#FF1E00;stop-opacity:0"/>
		</radialGradient>
		<path class="st24" d="M216.4,146.4c102.4,6.1,184.4,37.5,183.2,70.2c-1.3,32.7-85.4,54.3-187.8,48.2
			c-102.4-6.1-184.4-37.5-183.2-70.2C29.8,161.9,113.9,140.3,216.4,146.4z"/>
		
			<radialGradient id="SVGID_30_" cx="-2774.363" cy="-2819.3474" r="17.0173" fx="-2772.8054" fy="-2810.28" gradientTransform="matrix(3.6797 -1.8881 2.9636 5.7758 18818.873 11027.1357)" gradientUnits="userSpaceOnUse">
			<stop  offset="0" style="stop-color:#FF1E00"/>
			<stop  offset="1" style="stop-color:#FF1E00;stop-opacity:0"/>
		</radialGradient>
		<path class="st25" d="M200.3-121.9c35.5-21.4,88.6,7.5,118.6,64.4c30,56.9,25.6,120.4-9.9,141.7c-35.5,21.4-88.6-7.5-118.6-64.4
			C160.4-37.1,164.8-100.5,200.3-121.9z"/>
		
			<radialGradient id="SVGID_31_" cx="-2795.8179" cy="-2822.1355" r="23.1534" gradientTransform="matrix(2.8217 3.0237 -2.145 2.0017 2001.4994 14072.3848)" gradientUnits="userSpaceOnUse">
			<stop  offset="0" style="stop-color:#FF00AE;stop-opacity:0.9"/>
			<stop  offset="1" style="stop-color:#FF00AE;stop-opacity:0"/>
		</radialGradient>
		<path class="st26" d="M107.7-114.2c36.8-16.4,91.4,6.5,121.9,51.2c30.5,44.7,25.4,94.2-11.4,110.6C181.4,64,126.8,41.1,96.3-3.6
			C65.8-48.3,70.9-97.8,107.7-114.2z"/>
		
			<radialGradient id="SVGID_32_" cx="-2786.5972" cy="-2807.8037" r="40.3905" gradientTransform="matrix(0.755 -4.2316 2.439 0.3723 9165.4453 -10674.2734)" gradientUnits="userSpaceOnUse">
			<stop  offset="0" style="stop-color:#FF00AE"/>
			<stop  offset="1" style="stop-color:#FF00AE;stop-opacity:0"/>
		</radialGradient>
		<path class="st27" d="M229.3-112.2c62-2.7,105.2,76.9,96.5,177.8c-8.8,100.9-66.2,184.8-128.2,187.5
			c-62,2.7-105.2-76.9-96.5-177.8C109.9-25.5,167.3-109.5,229.3-112.2z"/>
		
			<radialGradient id="SVGID_33_" cx="-2784.8921" cy="-2751.5054" r="74.9744" gradientTransform="matrix(1.5212 3.6828 -1.4213 0.5383 536.5753 11744.2803)" gradientUnits="userSpaceOnUse">
			<stop  offset="0" style="stop-color:#FF00AE;stop-opacity:0.9"/>
			<stop  offset="1" style="stop-color:#FF00AE;stop-opacity:0"/>
		</radialGradient>
		<path class="st28" d="M102.9-276.3c67.8-13,171.2,103.3,231,259.7c59.8,156.4,53.3,293.7-14.5,306.7
			c-67.8,13-171.2-103.3-231-259.7C28.6-126.1,35.1-263.4,102.9-276.3z"/>
		<g class="st29">
			<image style="overflow:visible;" width="377" height="401" xlink:href="CFD62476.png"  transform="matrix(1 0 0 1 -27 -200)">
			</image>
		</g>
		
			<radialGradient id="SVGID_34_" cx="-2965.7153" cy="-2924.3" r="24.8365" gradientTransform="matrix(4.8072 0 0 5.5246 14314.3486 16174.8496)" gradientUnits="userSpaceOnUse">
			<stop  offset="0" style="stop-color:#FED520;stop-opacity:0.9"/>
			<stop  offset="1" style="stop-color:#FED520;stop-opacity:0"/>
		</radialGradient>
		<path class="st30" d="M57.5-119.5c68.9,0,124.8,62.2,124.8,138.9S126.5,158.3,57.5,158.3S-67.3,96.1-67.3,19.4
			S-11.4-119.5,57.5-119.5z"/>
		
			<radialGradient id="SVGID_35_" cx="-2835.7927" cy="-2964.8054" r="36.742" gradientTransform="matrix(4.1358 0 0 6.1159 11728.8457 18132.752)" gradientUnits="userSpaceOnUse">
			<stop  offset="0" style="stop-color:#FED520;stop-opacity:0.9"/>
			<stop  offset="1" style="stop-color:#FED520;stop-opacity:0"/>
		</radialGradient>
		<path class="st31" d="M0.6-227.6c83.6,0,151.4,102,151.4,227.9S84.2,228.1,0.6,228.1c-83.6,0-151.4-102-151.4-227.9
			S-83-227.6,0.6-227.6z"/>
		
			<radialGradient id="SVGID_36_" cx="-2892.7632" cy="-3144.0657" r="24.8365" gradientTransform="matrix(4.4177 0 0 8.3521 12778.165 26249.668)" gradientUnits="userSpaceOnUse">
			<stop  offset="0" style="stop-color:#FED520;stop-opacity:0.9"/>
			<stop  offset="1" style="stop-color:#FED520;stop-opacity:0"/>
		</radialGradient>
		<path class="st32" d="M-1.1-220.1c63.4,0,114.7,94,114.7,210S62.2,200-1.1,200s-114.7-94-114.7-210S-64.5-220.1-1.1-220.1z"/>
	</g>
</g>
</svg>
