<?xml version="1.0" encoding="utf-8"?>
<!-- Generator: Adobe Illustrator 22.1.0, SVG Export Plug-In . SVG Version: 6.00 Build 0)  -->
<svg version="1.1" id="mais" xmlns="http://www.w3.org/2000/svg" xmlns:xlink="http://www.w3.org/1999/xlink" x="0px" y="0px"
	 viewBox="0 0 200 200" style="enable-background:new 0 0 200 200;" xml:space="preserve">
<g>
	<g>
		<g>
			<path d="M8.7,180.1c2.8,8.3,10.3,14.5,18.8,16.1c1.6,0.3,2.2-2.1,0.7-2.4c-7.6-1.4-14.6-6.8-17.1-14.4
				C10.6,177.9,8.2,178.5,8.7,180.1L8.7,180.1z"/>
		</g>
	</g>
	<g>
		<g>
			<g>
				<path d="M83.3,78.5c-17.7,14.7-35,30.1-50,47.6c-8.1,9.4-15.9,19.5-21.1,30.8c-2.5,5.3-4.6,11.2-4.6,17.2c0,2.3,0.9,4.2,1.2,6.3
					c-0.3-1.9,0.2-1-0.5-0.4c-1,0.7-1.7,3.3-2,4.4c-1.2,4.4,0,8.9,3.6,11.8c5.2,4.2,13.1,2.6,18.6-0.1c-0.6-0.2-1.2-0.5-1.8-0.7
					c1.4,3.6,5.9,4.5,9.4,4.3c5.4-0.4,10.7-2.9,15.3-5.5c9.4-5.2,17.8-12.1,25.9-19.1c17.4-15.1,33.2-32,48.5-49.2
					c1.1-1.2-0.7-3-1.8-1.8c-20.7,23.2-42.6,47.9-68.9,64.9c-5.6,3.6-17,11.3-24.2,7.3c-0.9-0.5-1.9-1.8-1.8-1.6
					c-0.3-0.8-1-1.1-1.8-0.7c-3.7,1.8-8.4,3-12.4,1.9c-7.5-2-7.8-10.2-3.8-15.5c0.3-0.3,0.2-0.9,0-1.3c-1.8-3-0.7-9.1,0.3-12.7
					c4.6-17,17.4-31.8,29-44.4C54,106.9,69.3,93.3,85,80.3C86.3,79.2,84.5,77.5,83.3,78.5L83.3,78.5z"/>
			</g>
		</g>
		<g>
			<g>
				<path d="M157.5,82.3c7.3-0.7,14.6-0.9,21.9-0.7c4.6,0.2,10,0.2,14.2,2.3c0.7,0.4,1.3,0.8,1.9,1.3c0,0,0.7-1.4,0.3-0.8
					c-0.3,0.4-1.1,0.7-1.5,1c-10.2,6.8-21.4,12.2-32.2,18c-34.4,18.5-69.1,36.6-103.7,54.6c-8.9,4.6-17.8,9.2-26.6,13.8
					c0.6,0.6,1.1,1.1,1.7,1.7c13-23.2,25.9-46.5,38.8-69.8c17.2-31.1,35-62.1,50.7-93.9c0.8-1.7,1.7-3.4,2.4-5.2
					c0.2-0.4,0.6-1.1,0.6-1.6c0-1.1-0.6,0.2-0.8-0.7c0.2,0.6,0.7,1.1,0.9,1.7c3.5,12.6,6.1,27.6,0.8,40.1c-0.6,1.5,1.5,2.7,2.2,1.3
					c4.7-11.1,3.8-24.5,1.2-36c-0.5-2.4-3.7-14.1-6.6-7.2c-4.3,10.1-9.8,19.9-15,29.6c-19.9,37.2-40.4,74-60.9,110.9
					c-5.5,9.9-11,19.7-16.5,29.6c-0.6,1.1,0.6,2.3,1.7,1.7c18-9.3,36-18.7,54-28.1c29.4-15.4,58.8-30.7,88-46.6
					c5.2-2.8,10.4-5.7,15.5-8.7c2.5-1.4,5.3-2.8,7.4-4.7c0.4-0.4,0.5-1.1,0.2-1.5c-3.5-5.7-14.6-5.2-20.2-5.4
					c-6.8-0.2-13.6,0.1-20.4,0.7C155.9,79.9,155.9,82.4,157.5,82.3L157.5,82.3z"/>
			</g>
		</g>
		<g>
			<g>
				<path d="M45.1,152.8c11.7-16.1,23.4-32.2,34.9-48.4c7.6-10.6,15.2-21.3,22.5-32.1c2.2-3.2,4.5-6.5,6.4-9.9c1-1.8,1.5-3.2,3-4.6
					c9-8.4,21-14.7,31.9-20.2c6.5-3.3,13.2-6.4,20.2-8.4c3.7-1.1,10.1-3.1,13.6-0.3c4.7,3.7,1,12.8-0.8,17.1
					c-3.1,7.8-7.5,15.1-12,22.1c-6.9,10.7-14,22.1-23.5,30.9c-19.9,18.4-42.7,34.2-64.8,49.8c-1.3,0.9-0.1,3.1,1.3,2.2
					c20.8-14.6,41.6-29.6,60.9-46.2c9.8-8.5,17.1-18.6,24.3-29.3c4.9-7.2,9.6-14.7,13.4-22.5c2.8-5.7,6-12.5,5.7-19
					c-1.2-24.2-53.5,9-61.2,14.1c-4,2.6-8.4,5.3-11.7,8.8c-1.4,1.5-2,3.3-3,5c-5.6,9.5-12.3,18.5-18.6,27.5
					C73,110.1,58,130.8,43,151.5C42,152.8,44.2,154,45.1,152.8L45.1,152.8z"/>
			</g>
		</g>
		<g>
			<g>
				<g>
					<path d="M40.6,168.9C40.6,168.9,40.6,168.8,40.6,168.9c-0.4-0.7-1.2-0.8-1.7-0.5c0,0,0,0,0,0c-0.7,0.4-0.8,1.4-0.3,2
						c0,0,0,0,0.1,0.1c1.1,1.2,2.9-0.6,1.8-1.8c0,0,0,0-0.1-0.1c-0.1,0.7-0.2,1.3-0.3,2c0,0,0,0,0,0c-0.6-0.1-1.1-0.3-1.7-0.4
						c0,0,0,0,0,0.1C39.2,171.6,41.4,170.3,40.6,168.9z"/>
				</g>
			</g>
			<g>
				<g>
					<path d="M92.5,133.8c-2-2.1-4.1-4.2-6.1-6.4c-0.8-0.8-2.6,0-2.1,1.2c1.2,3-1.4,6.7-4.1,8.3c-1.7,0.9-4.7,0.8-6.3-0.3
						c-0.9-0.6-1.7-1.8-2.5-2.6c-0.8-0.9-2.5,0-2.1,1.2c1.5,4.1-5.1,10.9-9.2,9.1c-1.2-0.6-2.6,0.9-1.5,2c1.8,1.9,3.6,3.7,5.4,5.6
						c0.8,0.8,2.6,0,2.1-1.2c-1.3-3.2,1.1-5.9,3.6-7.7c3.3-2.3,5.8-1.4,8.1,1c0.8,0.8,2.1,0.2,2.1-0.9c0.1-2.4,3-5.9,5.1-7.1
						c4.2-2.4,6,0.7,8.2,3c0.4,0.4,1.1,0.5,1.5,0.2c0.9-0.7,1.9-1.4,2.8-2.1c1.1-0.8,0.5-2.6-1-2.3c-1.4-0.4-2.8-0.7-4.2-1.1
						c-1.3-1-2.5,1.2-1.3,2.2c2,1.5,3.6,1.8,6.1,1.4c-0.3-0.8-0.6-1.5-1-2.3c-2,1.5-0.9,2.4-2.8,0.8c-0.7-0.6-1.2-1.3-2-1.9
						c-2-1.5-4.4-1.9-6.7-0.8c-3.5,1.8-7.3,6.1-7.4,10c0.7-0.3,1.4-0.6,2.1-0.9c-3.1-3.3-6.6-5.3-10.7-2c-3.5,2.8-7.2,6.3-5.2,11.1
						c0.7-0.4,1.4-0.8,2.1-1.2c-1.8-1.9-3.6-3.7-5.4-5.6c-0.5,0.7-1,1.3-1.5,2c6.3,2.8,15.4-5.3,12.9-11.9c-0.7,0.4-1.4,0.8-2.1,1.2
						c3.4,3.5,6.9,7.2,11.8,3.5c3.6-2.7,7.4-6.5,5.4-11.3c-0.7,0.4-1.4,0.8-2.1,1.2c2,2.1,4.1,4.2,6.1,6.4
						C91.8,136.7,93.6,134.9,92.5,133.8z"/>
				</g>
			</g>
			<g>
				<g>
					<path d="M171.7,38.5c1.8,1.9,3.6,3.7,5.4,5.6c1,1.1,2.6-0.3,2-1.5c-1-1.9-0.2-3.6,1.2-5c0.9-0.9,2-1.6,2.1-2.9
						c0-1.1-1.4-1.6-2.1-0.9c-2,1.9-3.9,4.4-6.9,2.8c-1.4-0.8-2.7,1.4-1.3,2.2c2.2,1.2,4.9,1.2,7-0.4c1.1-0.8,2-1.9,3-2.8
						c-0.7-0.3-1.4-0.6-2.1-0.9c0,0.1,0,0.3,0,0.4c0.1-0.3,0.2-0.6,0.4-0.9c-1,0.9-2.1,1.8-2.9,2.9c-1.5,2-1.5,4.5-0.4,6.7
						c0.7-0.5,1.3-1,2-1.5c-1.8-1.9-3.6-3.7-5.4-5.6C172.3,35.6,170.6,37.3,171.7,38.5z"/>
				</g>
			</g>
			<g>
				<g>
					<path d="M50.2,143.7c-2.7,2.6-4.9,4.8-7,7.8c-0.3,0.4-0.2,1.1,0.2,1.5c3.2,3.3-1.2,6.9-3.3,8.6c-2,1.7-3.5,1.5-4.8,3.9
						c-0.3,0.5-0.2,1.1,0.2,1.5c1,1.1,2.1,2.2,3.1,3.3c0.4,0.4,1,0.4,1.5,0.2c0,0,0,0,0,0c0.4-0.2,0.8-0.9,0.6-1.4
						c-1.8-4.7,6-11.6,9.9-8.6c1.2,1,2.9-0.6,1.8-1.8c-0.6-0.6-1.2-1.2-1.8-1.8c-1.9-2-2.3-1.9-2.3-5c0-3.1-0.1-2.5,1.7-4.3
						c1.8-1.8,3.6-4.2,6.9-2.8c1.2,0.6,2.6-0.9,1.5-2c-1.4-1.4-2.7-2.8-4.1-4.3c-0.6-0.6-1.5-0.4-2,0.3c-1.1,1.5-1.4,3.8-2.4,5.1
						c-1,1.3,1.2,2.5,2.2,1.3c1.2-1.6,1.2-3.6,2.4-5.1c-0.7,0.1-1.3,0.2-2,0.3c1.4,1.4,2.7,2.8,4.1,4.3c0.5-0.7,1-1.3,1.5-2
						c-4.9-2.2-10,1.7-12.6,6c-3,5,1.9,8.7,5,11.9c0.6-0.6,1.2-1.2,1.8-1.8c-4.8-3.7-8.5-0.5-12,3.1c-1.3,1.3-3.4,3.7-2.6,5.7
						c0,0.3,0.1,0.6,0.1,1c0.8-0.1,1.6-0.1,2.4-0.2c0-0.1-1-1-1.1-1.1c-0.1-0.2-1.5-1.3-1.5-1.6c0-0.6,0.6,0.2,1.3-0.2
						c3.2-1.7,8.1-5.7,8.2-9.7c0-1.8-1.2-2.6-1.5-4.1c-0.2-0.9,0.1,0.7,0.1,0.6c0.4-0.8,1.1-1.6,1.7-2.3c1.4-1.6,3.1-3.1,4.6-4.6
						C53.1,144.4,51.3,142.6,50.2,143.7z"/>
				</g>
			</g>
			<g>
				<g>
					<path d="M67.3,124.5c2.3-2.2,5.1-6.2,8.6-4.4c1.2,0.6,2.5-0.9,1.5-2c-1.6-1.6-3.2-3.3-4.8-4.9c-0.6-0.6-1.5-0.4-2,0.3
						c-1.3,1.8,0.1,3.6-1.6,5.6c-0.6,0.7-1.4,1.3-2,2c-1.9,1.8-3.9,2.9-5.5,5c-0.3,0.5-0.2,1.1,0.2,1.5c0.9,0.9,1.8,1.9,2.7,2.8
						c1.1,1.1,2.5-0.3,2-1.5C65.8,127.3,66.1,125.8,67.3,124.5c1.1-1.2-0.7-3-1.8-1.8c-1.9,2.2-2.3,4.7-1.1,7.4c0.7-0.5,1.3-1,2-1.5
						c-0.9-0.9-1.8-1.9-2.7-2.8c0.1,0.5,0.1,1,0.2,1.5c1.4-1.9,4.1-3.6,5.9-5.4c0.7-0.7,1.5-1.3,2-2.1c0.6-0.9,0.9-1.8,1-2.9
						c0-0.6-0.3-1.7,0.1-2.2c-0.7,0.1-1.3,0.2-2,0.3c1.6,1.6,3.2,3.3,4.8,4.9c0.5-0.7,1-1.3,1.5-2c-5.1-2.6-8.3,1.6-11.7,4.8
						C64.3,123.9,66.1,125.6,67.3,124.5z"/>
				</g>
			</g>
			<g>
				<g>
					<path d="M124.3,107.9c-2.9,2.8-5.5,5.9-9.9,3.3c-2.1-1.2-3.9-4.1-5.6-5.8c-0.8-0.8-2.6,0-2.1,1.2c1.2,3-1.4,6.7-4.1,8.3
						c-1.5,0.9-4.7,0.8-6.2-0.1c-0.9-0.6-1.7-1.8-2.5-2.6c-2.4-2.5-4.2-3.5-4.2-7c0-2.9,0-2.6,1.7-4.3c1.8-1.8,3.6-4.2,6.9-2.8
						c1.2,0.6,2.6-0.9,1.5-2c-2.3-2.4-7.2-5.9-7.5-9.5c-0.1-1.3-1.6-1.7-2.3-0.6c-0.4,0.5-0.7,1-1.1,1.5c-0.3,0.5-0.2,1.1,0.2,1.5
						c2.3,2.4,4.5,4.7,1.9,8.4c-1.9,2.7-5.5,5.6-8.7,3.5c-1.2-0.8-2.5,1-1.5,2c1.9,2,4.5,4,6,6.3c1.8,2.6,1.2,4.9-0.5,7
						c-1.7,2-4.6,4.7-7.6,3.4c-1.2-0.6-2.6,0.9-1.5,2c1.8,1.9,3.6,3.7,5.4,5.6c0.8,0.8,2.6,0,2.1-1.2c-2-4.9,5.4-10.8,10-8.5
						c2.1,1,4,4.2,5.7,5.9c0.9,0.9,2.4,0,2.1-1.2c-1.3-5,6.4-10.6,10.5-7.7c2,1.4,3.7,3.8,5.4,5.6c0.5,0.5,1.2,0.4,1.8,0
						c4.2-3.2,8.3-6.5,12.4-9.8c0.5-0.4,0.4-1.3,0-1.8c-1.7-1.8-3.4-3.6-5.2-5.4c-0.9-1-2.3,0.1-2.1,1.2
						C125,105.4,124.6,106.6,124.3,107.9c-1,1.3,0.8,3,1.8,1.8c1.6-2,2-3.7,1.6-6.2c-0.7,0.4-1.4,0.8-2.1,1.2
						c1.7,1.8,3.4,3.6,5.2,5.4c0-0.6,0-1.2,0-1.8c-4.1,3.3-8.2,6.6-12.4,9.8c0.6,0,1.2,0,1.8,0c-3-3.1-6.7-8.9-11.7-7.7
						c-4.8,1.2-9.6,7.5-8.4,12.2c0.7-0.4,1.4-0.8,2.1-1.2c-3.1-3.2-7-9.4-12.3-7.4c-4.6,1.7-9.5,7.6-7.5,12.5
						c0.7-0.4,1.4-0.8,2.1-1.2c-1.8-1.9-3.6-3.7-5.4-5.6c-0.5,0.7-1,1.3-1.5,2c4.9,2.2,11.9-2.4,13.3-7.6c1.4-5.2-5.1-9.7-8.3-13
						c-0.5,0.7-1,1.3-1.5,2c4.8,3.2,9-0.6,12.2-4.2c1.5-1.7,2.4-3.7,1.8-6.1c-0.3-1.2-1-2.1-1.7-3c-0.3-0.4-0.8-0.7-1.1-1.1
						c-1.3-1.9-1,0,0-1.4c-0.8-0.2-1.6-0.4-2.3-0.6c0.4,4.7,5.1,8,8.2,11.2c0.5-0.7,1-1.3,1.5-2c-4.9-2.2-8.6,1.2-11.7,4.8
						c-4,4.8-0.3,8.6,3.2,12.1c3.2,3.3,6.9,8.2,11.9,4.8c3.9-2.6,8.1-6.9,6.1-11.8c-0.7,0.4-1.4,0.8-2.1,1.2
						c2.4,2.5,5.3,6.9,8.7,7.9c4.4,1.4,7.5-2.7,10.3-5.4C127.2,108.6,125.5,106.8,124.3,107.9z"/>
				</g>
			</g>
			<g>
				<g>
					<path d="M103.6,77.7c-1.1-1.2-2.3-2.4-3.4-3.6c-0.6-0.6-1.5-0.4-2,0.3c-0.4,0.6-0.9,1.2-1.2,1.9c-0.3,0.8-0.5,1.4-1.1,2.1
						c-0.6,0.6-1.2,1.1-1.7,1.8c-0.8,1.2,1,2.5,2,1.5c1.7-1.6,3.4-3.3,5.9-2c1.4,0.7,2.7-1.4,1.3-2.2c-1.9-1-4-1.1-5.9-0.1
						c-1.2,0.6-2.1,1.7-3.1,2.6c0.7,0.5,1.3,1,2,1.5c0.5-0.7,1.2-1.2,1.7-1.8c1-1.2,1.4-2.7,2.3-4c-0.7,0.1-1.3,0.2-2,0.3
						c1.1,1.2,2.3,2.4,3.4,3.6C102.9,80.7,104.7,78.9,103.6,77.7z"/>
				</g>
			</g>
			<g>
				<g>
					<path d="M67.7,156.2c0.3-0.2,0.6-0.3,1-0.5c0.7-0.4,0.8-1.4,0.3-2c-0.5-0.5-1.1-1.1-1.6-1.6c-1-1-2.6,0.3-2,1.5
						c0.3,0.5,0.4,1,0.5,1.5c0.1,0.7,0.5,1.3,1.3,1.3c0.6,0,1.3-0.6,1.3-1.3c-0.1-1-0.3-1.9-0.8-2.8c-0.7,0.5-1.3,1-2,1.5
						c0.5,0.5,1.1,1.1,1.6,1.6c0.1-0.7,0.2-1.3,0.3-2c-0.3,0.2-0.6,0.3-1,0.5c-0.6,0.3-0.8,1.1-0.4,1.7
						C66.4,156.4,67.1,156.5,67.7,156.2z"/>
				</g>
			</g>
			<g>
				<g>
					<path d="M101.8,129.9c-1,1-2.1,2-3.1,3c-1,1,0.3,2.8,1.5,2c2.4-1.8,4.8-3.6,7.2-5.3c0.6-0.5,0.9-1.3,0.3-2c-1-1-2-2.1-3-3.1
						c-0.8-0.9-2.5,0-2.1,1.2C103.2,127.2,102.9,128.7,101.8,129.9c-1.1,1.2,0.7,2.9,1.8,1.8c1.7-1.8,2.3-4.3,1.4-6.7
						c-0.7,0.4-1.4,0.8-2.1,1.2c1,1,2,2.1,3,3.1c0.1-0.7,0.2-1.3,0.3-2c-2.4,1.8-4.8,3.6-7.2,5.3c0.5,0.7,1,1.3,1.5,2
						c1-1,2.1-2,3.1-3C104.7,130.6,103,128.8,101.8,129.9z"/>
				</g>
			</g>
			<g>
				<g>
					<path d="M168.7,54.3c-2-2.1-4.7-4.2-6.4-6.6c-1.4-2-1.4-5,0-6.9c1.5-2.1,5.1-4.9,7.8-3.7c1.2,0.6,2.6-0.9,1.5-2
						c-2.4-2.5-5.1-4.9-7.1-7.7c-0.3-0.4-0.9-0.7-1.4-0.6c-0.2,0.1-0.4,0.1-0.6,0.2c-0.9,0.3-1.2,1.4-0.6,2.1c1.9,2,2.2,5.4,0.6,7.6
						c-1.8,2.5-5.3,4.9-8.5,3.1c-2.2-1.2-4.2-4.4-6-6.2c-0.4-0.4-1-0.4-1.5-0.2c-0.1,0-0.2,0.1-0.3,0.1c-0.5,0.2-0.7,0.9-0.6,1.4
						c1,3.1-1.8,6.1-4,7.7c-3.5,2.5-5.7,0.9-8-1.4c-0.4-0.4-1-0.5-1.5-0.2c-0.5,0.3-1,0.6-1.4,0.8c-0.9,0.5-0.8,2.1,0.3,2.3
						c3.3,0.6,6.8,5,8.8,7.5c1.6,2,2.3,4.5,0.5,6.9c-1.7,2.2-4.9,4.9-7.8,4.1c-1.2-0.3-2.1,1.2-1.2,2.1c2.2,2.2,5.3,4.4,2.6,8.4
						c-1.5,2.3-5.6,5.6-8.5,4.3c-1.2-0.6-2.6,0.9-1.5,2c1.8,1.9,3.6,3.7,5.4,5.6c0.8,0.8,2.6,0,2.1-1.2c-1.8-4.6,5.4-11.6,10.1-8.4
						c1.9,1.3,5.8,5,6.7,7c1.3,2.8,0.4,5.3-1.5,7.2c-2.1,2-3.8,4.5-7.7,2.1c-2.3-1.4-4.2-4.4-6-6.3c-0.8-0.8-2.6,0-2.1,1.2
						c1.2,3-1.4,6.7-4.1,8.3c-1.5,0.9-4.7,0.8-6.2-0.1c-0.9-0.6-1.7-1.8-2.5-2.6c-2.4-2.5-4.2-3.5-4.2-7c0-2.9,0-2.6,1.7-4.3
						c1.8-1.8,3.6-4.2,6.9-2.8c1.2,0.6,2.6-0.9,1.5-2c-1.9-1.9-4.3-3.8-5.8-6c-2.9-4.2,2.4-12,7.8-10.5c1.2,0.3,2.1-1.2,1.2-2.1
						c-2.8-2.9-4.6-6.4-1.2-9.7c1-1-0.3-2.7-1.5-2c-1.9,1.2-3.9,2.5-5.8,3.8c-0.7,0.5-0.8,1.4-0.3,2c5.8,6.1-4,14.7-9.5,9
						c-0.6-0.6-1.6-0.4-2,0.3c-0.1,0.3-0.3,0.5-0.4,0.8c-0.3,0.6-0.2,1.4,0.4,1.7c2.9,1.4,6,5.1,8,7.6c3.5,4.6-2.7,12.7-8,10.5
						c-1.2-0.5-2,1.3-1.2,2.1c0.6,0.6,1.2,1.3,1.8,1.9c1.9,2,2.4,2,2.4,5.1c0,3.1,0.1,2.5-1.7,4.3c-1.8,1.8-3.6,4.2-6.9,2.8
						c-1.2-0.6-2.6,0.9-1.5,2c1.8,1.9,3.6,3.7,5.4,5.6c0.8,0.8,2.6,0,2.1-1.2c-2.1-5.1,5.9-11.2,10.3-8.1c2.5,1.7,4.6,4.8,6.7,7
						c0.9,1,2.3-0.1,2.1-1.2c-0.8-4.8,6.6-10,10.5-7.4c2.1,1.3,3.8,4,5.5,5.8c0.5,0.5,1.3,0.5,1.8,0c3.9-3.8,7-7.9,10.3-12.2
						c0.3-0.4,0.2-1.1-0.2-1.5c-2.2-2.3-3.2-5.2-1-8c2.1-2.6,5.3-5.4,8.6-3.1c0.6,0.4,1.4,0.1,1.7-0.4c0.1-0.2,0.3-0.4,0.4-0.6
						c0.3-0.5,0.2-1.1-0.2-1.5c-1.9-2-3.8-4-5.8-6c-0.8-0.8-2.6,0-2.1,1.2c1.2,3-1.4,6.7-4.1,8.3c-1.5,0.9-4.7,0.8-6.2-0.1
						c-0.9-0.6-1.7-1.8-2.5-2.6c-2.4-2.5-4.2-3.5-4.2-7c0-2.9,0-2.6,1.7-4.3c1.8-1.8,3.6-4.2,6.9-2.8c1.2,0.6,2.6-0.9,1.5-2
						c-1.8-1.9-4.5-3.8-5.8-6c-1.3-2.2-1-5,0.5-6.9c1.8-2.4,5-4.8,8.3-2.8c2.1,1.3,4.9,4.6,6.3,6.6c1.4,2,1.4,5,0,6.9
						c-1.5,2.1-5.1,4.9-7.8,3.7c-1.2-0.6-2.6,0.9-1.5,2c1.8,1.9,3.6,3.7,5.4,5.6c0.8,0.8,2.6,0,2.1-1.2c-1.1-2.8,1.6-7.3,4.5-8.6
						c0.4-0.2,5.2,0,5.5,0.1c0.4,0.2,0.9,1,1.3,1.3c0.9,1,1.8,1.9,2.8,2.9c0.6,0.6,1.6,0.4,2-0.3c0.7-1.2,1.3-2.4,2-3.6
						c0.5-0.9-0.3-2.2-1.4-1.8C171.7,54.8,170.2,54.5,168.7,54.3c-1.2-1-3,0.8-1.8,1.8c2.2,1.7,4.2,2.2,6.9,1.4
						c-0.5-0.6-0.9-1.2-1.4-1.8c-0.6,1.2-1.3,2.4-2,3.6c0.7-0.1,1.3-0.2,2-0.3c-3.2-3.4-7-8.4-12.1-5c-3.9,2.6-8.1,6.9-6.1,11.8
						c0.7-0.4,1.4-0.8,2.1-1.2c-1.8-1.9-3.6-3.7-5.4-5.6c-0.5,0.7-1,1.3-1.5,2c3.1,1.4,5.5,0.9,8-1.3c2.2-2,5.2-4.3,5.4-7.5
						c0.3-4.5-6.2-10.2-9.5-12.7c-4.8-3.6-12.2,1.7-13.9,6.7c-1.7,5.3,4.7,9.7,7.9,13c0.5-0.7,1-1.3,1.5-2
						c-4.9-2.2-8.6,1.2-11.7,4.8c-4,4.8-0.3,8.6,3.2,12.1c3.2,3.3,6.9,8.2,11.9,4.8c3.9-2.6,8.1-6.9,6.1-11.8
						c-0.7,0.4-1.4,0.8-2.1,1.2c1,1,1.9,2,2.9,3c0.6,0.6,1.2,1.3,1.8,1.9c1.5,1.3,0.1,0.7,0.5,0.1c0.6-0.1,1.1-0.3,1.7-0.4
						c-4.9-3.6-11.5,1.2-13.7,6.1c-1.4,3,0,4.8,1.6,7.3c0.2,0.3,1.3,1,1.3,1.3c0-1.1-3.1,2.9-2.9,2.6c-2.1,2.8-4.4,5.3-7,7.8
						c0.6,0,1.2,0,1.8,0c-3-3.1-6.7-8.9-11.7-7.7c-4.6,1.2-9.3,7.1-8.5,11.8c0.7-0.4,1.4-0.8,2.1-1.2c-3.1-3.2-7.6-10.3-12.8-9.2
						c-5,1-10.5,7.8-8.4,12.8c0.7-0.4,1.4-0.8,2.1-1.2c-1.8-1.9-3.6-3.7-5.4-5.6c-0.5,0.7-1,1.3-1.5,2c4.9,2.2,10-1.7,12.6-6
						c3-5-2-8.8-5.1-12.1c-0.4,0.7-0.8,1.4-1.2,2.1c5.2,2.1,13.5-4.3,13-10c-0.3-2.8-2.4-4.6-4.3-6.5c-2-2.1-4-4.9-6.7-6.2
						c0.1,0.6,0.3,1.1,0.4,1.7c0.1-0.3,0.3-0.5,0.4-0.8c-0.7,0.1-1.3,0.2-2,0.3c4.4,4.6,8.1,4,12.4-0.2c4.3-4.2,5-7.8,0.6-12.3
						c-0.1,0.7-0.2,1.3-0.3,2c1.9-1.3,3.8-2.5,5.8-3.8c-0.5-0.7-1-1.3-1.5-2c-5.2,5-3.2,8.7,1.2,13.3c0.4-0.7,0.8-1.4,1.2-2.1
						c-4.9-1.4-12.3,4-12.6,9.2c-0.3,4.6,5.3,8.5,8.2,11.5c0.5-0.7,1-1.3,1.5-2c-4.9-2.2-8.6,1.2-11.7,4.8c-4,4.8-0.3,8.6,3.2,12.1
						c3.2,3.3,6.9,8.2,11.9,4.8c3.9-2.6,8.1-6.9,6.1-11.8c-0.7,0.4-1.4,0.8-2.1,1.2c3.3,3.4,7.6,10.2,13.3,7.6
						c4.9-2.3,9.8-8.6,6-13.7c-2.5-3.3-7.7-9.9-12.3-9.5c-5.3,0.5-11.1,7.8-9.1,12.9c0.7-0.4,1.4-0.8,2.1-1.2
						c-1.8-1.9-3.6-3.7-5.4-5.6c-0.5,0.7-1,1.3-1.5,2c4.8,2.2,8.6-1.1,11.7-4.8c3.8-4.6,0.6-8.2-2.8-11.8c-0.4,0.7-0.8,1.4-1.2,2.1
						c5.3,1.5,14-5.2,12.5-11.2c-0.7-2.6-3.4-4.7-5.2-6.6c-2.2-2.3-4.1-5-7.4-5.6c0.1,0.8,0.2,1.5,0.3,2.3c1.2-0.7-0.5-0.8,1.2,0.3
						c0.4,0.3,0.8,0.8,1.2,1.1c1.1,0.8,2.2,1.4,3.7,1.4c2.7,0.1,4.5-1.6,6.3-3.4c1.6-1.6,4.5-3.7,4.2-6.3c0-0.3,0.2-1.5-0.1-1.7
						c-0.7,0-1.4,0-2.1,0c0.2,0.2,0.3,0.3,0.5,0.5c0.1,0.9,2.8,2.9,3.4,3.5c4,4.2,7.7,5,12.1,0.8c4.6-4.4,6-8.1,1.3-13
						c-0.2,0.7-0.4,1.4-0.6,2.1c0.1,0,5.9,6.6,6.7,7.4c0.5-0.7,1-1.3,1.5-2c-3.1-1.4-5.5-0.9-8,1.3c-2.1,1.8-4.9,4-5.3,6.9
						c-0.9,5.1,5.7,9.6,8.9,12.9C168.1,57.2,169.8,55.4,168.7,54.3z"/>
				</g>
			</g>
			<g>
				<g>
					<path d="M122.6,56.2c1.7,1.8,3.6,3.3,5.3,5c2.1,2,3.4,4.5,6.6,4.4c4.7-0.2,11.2-7.3,9.8-12c-0.7-2.3-3.2-4.2-4.8-5.9
						c-1.8-1.9-3.7-4.6-6.2-5.5c-3.3-1.2-7.5,2.4-9.8,4.6c-2.8,2.6-3.5,6.1-1.1,9.2c1,1.3,3.1,0,2.2-1.3c-3-4,1.7-7.8,5-9.1
						c3.1-1.2,4.1-0.5,6,1.5c2.8,2.9,8.4,6.6,5.2,11.2c-0.8,1.2-2.4,2.5-3.5,3.4c-2.9,2.3-4.2,1.1-6.2-1c-2.1-2.2-4.5-4.1-6.6-6.3
						C123.2,53.3,121.5,55,122.6,56.2z"/>
				</g>
			</g>
			<g>
				<g>
					<path d="M156.3,64.4c-3.3-3.5-8.1-10.7-13.7-7.4c-4.8,2.8-9.6,8.8-5.1,13.9c3.2,3.6,8.5,11.3,14.2,8.4c2.2-1.1,4.5-3.5,6-5.4
						c2.7-3.5,1.1-6.2-1.2-9.2c-0.9-1.3-3.1,0-2.2,1.3c0.3,0.5,1.7,1.6,1.9,2.2c0.1,0.2-0.7,4.4-0.8,4.5c-0.2,0.3-0.6,0.5-0.8,0.7
						c-1.2,1.4-2.8,3-4.6,3.7c-3.7,1.3-8.5-4.9-10.6-7.6c-1.8-2.4-1.5-4.5,0.4-6.6c2-2.2,4.4-4.8,7.7-3.6c1.1,0.4,2.4,2.3,3.2,3.1
						c1.2,1.3,2.4,2.5,3.7,3.8C155.6,67.3,157.4,65.5,156.3,64.4z"/>
				</g>
			</g>
			<g>
				<g>
					<path d="M148.4,59.8c2.5,2.6,6,2.3,8.6,0.1c1.9-1.6,4.5-3.7,5.5-6.1c1.2-3.1-0.3-5.5-2.3-7.6c-2-2.1-4-4.5-6.2-6.4
						c-2.7-2.4-6-2.4-8.8-0.2c-1.8,1.4-4.5,3.7-5.4,5.8c-1.3,3-0.1,5.5,1.9,7.6C143.8,55.4,145.9,57.8,148.4,59.8
						c1.2,1,3-0.8,1.8-1.8c-2.5-2-5.4-4.7-7.3-7.4c-2.3-3.1-0.3-5.1,1.8-7.1c2.2-2.1,4.4-4.5,7.6-2.1c2.3,1.8,5.4,4.9,7,7.3
						c2,3,0.4,5.1-1.8,7.1c-1.9,1.8-4.5,5-7.3,2.1C149,56.9,147.3,58.6,148.4,59.8z"/>
				</g>
			</g>
			<g>
				<g>
					<path d="M150.9,58.8c-0.6-0.6-1.2-1.3-2-1.8c-1.2-0.8-2.5,1-1.5,2c0.6,0.6,1.2,1.3,2,1.8c0.6,0.4,1.4,0.1,1.7-0.4
						c0.4-0.6,0.1-1.3-0.4-1.7c-0.6-0.4-1-0.9-1.5-1.4c-0.5,0.7-1,1.3-1.5,2c0.6,0.4,1,0.9,1.5,1.4C150.3,61.7,152,60,150.9,58.8z"
						/>
				</g>
			</g>
			<g>
				<g>
					<path d="M159.5,54.4c-3,2.9-8.2,6.7-5.2,11.5c2,3.1,5.3,5.7,7.8,8.4c0.6,0.6,1.5,0.4,2-0.3c3-4.5,5.8-9,8.5-13.6
						c0.3-0.5,0.2-1.1-0.2-1.5C168.8,55.1,164.9,50.2,159.5,54.4c-1.3,1,0.5,2.8,1.8,1.8c3.7-2.9,7.1,2.1,9.4,4.4
						c-0.1-0.5-0.1-1-0.2-1.5c-2.7,4.6-5.5,9.2-8.5,13.6c0.7-0.1,1.3-0.2,2-0.3c-2.1-2.2-4.3-4.4-6.3-6.7c-3.5-4,0.9-6.9,3.7-9.6
						C162.4,55.1,160.7,53.3,159.5,54.4z"/>
				</g>
			</g>
			<g>
				<g>
					<path d="M154.3,65.9c0.5,0.9,1.3,1.6,2,2.4c1,1,2.7-0.3,2-1.5c-0.5-0.9-1.3-1.6-2-2.4c-1.1-1.2-2.9,0.6-1.8,1.8
						c0.6,0.6,1.2,1.2,1.6,1.9c0.7-0.5,1.3-1,2-1.5c-0.6-0.6-1.2-1.2-1.6-1.9C155.7,63.3,153.5,64.5,154.3,65.9z"/>
				</g>
			</g>
			<g>
				<g>
					<path d="M142.8,45.3c3.1-3,7.4-5.9,5.5-10.9c-0.3-0.8-1.1-1.1-1.8-0.7c-4.8,2.3-9.5,4.8-14.1,7.5c-0.7,0.4-0.8,1.4-0.3,2
						C135.1,46.3,138.6,48.6,142.8,45.3c1.2-1-0.5-2.8-1.8-1.8c-2.9,2.4-5.2-0.2-7.2-2.2c-0.1,0.7-0.2,1.3-0.3,2
						c4.6-2.6,9.3-5.1,14.1-7.5c-0.6-0.2-1.2-0.5-1.8-0.7c1.4,3.7-2.5,6.2-4.8,8.4C139.8,44.6,141.6,46.4,142.8,45.3z"/>
				</g>
			</g>
			<g>
				<g>
					<path d="M155,73.1c-1.9,1.8-4.6,3.7-5.6,6.2c-1.4,3.6,0.9,6.1,3.2,8.6c0.6,0.6,1.5,0.4,2-0.3c3.1-4.3,6.2-8.6,9.1-13
						c0.3-0.4,0.2-1.2-0.2-1.5C160.8,70.9,157.6,70.9,155,73.1c-1.2,1,0.5,2.8,1.8,1.8c1.5-1.3,3.5-1.3,5,0c-0.1-0.5-0.1-1-0.2-1.5
						c-3,4.4-6,8.7-9.1,13c0.7-0.1,1.3-0.2,2-0.3c-2-2.1-4.3-4.4-1.7-7.3c1.3-1.4,2.7-2.6,4-3.9C157.9,73.7,156.1,72,155,73.1z"/>
				</g>
			</g>
			<g>
				<g>
					<path d="M161.1,41.8c1.8-1.7,4.3-3.5,5.4-5.8c1.6-3.5-0.4-6.1-2.7-8.5c-0.3-0.3-0.8-0.5-1.2-0.3c-5.5,1.7-10.7,4-15.9,6.4
						c-0.7,0.4-0.8,1.4-0.3,2C150.3,39.5,155.1,46.6,161.1,41.8c1.3-1-0.5-2.8-1.8-1.8c-4,3.2-8.6-3.7-11.1-6.3
						c-0.1,0.7-0.2,1.3-0.3,2c3.3-1.5,6.6-3,10-4.3c1.3-0.5,2.9-1.4,4.3-1.5c0.3,0-0.5-0.5,0.4-0.1c0.3,0.1,0.8,0.7,0.9,1
						c2.9,3.8-1.7,6.8-4.2,9.3C158.2,41.1,160,42.9,161.1,41.8z"/>
				</g>
			</g>
			<g>
				<g>
					<path d="M179.7,43.5c-2.3-3.1-6.6-8.8-10.6-9.4c-4.2-0.6-10.7,5.3-11.2,9.4c-0.5,4.6,5.7,9.4,8.8,12.3c1.7,1.6,4.8,3,7.1,1.6
						c1.5-0.9,2.1-3.1,2.8-4.6c1.3-2.6,2.4-5.3,3.5-8C180.3,44.3,180.1,43.8,179.7,43.5c0-0.1-0.1-0.2-0.2-0.3
						c-1.1-1.2-2.9,0.6-1.8,1.8c-0.2-0.2-3.8,8.2-4.7,9.2c-2,2.3-4,0.5-5.5-1.1c-1.4-1.4-2.7-2.8-4.1-4.2c-1.8-1.9-2.6-2.2-2.2-5
						c0.4-2.7,1.2-3.2,3.2-5.1c2.1-1.9,4.3-2.5,6.7-0.6c2.3,1.8,4.6,4.3,6.4,6.7C178.5,46.1,180.7,44.8,179.7,43.5z"/>
				</g>
			</g>
			<g>
				<g>
					<path d="M170,36.9c2.6,2.1,5.2,3.8,8.5,1.7c2.1-1.3,4-3.1,3.7-5.6c-1.1-10-12-8.1-19-6.1c-0.8,0.2-1.2,1.1-0.7,1.8
						C164.3,31.9,167.5,34.4,170,36.9c1.1,1.2,2.9-0.6,1.8-1.8c-2.3-2.4-5.4-4.8-7.1-7.7c-0.2,0.6-0.5,1.2-0.7,1.8
						c4.4-1.2,12.9-3.9,15.3,1.8c1,2.4,0.9,2.9-0.9,4.4c-2.6,2.1-4.3,1.4-6.5-0.4C170.5,34.2,168.7,35.9,170,36.9z"/>
				</g>
			</g>
			<g>
				<g>
					<path d="M170,36.9c0.6,0.6,1.2,1.3,2,1.8c1.2,0.8,2.5-1,1.5-2c-0.6-0.6-1.2-1.3-2-1.8c-0.6-0.4-1.4-0.1-1.7,0.4
						c-0.4,0.6-0.1,1.3,0.4,1.7c0.6,0.4,1,0.9,1.5,1.4c0.5-0.7,1-1.3,1.5-2c-0.6-0.4-1-0.9-1.5-1.4C170.6,34,168.9,35.8,170,36.9z"
						/>
				</g>
			</g>
			<g>
				<g>
					<path d="M177.1,44.1c0.3,0.4,0.7,0.7,1,1.1c0.7,0.7,1.8,0.3,2.1-0.6c1.1-3.1,1.9-6.3,2.1-9.5c0.1-1.1-1.4-1.6-2.1-0.9
						c-1,1-2.1,1.9-2.9,3c-1.4,2-1.4,4.5-0.3,6.7c0.7,1.4,2.9,0.2,2.2-1.3c-1.5-2.9,1-4.8,2.9-6.6c-0.7-0.3-1.4-0.6-2.1-0.9
						c-0.1,3.1-1,6-2,8.9c0.7-0.2,1.4-0.4,2.1-0.6c-0.3-0.4-0.7-0.7-1-1.1C177.7,41.1,175.9,42.9,177.1,44.1z"/>
				</g>
			</g>
			<g>
				<g>
					<path d="M102.9,80.4c2.4,2.5,4.5,5,8.3,3.7c2.6-0.9,6.3-4.5,7.5-7c1.8-3.5-0.2-6.3-2.6-8.7c-2.4-2.4-4.7-5.8-7.8-7.3
						c-0.6-0.3-1.3-0.2-1.7,0.4c-2.6,4.4-5.6,8.7-8.5,13c-0.3,0.5-0.2,1.1,0.2,1.5C99.8,77.5,101.2,79.1,102.9,80.4
						c1.3,1,3-0.8,1.8-1.8c-1.7-1.3-3.1-2.9-4.5-4.4c0.1,0.5,0.1,1,0.2,1.5c2.9-4.3,5.8-8.5,8.5-13c-0.6,0.1-1.1,0.3-1.7,0.4
						c1.9,0.9,3.2,2.7,4.7,4.2c1.3,1.3,3.6,2.9,4.4,4.6c0.9,1.9-0.1,4.3-1.3,5.9c-0.7,0.9-1.7,1.8-2.6,2.5c-1.6,1.2-3.6,1.7-5.3,0.6
						c-0.8-0.5-1.6-1.6-2.2-2.3C103.5,77.4,101.8,79.2,102.9,80.4z"/>
				</g>
			</g>
			<g>
				<g>
					<path d="M124.8,76.9c-2.5-2.6-6-2.3-8.6-0.1c-1.9,1.6-4.5,3.7-5.5,6.1c-1.2,3.1,0.3,5.5,2.3,7.6c2,2.1,4,4.5,6.2,6.4
						c2.7,2.4,6,2.4,8.8,0.2c1.9-1.5,4.6-3.8,5.5-6.1C135.6,85.8,128.5,79.8,124.8,76.9c-1.2-1-3,0.8-1.8,1.8c2.5,2,5.4,4.7,7.1,7.4
						c0.2,0.3,0.7,0.6,0.9,0.9c0.1,0.2-0.7,4.4-0.8,4.5c-0.4,0.6-1.2,1.2-1.7,1.7c-2.2,2.1-4.4,4.5-7.6,2.1c-2.3-1.8-5.4-4.9-7-7.3
						c-2-3-0.4-5.1,1.8-7.1c1.9-1.8,4.5-5,7.3-2.1C124.2,79.8,125.9,78,124.8,76.9z"/>
				</g>
			</g>
			<g>
				<g>
					<path d="M131.6,62c-1.7-1.7-3.5-4.6-6-5.2c-3.5-0.8-5.7,1.7-7.9,3.9c-2.3,2.2-4.4,4.6-3.4,8c0.8,2.6,3.7,4.8,5.5,6.7
						c1.6,1.7,3.4,4.1,5.7,4.9c3.4,1.1,5.8-1,8-3.1c2.2-2.1,4.6-4.1,4.2-7.5C137.3,66.2,134,64,131.6,62c-1.2-1-3,0.7-1.8,1.8
						c1.4,1.2,3.1,2.2,4.1,3.8c1,1.5,0.9,4.1-0.1,5.7c-0.5,0.8-1.5,1.4-2.1,2c-2.2,2.1-4.4,3.3-7.3,1.2c-1.2-0.9-2.2-2.1-3.2-3.2
						c-1.1-1.2-2.7-2.3-3.6-3.7c-0.9-1.4-0.8-4.1,0.1-5.6c0.4-0.7,1.3-1.2,1.8-1.8c1.8-1.8,3.9-4,6.4-2.2c1.4,0.9,2.5,2.6,3.7,3.8
						C131,64.9,132.7,63.1,131.6,62z"/>
				</g>
			</g>
			<g>
				<g>
					<path d="M125.5,59.2c0.9,0.9,1.8,1.8,2.6,2.7c1.1,1.1,2.1,2.3,3.5,3c1.2,0.6,2.5-0.9,1.5-2c-0.9-0.9-1.8-1.8-2.6-2.7
						c-1.1-1.1-2.1-2.3-3.5-3c-1.4-0.7-2.7,1.4-1.3,2.2c1.3,0.6,2.2,1.8,3.1,2.8c0.8,0.9,1.7,1.7,2.5,2.6c0.5-0.7,1-1.3,1.5-2
						c-1.3-0.6-2.2-1.8-3.1-2.8c-0.8-0.9-1.7-1.7-2.5-2.6C126.2,56.3,124.4,58.1,125.5,59.2z"/>
				</g>
			</g>
			<g>
				<g>
					<path d="M122.3,77.8c0.6,0.6,1.2,1.3,2,1.8c1.2,0.8,2.5-1,1.5-2c-0.6-0.6-1.2-1.3-2-1.8c-0.6-0.4-1.4-0.1-1.7,0.4
						c-0.4,0.6-0.1,1.3,0.4,1.7c0.6,0.4,1,0.9,1.5,1.4c0.5-0.7,1-1.3,1.5-2c-0.6-0.4-1-0.9-1.5-1.4
						C122.9,74.9,121.2,76.7,122.3,77.8z"/>
				</g>
			</g>
			<g>
				<g>
					<path d="M131.2,87.1c3.4,3.5,8.1,10.8,13.8,7.3c4.7-2.9,9.5-8.8,5-13.8c-3.2-3.6-8.5-11.3-14.2-8.4c-2.2,1.1-4.5,3.5-6,5.4
						c-2.7,3.5-1.1,6.2,1.2,9.2c0.9,1.3,3.1,0,2.2-1.3c-0.3-0.5-1.7-1.6-1.9-2.2c-0.1-0.2,0.7-4.4,0.8-4.5c0.2-0.3,0.6-0.5,0.8-0.7
						c1.2-1.4,2.8-3,4.6-3.7c3.7-1.3,8.5,4.9,10.6,7.6c1.8,2.4,1.5,4.5-0.4,6.6c-1.3,1.5-3.7,4.2-5.9,4.2c-3.2-0.1-6.7-5.4-8.7-7.5
						C131.9,84.2,130.1,85.9,131.2,87.1z"/>
				</g>
			</g>
			<g>
				<g>
					<path d="M133.2,85.6c-0.5-0.9-1.3-1.6-2-2.4c-1-1-2.7,0.3-2,1.5c0.5,0.9,1.3,1.6,2,2.4c1.1,1.2,2.9-0.6,1.8-1.8
						c-0.6-0.6-1.2-1.2-1.6-1.9c-0.7,0.5-1.3,1-2,1.5c0.6,0.6,1.2,1.2,1.6,1.9C131.8,88.2,134,87,133.2,85.6z"/>
				</g>
			</g>
			<g>
				<g>
					<path d="M117.6,64.1c1.8-1.7,4.2-3.5,5.4-5.7c1.7-3.5-0.3-6.2-2.7-8.7c-0.4-0.4-1.1-0.5-1.5-0.2c-2.9,2-5.8,4-8.4,6.3
						c-1.7,1.5-2.3,2.9-3.4,4.9c-0.3,0.5-0.2,1.1,0.2,1.5c1.2,1.2,2.3,2.6,4,3.2C113.5,66.3,115.8,65.6,117.6,64.1
						c1.2-1-0.5-2.8-1.8-1.8c-2.7,2.3-4.9,0.1-6.8-1.8c0.1,0.5,0.1,1,0.2,1.5c0.9-1.8,1.4-3,3-4.3c2.4-2.2,5.2-4.1,7.9-6
						c-0.5-0.1-1-0.1-1.5-0.2c2,2.1,3.7,4.4,1.2,7.1c-1.2,1.3-2.6,2.5-3.9,3.7C114.7,63.4,116.5,65.2,117.6,64.1z"/>
				</g>
			</g>
			<g>
				<g>
					<path d="M129.8,91.9c-2.6,2.5-7.5,5.9-5.7,10.2c1.3,3.1,4.4,5.5,6.7,7.9c0.5,0.5,1.3,0.4,1.8,0c4-3.3,8-6.7,11.8-10.2
						c0.5-0.5,0.5-1.3,0-1.8C140.4,94,135.9,87.2,129.8,91.9c-1.3,1,0.5,2.8,1.8,1.8c4-3.2,8.5,3.6,11,6.1c0-0.6,0-1.2,0-1.8
						c-3.8,3.6-7.8,6.9-11.8,10.2c0.6,0,1.2,0,1.8,0c-1.8-1.8-3.8-3.6-5.3-5.7c-1.3-1.8-1.8-2.3,0.2-4.9c0.3-0.4,0.7-0.7,1.1-1
						c1-1,2-2,3.1-3C132.7,92.6,131,90.8,129.8,91.9z"/>
				</g>
			</g>
			<g>
				<g>
					<path d="M80.4,102.4c1.9,2,4.9,2.7,7.5,1.4c1.9-1,3.6-3,5.1-4.5c1.9-1.9,2.9-4.2,2.1-6.9c-0.7-2-2.6-3.5-4-5
						c-0.6-0.6-1.5-0.4-2,0.3c-3,4.3-6.1,8.6-9.2,13c-0.3,0.4-0.2,1.2,0.2,1.5C80.2,102.2,80.3,102.3,80.4,102.4
						c1.2,1.1,2.9-0.7,1.8-1.8c-0.1-0.1-0.2-0.2-0.3-0.3c0.1,0.5,0.1,1,0.2,1.5c3.1-4.3,6.1-8.6,9.2-13c-0.7,0.1-1.3,0.2-2,0.3
						c2.4,2.5,5.2,5.1,1.9,8.4c-2.3,2.4-5.7,6.5-9,3.1C81,99.4,79.3,101.2,80.4,102.4z"/>
				</g>
			</g>
			<g>
				<g>
					<path d="M100.7,96.9c-2.5-2.6-6-2.3-8.6-0.1c-1.9,1.6-4.5,3.7-5.5,6.1c-1.2,3.1,0.3,5.5,2.3,7.6c2,2.1,4,4.5,6.2,6.4
						c2.7,2.4,6,2.4,8.8,0.2c1.9-1.5,4.6-3.8,5.5-6.1C111.5,105.9,104.3,99.8,100.7,96.9c-1.2-1-3,0.8-1.8,1.8
						c2.5,2,5.4,4.7,7.1,7.4c0.2,0.3,0.7,0.6,0.9,0.9c0.1,0.2-0.7,4.4-0.8,4.5c-0.4,0.6-1.2,1.2-1.7,1.7c-2.2,2.1-4.4,4.5-7.6,2.1
						c-2.3-1.8-5.4-4.9-7-7.3c-2-3-0.4-5.1,1.8-7.1c1.9-1.8,4.5-5,7.3-2.1C100,99.9,101.8,98.1,100.7,96.9z"/>
				</g>
			</g>
			<g>
				<g>
					<path d="M91.7,91.2c2.9,3.1,7.3,9.8,12.2,9.4c3-0.2,5.2-3,7.2-5c2.1-2.2,3.4-4.8,2-7.8c-1.1-2.2-3.6-4.4-5.4-6.1
						c-2-1.8-3.8-4.6-6.7-4.9c-2.8-0.4-5.1,1.4-6.8,3.4C91.1,83.8,88.4,87,91.7,91.2c1,1.3,2.7-0.5,1.8-1.8c-1.9-2.5,2-7.5,4.1-9
						c3.6-2.6,4.8,0,7,2c2.9,2.7,8.4,6.2,5.3,10.8c-0.8,1.2-2.5,2.7-3.7,3.5c-2.5,1.8-4.6,1-6.5-0.8c-2.2-2.1-4.2-4.3-6.3-6.5
						C92.3,88.2,90.6,90,91.7,91.2z"/>
				</g>
			</g>
			<g>
				<g>
					<path d="M101.8,79.5c1.3,1.4,2.6,3.1,4.3,4.1c1.2,0.7,2.5-0.9,1.5-2c-1.3-1.4-2.6-3.1-4.3-4.1c-1.4-0.8-2.6,1.3-1.3,2.2
						c0.8,0.5,1.4,1.3,2.1,2c0.6,0.6,1.1,1.2,1.7,1.7c0.5-0.7,1-1.3,1.5-2c-0.8-0.5-1.4-1.3-2.1-2c-0.6-0.6-1.1-1.2-1.7-1.7
						C102.4,76.6,100.7,78.3,101.8,79.5z"/>
				</g>
			</g>
			<g>
				<g>
					<path d="M98.2,97.9c0.6,0.6,1.2,1.3,2,1.8c1.2,0.8,2.5-1,1.5-2c-0.6-0.6-1.2-1.3-2-1.8c-0.6-0.4-1.4-0.1-1.7,0.4
						c-0.4,0.6-0.1,1.3,0.4,1.7c0.6,0.4,1,0.9,1.5,1.4c0.5-0.7,1-1.3,1.5-2c-0.6-0.4-1-0.9-1.5-1.4C98.8,95,97,96.7,98.2,97.9z"/>
				</g>
			</g>
			<g>
				<g>
					<path d="M107.1,107.2c3.8,3.9,8.6,11.3,14.6,6.7c4.5-3.4,8.3-7.9,4.3-13.2c-1.8-2.3-4.2-4.4-6.3-6.5c-2-2-4.4-3.3-7.3-2.2
						c-2.3,0.9-4.7,3.5-6.3,5.3c-3.1,3.6-1.6,6.4,0.8,9.6c0.9,1.3,3.1,0,2.2-1.3c-1.3-1.7-1.8-1.8-1.5-4.3c0.4-2.9,0-1.7,1.3-3.2
						c2.2-2.5,4.7-4.8,8.3-2.9c1,0.5,2,2.1,2.8,2.9c1.3,1.4,2.9,2.7,4.1,4.2c1.7,2.3,1.4,4-0.5,6.3c-0.6,0.7-1.4,1.4-2.1,2.1
						c-1.6,1.5-1.6,1.7-4.2,1.4c-2.8-0.4-3.2-1.2-5.1-3.2c-1.1-1.2-2.2-2.3-3.3-3.5C107.7,104.2,106,106,107.1,107.2z"/>
				</g>
			</g>
			<g>
				<g>
					<path d="M127.7,103.4c-0.3-0.9-0.8-1.8-1.5-2.5c-0.8-0.9-2.5,0-2.1,1.2c0.3,0.9,0.8,1.8,1.5,2.5c1.1,1.2,2.9-0.6,1.8-1.8
						c-0.4-0.4-0.7-0.9-0.9-1.4c-0.7,0.4-1.4,0.8-2.1,1.2c0.4,0.4,0.7,0.9,0.9,1.4c0.2,0.6,0.9,1.1,1.5,0.9
						C127.4,104.8,127.9,104.1,127.7,103.4z"/>
				</g>
			</g>
			<g>
				<g>
					<path d="M109.1,105.7c-0.5-0.9-1.3-1.6-2-2.4c-1-1-2.7,0.3-2,1.5c0.5,0.9,1.3,1.6,2,2.4c1.1,1.2,2.9-0.6,1.8-1.8
						c-0.6-0.6-1.2-1.2-1.6-1.9c-0.7,0.5-1.3,1-2,1.5c0.6,0.6,1.2,1.2,1.6,1.9C107.7,108.3,109.9,107,109.1,105.7z"/>
				</g>
			</g>
			<g>
				<g>
					<path d="M97.1,76c-0.8,1.2-1.7,2.5-2.5,3.7c-0.8,1.2,1,2.5,2,1.5c1.3-1.2,2.5-2.4,2.9-4.2c0.3-1.6-2.1-2.2-2.4-0.7
						c-0.3,1.4-1.2,2.2-2.2,3.1c0.7,0.5,1.3,1,2,1.5c0.8-1.2,1.7-2.5,2.5-3.7C100.1,76,98,74.7,97.1,76z"/>
				</g>
			</g>
			<g>
				<g>
					<path d="M105.7,112c-2.7,2.6-6.5,5.2-5.9,9.4c0.3,1.7,1.5,2.7,2.5,4c1.1,1.4,2.3,2.7,3.6,4c0.3,0.4,1.1,0.5,1.5,0.2
						c4.2-3.1,8.4-6.3,12.5-9.5c0.6-0.5,0.9-1.3,0.3-2C116.3,114,111.7,107.2,105.7,112c-1.3,1,0.5,2.8,1.8,1.8
						c4-3.2,8.5,3.6,10.9,6.1c0.1-0.7,0.2-1.3,0.3-2c-4.1,3.2-8.3,6.4-12.5,9.5c0.5,0.1,1,0.1,1.5,0.2c-1.7-1.7-3.9-3.7-5.1-5.8
						c-1.7-2.9,3.1-6.3,4.9-8C108.6,112.6,106.8,110.9,105.7,112z"/>
				</g>
			</g>
			<g>
				<g>
					<path d="M70.9,120.8c1.6-1.8,2.2-4,1.6-6.3c-0.3-1.1-1.7-1.1-2.3-0.3c-2.5,3.4-4.9,6.9-7.4,10.3c-0.6,0.9,0.4,2.2,1.4,1.8
						C66.9,125.3,68.9,122.7,70.9,120.8c1.2-1.1-0.6-2.9-1.8-1.8c-1.6,1.6-3.4,4.1-5.6,4.8c0.5,0.6,0.9,1.2,1.4,1.8
						c2.5-3.4,4.9-6.8,7.4-10.3c-0.8-0.1-1.5-0.2-2.3-0.3c0.4,1.5,0.1,2.8-0.9,3.9C68.1,120.2,69.8,121.9,70.9,120.8z"/>
				</g>
			</g>
			<g>
				<g>
					<path d="M78.2,118.9c-2.5-2.6-5.9-2.3-8.6-0.2c-1.9,1.5-4.6,3.7-5.5,6c-1.4,3.4,0.3,5.5,2.5,7.7c2,2,3.7,4.3,5.8,6.3
						c2.7,2.6,6,2.8,9,0.4c1.9-1.6,4.7-3.9,5.6-6.2C88.9,127.7,81.8,121.8,78.2,118.9c-1.2-1-3,0.8-1.8,1.8c2.5,2,5.4,4.7,7.1,7.4
						c0.1,0.2,0.6,0.4,0.7,0.7c0.2,0.6-0.2,4-0.6,4.7c-0.3,0.6-1.2,1.2-1.7,1.6c-0.7,0.6-1.3,1.5-2.1,2c-1.6,1-4.2,0.8-5.8-0.3
						c-1.4-1-2.5-2.7-3.6-4c-1-1.2-2.5-2.2-3.4-3.5c-2.6-3.9,5.9-12.3,9.4-8.6C77.5,121.9,79.3,120.1,78.2,118.9z"/>
				</g>
			</g>
			<g>
				<g>
					<path d="M76.6,120.7c2.5,2.6,5.9,2.3,8.6,0.1c2-1.6,4.9-4,5.6-6.5c1.7-5.5-5.7-10.5-9-13.9c-0.6-0.6-1.5-0.4-2,0.3
						c-3.1,4.3-6.1,8.6-9.2,12.9c-0.3,0.5-0.2,1.1,0.2,1.5C72.7,116.9,74.5,119,76.6,120.7c1.2,1,3-0.8,1.8-1.8
						c-2.1-1.7-3.9-3.8-5.7-5.7c0.1,0.5,0.1,1,0.2,1.5c3.1-4.3,6.1-8.6,9.2-12.9c-0.7,0.1-1.3,0.2-2,0.3c2.3,2.4,5.3,4.7,7.2,7.5
						c2,2.9,0.8,5-1.4,7c-1.9,1.9-4.7,5.3-7.6,2.3C77.2,117.7,75.5,119.5,76.6,120.7z"/>
				</g>
			</g>
			<g>
				<g>
					<path d="M81.8,100.3C81.8,100.3,81.8,100.3,81.8,100.3c-1.2-1.1-2.9,0.6-1.8,1.8c0,0,0,0,0,0c0.4,0.5,1.3,0.5,1.8,0
						c0,0,0,0,0,0C82.3,101.6,82.3,100.8,81.8,100.3c-0.4-0.4-1.3-0.5-1.8,0c0,0,0,0,0,0C80.7,100.3,81.2,100.3,81.8,100.3
						C81.8,100.3,81.8,100.3,81.8,100.3c-0.6,0.6-1.2,1.2-1.8,1.8c0,0,0,0,0,0C81.2,103.2,83,101.4,81.8,100.3z"/>
				</g>
			</g>
			<g>
				<g>
					<path d="M80.1,100.3C80.1,100.3,80.1,100.3,80.1,100.3c-0.4,0.5-0.5,1.3,0,1.8c0.3,0.3,0.5,0.6,0.8,0.8
						c1.2,1.1,2.9-0.6,1.8-1.8c-0.3-0.3-0.5-0.6-0.8-0.8C81.3,99.9,80.6,99.8,80.1,100.3c-0.5,0.5-0.5,1.3,0,1.8
						c0.3,0.3,0.6,0.5,0.8,0.8c0.6-0.6,1.2-1.2,1.8-1.8c-0.3-0.3-0.6-0.5-0.8-0.8c0,0.6,0,1.2,0,1.8c0,0,0,0,0,0
						c0.4-0.5,0.5-1.3,0-1.8C81.4,99.9,80.5,99.8,80.1,100.3z"/>
				</g>
			</g>
			<g>
				<g>
					<path d="M75.6,119.9c0.6,0.6,1.2,1.3,2,1.8c1.2,0.8,2.5-1,1.5-2c-0.6-0.6-1.2-1.3-2-1.8c-0.6-0.4-1.4-0.1-1.7,0.4
						c-0.4,0.6-0.1,1.3,0.4,1.7c0.6,0.4,1,0.9,1.5,1.4c0.5-0.7,1-1.3,1.5-2c-0.6-0.4-1-0.9-1.5-1.4C76.3,117,74.5,118.8,75.6,119.9z
						"/>
				</g>
			</g>
			<g>
				<g>
					<path d="M99.4,135.7c0.3-0.3,0.7-0.7,1-1c0.4-0.4,0.5-1.2,0.1-1.6c-0.4-0.4-1.1-0.7-1.6-0.3c-1,0.7-1.9,1.4-2.9,2.1
						c-0.5,0.4-0.8,1-0.5,1.6c0.2,0.5,0.9,0.9,1.5,0.7C98,136.8,98.7,136.3,99.4,135.7c1.2-1.1-0.6-2.9-1.8-1.8
						c-0.4,0.3-0.8,0.6-1.3,0.8c0.3,0.8,0.6,1.5,1,2.3c1-0.7,1.9-1.4,2.9-2.1c-0.5-0.7-1-1.3-1.5-2c-0.3,0.3-0.7,0.7-1,1
						C96.5,135,98.3,136.8,99.4,135.7z"/>
				</g>
			</g>
			<g>
				<g>
					<path d="M104.7,124.5c-3.2-3.4-7-10.3-12-10.9c-4.9-0.5-12.2,7-10.7,11.9c0.7,2.3,3,4.1,4.6,5.8c1.8,1.9,3.8,4.7,6.3,5.7
						c3.5,1.4,6.2-0.9,8.6-3.2c2.7-2.5,4.7-4.8,3.6-8.7c-0.4-1.5-2.9-0.9-2.4,0.7c0.5,1.9-0.6,3.8-1.8,5.2c-0.6,0.7-1.3,1.3-2,1.9
						c-2.8,2.4-5.7,1.7-7.9-0.6c-1.3-1.4-2.7-2.7-3.9-4.1c-0.5-0.5-0.9-1-1.3-1.6c-0.2-0.3-0.5-0.4-0.7-0.7
						c-0.3-0.7-0.1-4.1,0.4-4.9c0.6-1.1,2.6-2.9,3.7-3.5c2.4-1.6,5-0.8,6.9,1.2c2.4,2.5,4.5,5.2,6.9,7.7
						C104,127.4,105.8,125.6,104.7,124.5z"/>
				</g>
			</g>
			<g>
				<g>
					<path d="M104.9,124.7c-0.6-1.3-1.7-2.3-2.7-3.3c-0.4-0.4-1.2-0.5-1.6-0.1c-0.5,0.4-0.6,1-0.3,1.6c0.6,1.3,1.7,2.3,2.7,3.3
						c1.1,1.2,2.9-0.6,1.8-1.8c-0.8-0.9-1.8-1.7-2.3-2.8c-0.7,0.5-1.3,1-2,1.5c0.8,0.9,1.8,1.7,2.3,2.8c0.3,0.6,1.2,0.8,1.7,0.4
						C105.1,126.1,105.1,125.3,104.9,124.7z"/>
				</g>
			</g>
			<g>
				<g>
					<path d="M86.5,127.7c-0.5-0.9-1.3-1.6-2-2.4c-1-1-2.7,0.3-2,1.5c0.5,0.9,1.3,1.6,2,2.4c1.1,1.2,2.9-0.6,1.8-1.8
						c-0.6-0.6-1.2-1.2-1.6-1.9c-0.7,0.5-1.3,1-2,1.5c0.6,0.6,1.2,1.2,1.6,1.9C85.2,130.3,87.3,129.1,86.5,127.7z"/>
				</g>
			</g>
			<g>
				<g>
					<path d="M83.2,134c-2,1.9-5.1,4-5.8,6.9c-0.8,3.1,1.8,4.6,3.7,6.6c0.4,0.4,1.1,0.5,1.5,0.2c4-2.9,8-5.7,11.9-8.6
						c0.7-0.5,0.9-1.3,0.3-2C91.4,133.6,87.9,130.2,83.2,134c-1.3,1,0.5,2.8,1.8,1.8c3.4-2.7,5.9,0.9,8.1,3.1c0.1-0.7,0.2-1.3,0.3-2
						c-4,2.9-8,5.8-11.9,8.6c0.5,0.1,1,0.1,1.5,0.2c-0.6-0.7-1.3-1.3-1.9-2c-1.5-1.6-1.9-1.7-0.1-4c1.2-1.5,2.8-2.7,4.1-4
						C86.1,134.6,84.3,132.9,83.2,134z"/>
				</g>
			</g>
			<g>
				<g>
					<path d="M47.8,149.5c2.6-2.5,6.1-4.8,6-8.8c0-1.3-1.6-1.6-2.3-0.6c-2,2.7-3.9,5.4-5.9,8.1c-0.9,1.2,1,2.4,2,1.5
						C47.6,149.6,47.7,149.5,47.8,149.5c1.2-1.1-0.6-2.8-1.8-1.8c-0.1,0.1-0.2,0.1-0.3,0.2C46.4,148.4,47.1,148.9,47.8,149.5
						c1.9-2.7,3.9-5.4,5.8-8.1c-0.8-0.2-1.6-0.4-2.3-0.6c0.1,2.9-3.3,5.1-5.3,7C44.9,148.8,46.6,150.6,47.8,149.5z"/>
				</g>
			</g>
			<g>
				<g>
					<path d="M67.4,152.1c-2.4-2.5-4.7-5.3-7.2-7.7c-3.6-3.4-7.2-3.2-10.7,0.3c-3.4,3.2-6.8,6.8-3.1,11.4c1.9,2.4,4.4,4.6,6.6,6.9
						c0.4,0.4,1,0.4,1.5,0.2c4.4-2.3,8.9-4.6,13.3-6.9c0.5-0.3,0.7-0.9,0.6-1.4c-0.2-1.2-0.3-1.3-0.8-2.4c-0.6-1.5-2.8-0.2-2.2,1.3
						c0.2,0.6,0.3,1.2,0.5,1.8c0.2-0.5,0.4-0.9,0.6-1.4c-4.4,2.3-8.9,4.6-13.3,6.9c0.5,0.1,1,0.1,1.5,0.2c-1.5-1.5-2.9-3-4.4-4.6
						c-2-2.1-4.5-3.7-2-7.4c0.7-1,2-1.9,2.9-2.8c1.8-1.8,3.7-2.9,6.3-1c1.1,0.8,1.9,1.8,2.8,2.7c1.8,1.9,3.5,3.9,5.3,5.7
						C66.7,155.1,68.5,153.3,67.4,152.1z"/>
				</g>
			</g>
			<g>
				<g>
					<path d="M57.6,145.4c2.5,2.6,5.9,2.3,8.6,0.2c1.9-1.5,4.7-3.9,5.6-6.2c1.4-3.5-0.6-5.5-2.8-7.8c-1.8-1.9-3.5-3.9-5.3-5.8
						c-0.6-0.6-1.5-0.4-2,0.3c-3.1,4.3-6.2,8.6-9.3,12.8c-0.3,0.4-0.2,1.1,0.2,1.5C54.2,142.1,55.8,143.9,57.6,145.4
						c1.2,1,3-0.8,1.8-1.8c-1.9-1.5-3.4-3.3-5.1-5c0.1,0.5,0.1,1,0.2,1.5c3.1-4.3,6.2-8.6,9.3-12.8c-0.7,0.1-1.3,0.2-2,0.3
						c2.2,2.3,5.2,4.9,7,7.5c2.5,3.8-5.8,12.3-9.4,8.6C58.3,142.5,56.5,144.2,57.6,145.4z"/>
				</g>
			</g>
			<g>
				<g>
					<path d="M64.4,130.1c0.7,1.2,1.7,2.1,2.7,3.1c0.8,0.8,1.6,1.7,2.4,2.5c1,1,2.7-0.3,2-1.5c-0.7-1.2-1.7-2.1-2.7-3.1
						c-0.8-0.8-1.6-1.7-2.4-2.5c-1.1-1.2-2.9,0.6-1.8,1.8c0.8,0.8,1.5,1.6,2.3,2.3c0.8,0.9,1.8,1.7,2.4,2.7c0.7-0.5,1.3-1,2-1.5
						c-0.8-0.8-1.5-1.6-2.3-2.3c-0.8-0.9-1.8-1.7-2.4-2.7C65.7,127.5,63.6,128.7,64.4,130.1z"/>
				</g>
			</g>
			<g>
				<g>
					<path d="M56.7,144.6c0.6,0.6,1.2,1.3,2,1.8c1.2,0.8,2.5-1,1.5-2c-0.6-0.6-1.2-1.3-2-1.8c-0.6-0.4-1.4-0.1-1.7,0.4
						c-0.4,0.6-0.1,1.3,0.4,1.7c0.6,0.4,1,0.9,1.5,1.4c0.5-0.7,1-1.3,1.5-2c-0.6-0.4-1-0.9-1.5-1.4
						C57.3,141.7,55.5,143.5,56.7,144.6z"/>
				</g>
			</g>
			<g>
				<g>
					<path d="M82,146.3c-2.1-2.2-2.8-5.1-5.5-6.9c-3.2-2.1-6.4-0.7-8.8,1.6c-2.3,2.2-5.1,4.2-5,7.7c0.1,2.9,2.5,4.9,4.4,6.9
						c0.4,0.4,1,0.4,1.5,0.2c4.5-2.3,8.9-4.5,13-7.5c1.3-0.9,0.1-3.1-1.3-2.2c-4.1,3-8.5,5.1-13,7.5c0.5,0.1,1,0.1,1.5,0.2
						c-1.3-1.4-3.1-3-3.4-4.9c-0.4-2.6,2.3-4.7,4.2-6.3c2.4-2.1,5.2-2.2,7.1,0.5c1.2,1.6,1.9,3.4,3.4,5
						C81.3,149.2,83.1,147.5,82,146.3z"/>
				</g>
			</g>
			<g>
				<g>
					<path d="M78.9,146.7c0.4,0.5,0.9,0.9,1.3,1.4c0.4,0.4,1.1,0.5,1.5,0.2c0.3-0.2,0.5-0.4,0.8-0.6c0.7-0.5,0.9-1.3,0.3-2
						c-1.2-1.2-2.3-2.4-3.5-3.6c-1-1-2.3,0.1-2.1,1.2C77.4,144.6,78,145.7,78.9,146.7c1.1,1.2,2.8-0.6,1.8-1.8
						c-0.6-0.7-0.9-1.4-1-2.3c-0.7,0.4-1.4,0.8-2.1,1.2c1.2,1.2,2.3,2.4,3.5,3.6c0.1-0.7,0.2-1.3,0.3-2c-0.3,0.2-0.5,0.4-0.8,0.6
						c0.5,0.1,1,0.1,1.5,0.2c-0.4-0.5-0.9-0.9-1.3-1.4C79.5,143.8,77.8,145.5,78.9,146.7z"/>
				</g>
			</g>
			<g>
				<g>
					<path d="M67.6,152.4c-0.5-0.9-1.3-1.6-2-2.4c-1-1-2.7,0.3-2,1.5c0.5,0.9,1.3,1.6,2,2.4c1.1,1.2,2.9-0.6,1.8-1.8
						c-0.6-0.6-1.2-1.2-1.6-1.9c-0.7,0.5-1.3,1-2,1.5c0.6,0.6,1.2,1.2,1.6,1.9C66.2,155,68.4,153.8,67.6,152.4z"/>
				</g>
			</g>
			<g>
				<g>
					<path d="M33.1,174.2c2.3-1.2,4.7-2.4,7-3.6c0.7-0.4,0.8-1.4,0.3-2c-1-1.1-2.1-2.2-3.1-3.3c-0.6-0.6-1.6-0.4-2,0.3
						c-1.3,2.3-2.6,4.6-3.9,6.9c-0.8,1.4,1.4,2.7,2.2,1.3c1.3-2.3,2.6-4.6,3.9-6.9c-0.7,0.1-1.3,0.2-2,0.3c1,1.1,2.1,2.2,3.1,3.3
						c0.1-0.7,0.2-1.3,0.3-2c-2.3,1.2-4.7,2.4-7,3.6C30.4,172.8,31.6,174.9,33.1,174.2z"/>
				</g>
			</g>
			<g>
				<g>
					<path d="M41,164.2c1.5-1.5,3.3-2.8,4.6-4.5c2.1-2.6,1.7-6.1-0.5-8.4c-0.6-0.6-1.5-0.4-2,0.3c-2.8,3.8-4.7,8.4-7,12.5
						c-0.6,1,0.4,2,1.4,1.8C38.9,165.7,40,165.1,41,164.2c1.2-1-0.5-2.8-1.8-1.8c-0.8,0.6-1.5,0.9-2.4,1c0.5,0.6,0.9,1.2,1.4,1.8
						c2.3-4.1,4.3-8.7,7-12.5c-0.7,0.1-1.3,0.2-2,0.3c3.5,3.6-1.6,7.1-4.1,9.4C38.1,163.6,39.9,165.3,41,164.2z"/>
				</g>
			</g>
			<g>
				<g>
					<path d="M43.6,158.7c-3.4,3.2-7.5,6.2-5.2,11.4c0.3,0.6,1.2,0.7,1.7,0.4c4.8-2.5,9.5-4.9,14.3-7.4c0.7-0.4,0.8-1.4,0.3-2
						c-1.2-1.3-2.4-2.8-4-3.6C48.2,156.4,45.6,157,43.6,158.7c-1.2,1,0.5,2.8,1.8,1.8c3.1-2.5,5.5,0.4,7.5,2.5
						c0.1-0.7,0.2-1.3,0.3-2c-4.8,2.5-9.5,4.9-14.3,7.4c0.6,0.1,1.1,0.3,1.7,0.4c-1.6-3.5,2.6-6.3,4.8-8.4
						C46.5,159.3,44.8,157.6,43.6,158.7z"/>
				</g>
			</g>
		</g>
	</g>
</g>
</svg>
