<?xml version="1.0" encoding="utf-8"?>
<!-- Generator: Adobe Illustrator 22.1.0, SVG Export Plug-In . SVG Version: 6.00 Build 0)  -->
<svg version="1.1" id="oignon" xmlns="http://www.w3.org/2000/svg" xmlns:xlink="http://www.w3.org/1999/xlink" x="0px" y="0px"
	 viewBox="0 0 200 200" style="enable-background:new 0 0 200 200;" xml:space="preserve">
<g>
	<g>
		<g>
			<path d="M82.6,22.6c1.1-2.9,2.2-5.9,3.3-8.8c0.8-2,1.5-4.1,2.3-6.1c0.4-1,1.6-2.9,1.5-4C89.8,2.5,88.9,4,89,4
				c0.3,0.1,0.8-0.1,1.2,0c1.8,0.5,4.5,0,6.4,0c2.2,0,4.4,0,6.7,0c1,0,3.6,0.5,4.5,0c1-0.5-0.5,0.5-0.6-0.8c0,0.4,0.2,0.9,0.2,1.2
				c-0.2,1.5,0.6,3.7,0.9,5.2c0.6,3.8,0.6,9.2,2.1,12.8c0.1,0.3,0,0.8,0.2,1.1c-0.1-0.1,1-0.8,0.2-0.9c-0.9-0.1-3.8,1.6-4.7,1.9
				c-8.3,2.4-16.5,0.9-23.9-3.3c-1.4-0.8-2.7,1.4-1.3,2.2c9.5,5.4,21.9,6.9,31.6,1.2c0.5-0.3,0.7-0.9,0.6-1.4
				c-1.1-6.9-2.3-13.8-3.4-20.6c-0.1-0.5-0.7-0.9-1.2-0.9c-6.5,0-13.1,0-19.6,0c-0.6,0-1,0.4-1.2,0.9c-2.5,6.5-4.9,13-7.4,19.5
				C79.6,23.4,82,24.1,82.6,22.6z"/>
		</g>
	</g>
	<g>
		<g>
			<path d="M81.1,21c-9.4,3.4-18.4,8.8-26.1,15.1C42.8,46,35.3,59,31.4,74.1c-8.6,33,2.6,65.6,27.8,88.2c2.1,1.9,4.2,3.7,6.4,5.4
				c1.7,1.3,4.3,2.5,5.6,4.1c1.5,1.9,2,4.8,4.5,5.9c1.4,0.6,3.3,0.4,4.7,0.4c3.2,0.2,6.5,0.3,9.7,0.5c4.1,0.2,10,1.6,14.1,0.6
				c4.6-1.1,7.7-6,11.6-8.1c2.1-1.1,4.7-1.5,7-2.3c3.8-1.3,7.4-2.8,11-4.6c9.2-4.8,17.1-11.6,23.5-19.8
				c12.3-15.7,19.7-36.1,17.8-56.2c-3.1-32-30.6-61.4-62.8-66.1c-1.6-0.2-2.3,2.2-0.7,2.4c25.4,3.6,48.6,23.7,57.3,47.4
				c7.5,20.5,3.8,43.1-7.2,61.7c-9.5,16-23.6,27.6-41.3,33.4c-3.8,1.3-6,2-8.9,4.6c-2,1.8-5.2,4.1-7.8,5c-0.8,0.3,0.8-0.1-0.4,0
				c-0.9,0.1-2-0.1-2.9-0.1c-6-0.3-11.9-0.6-17.9-0.9c-1.5-0.1-3.9,0.3-5.3-0.3c-2.3-0.9-3.2-4.4-5-6c-4.1-3.7-8.8-6.7-12.9-10.5
				c-3.5-3.3-6.8-6.8-9.9-10.6c-5.7-7-10.4-14.9-13.5-23.4c-5-13.4-6.1-28-3.8-42.1c2.6-15.6,8.8-30.3,20.5-41.4
				c8.2-7.7,18.5-14.3,29.2-18.1C83.2,22.9,82.6,20.5,81.1,21L81.1,21z"/>
		</g>
	</g>
	<g>
		<g>
			<path d="M78.3,29.5c-21.8,21.1-31.9,55-27.6,84.5c2.5,16.8,9.4,32.5,18.5,46.8c0.9,1.4,3,0.1,2.2-1.3
				c-14.6-22.9-22.7-49.6-17.7-76.8c3-16,10-31.3,20-44.2c2-2.6,4.1-5.1,6.4-7.4C81.2,30.1,79.5,28.3,78.3,29.5L78.3,29.5z"/>
		</g>
	</g>
	<g>
		<g>
			<path d="M124.3,37c4.5,3.4,9.7,10.3,12.8,15.9c8.6,15.1,10.9,32.7,8.9,49.8c-1.9,16.4-7.6,32-14.9,46.7c-0.7,1.4,1.4,2.7,2.2,1.3
				c16.7-34.1,25.4-79.1-2-110.3c-1.8-2-3.7-4-5.8-5.6C124.3,33.9,123,36.1,124.3,37L124.3,37z"/>
		</g>
	</g>
	<g>
		<g>
			<path d="M92.8,35.3c-6.7,11.6-11,25-14,38c-6.6,28.3-5.3,57.9,5,85.1c0.6,1.5,3,0.8,2.4-0.7c-10.3-27.3-11.5-56.8-4.7-85
				c3-12.3,7.1-25.1,13.4-36.1C95.8,35.2,93.7,33.9,92.8,35.3L92.8,35.3z"/>
		</g>
	</g>
	<g>
		<g>
			<path d="M110.6,36.3c4.7,13.2,7.5,27.3,9.1,41.2c3.2,27.1,1.3,55.8-12.4,80c-0.8,1.4,1.4,2.7,2.2,1.3
				c13.7-24.2,15.9-52.8,12.9-80c-1.6-14.5-4.4-29.3-9.4-43.1C112.4,34.1,110,34.8,110.6,36.3L110.6,36.3z"/>
		</g>
	</g>
	<g>
		<g>
			<path d="M73.2,174.6c-1.8,7.8-8.8,13.8-15.6,17.2c-1.4,0.7-0.2,2.9,1.3,2.2c7.4-3.7,14.8-10.3,16.8-18.7
				C76,173.7,73.6,173,73.2,174.6L73.2,174.6z"/>
		</g>
	</g>
	<g>
		<g>
			<path d="M93.3,177.3c-1.2,6.4-2.8,13.7-6.8,19c-1,1.3,1.2,2.5,2.2,1.3c4.1-5.4,5.8-13,7.1-19.6C96,176.3,93.6,175.7,93.3,177.3
				L93.3,177.3z"/>
		</g>
	</g>
	<g>
		<g>
			<path d="M113.4,170.7c2,9.6,6,24.4,16.1,28.6c1.5,0.6,2.1-1.8,0.7-2.4c-8.9-3.7-12.5-18.2-14.3-26.8
				C115.5,168.4,113.1,169.1,113.4,170.7L113.4,170.7z"/>
		</g>
	</g>
</g>
</svg>
