<?xml version="1.0" encoding="utf-8"?>
<!-- Generator: Adobe Illustrator 22.1.0, SVG Export Plug-In . SVG Version: 6.00 Build 0)  -->
<svg version="1.1" id="panais" xmlns="http://www.w3.org/2000/svg" xmlns:xlink="http://www.w3.org/1999/xlink" x="0px" y="0px"
	 viewBox="0 0 200 200" style="enable-background:new 0 0 200 200;" xml:space="preserve">
<g>
	<g>
		<g>
			<path d="M35.6,73.4c8.7-0.8,16.7-9.6,22-15.5c1.1-1.2-0.7-3-1.8-1.8C51,61.6,42.9,70.3,35.6,70.9C34,71.1,34,73.6,35.6,73.4
				L35.6,73.4z"/>
		</g>
	</g>
	<g>
		<g>
			<path d="M73.1,130.7c10.8,0.9,20.1-12.5,24.9-20.1c0.9-1.4-1.3-2.6-2.2-1.3c-4.2,6.8-13,19.7-22.8,18.9
				C71.5,128.1,71.5,130.6,73.1,130.7L73.1,130.7z"/>
		</g>
	</g>
	<g>
		<g>
			<path d="M122,59.3c2.6,7-0.1,14.8-4.5,20.5c-1,1.3,1.2,2.5,2.2,1.3c4.7-6.1,7.6-14.8,4.7-22.4C123.9,57.1,121.4,57.8,122,59.3
				L122,59.3z"/>
		</g>
	</g>
	<g>
		<g>
			<path d="M150.9,81.5c-1.7,9.4-5.6,19.8-13.1,25.9c-1.2,1,0.5,2.8,1.8,1.8c7.8-6.4,12-17.3,13.8-27
				C153.6,80.6,151.2,79.9,150.9,81.5L150.9,81.5z"/>
		</g>
	</g>
	<g>
		<g>
			<path d="M107.6,178.8c2.8,0.4,5.7-1,8-2.4c8.6-5.4,14.3-15.1,19-23.8c0.8-1.4-1.4-2.7-2.2-1.3c-4.4,8.2-9.6,17.2-17.5,22.5
				c-1.8,1.2-5.4,2.7-6.6,2.6C106.7,176.2,106,178.6,107.6,178.8L107.6,178.8z"/>
		</g>
	</g>
	<g>
		<g>
			<path d="M39.2,1.5c-6.5-1-13.4,1.7-18.4,5.6c-2.3,1.8-4.4,4-6.1,6.3c-1.8,2.4-5.3,6.7-5.4,9.8c-0.2,3.4,3.3,8.9,4.7,12
				c10.6,22.9,24.4,44.4,38,65.6c16.8,26.3,35.9,51.1,54.1,76.3c8.1,11.2,17.5,25.6,33.6,21c23.1-6.5,40.9-30.3,49.6-51.3
				c2.9-7,6.4-15,5.4-22.7c-0.8-5.7-3.8-10.9-7.8-15c-3-3.1-6.2-5.3-9.9-8.4c-16.3-13.6-32.6-27.1-49.4-40.1
				C116.1,51.8,103.2,44.9,91,37C77.2,28,61.4,18.6,48.8,9.1c-3.1-2.3-6.1-4.9-9.1-7.4c-1.2-1-3,0.8-1.8,1.8C48.2,12,59,19,70,26.3
				c14.8,9.8,29.6,20.3,45.2,28.7c5.4,2.9,10.1,7,14.9,10.7c8.5,6.7,16.9,13.5,25.3,20.4c7.1,5.8,14.2,11.7,21.3,17.6
				c3,2.5,6.4,4.9,9,7.8c5.8,6.3,7.9,13.9,5.5,22.2c-2.3,8-5.5,15.8-9.5,23.1c-6.6,11.8-15.6,22.6-26.6,30.6
				c-7.4,5.4-17.4,11.4-26.9,8.3c-7.3-2.4-12.1-8.6-16.3-14.6c-16.1-23.2-34.1-45.3-49.7-68.9C51.3,95.5,40.6,78.5,30.5,61.1
				c-5.8-10-11.5-20.2-16.1-30.8c-0.7-1.7-2.3-4.4-2.5-6.3c-0.2-3.4,4.1-8.5,6.2-10.9c3.6-4.2,8.5-7.4,13.9-8.6
				c2.1-0.5,5-0.8,6.5-0.6C40.1,4.2,40.8,1.8,39.2,1.5z"/>
		</g>
	</g>
	<g>
		<g>
			<path d="M38.6,12.3c1.3,4.6-0.5,9.3-4.5,11.8c-1.4,0.9-0.1,3,1.3,2.2c4.9-3.1,7.3-9,5.7-14.6C40.5,10,38.1,10.7,38.6,12.3
				L38.6,12.3z"/>
		</g>
	</g>
</g>
</svg>
