<?xml version="1.0" encoding="utf-8"?>
<!-- Generator: Adobe Illustrator 22.1.0, SVG Export Plug-In . SVG Version: 6.00 Build 0)  -->
<svg version="1.1" id="Calque_1" xmlns="http://www.w3.org/2000/svg" xmlns:xlink="http://www.w3.org/1999/xlink" x="0px" y="0px"
	 viewBox="0 0 200 200" style="enable-background:new 0 0 200 200;" xml:space="preserve">
<style type="text/css">
	.st0{fill:none;stroke:#000000;stroke-miterlimit:10;}
</style>
<path class="st0" d="M210.5,90.5"/>
<g>
	<g>
		<g>
			<path d="M37,180.4c41.8,8.8,87.3,10.3,129,0c1.5-0.4,0.9-2.8-0.7-2.4c-41.3,10.2-86.3,8.7-127.7,0
				C36.2,177.7,35.5,180.1,37,180.4L37,180.4z"/>
		</g>
	</g>
	<g>
		<g>
			<g>
				<g>
					<path d="M168.9,103c-4.9-1.9-4.5-9.3-4.1-13.7c0-0.6-0.4-1-0.9-1.2c-19.9-6.9-41.4-8.9-62.4-8.9c-21,0-42.4,1.9-62.4,8.9
						c-0.5,0.2-1,0.6-0.9,1.2c0.4,4.3,0.8,11.8-4.1,13.7c-1,0.4-1.3,2.1,0,2.4c22.2,4,44.9,6.9,67.4,6.9c22.5,0,45.2-3,67.4-6.9
						c1.6-0.3,0.9-2.7-0.7-2.4c-22,3.9-44.4,6.9-66.8,6.9c-22.3,0-44.8-2.9-66.8-6.9c0,0.8,0,1.6,0,2.4c4.3-1.7,5.6-5.8,6-10.1
						c0.1-1.4,0.6-6.1-0.7-4.8c0.4-0.4,1.7-0.6,2.3-0.8c9.4-3.2,19.3-5,29.2-6.2c28.5-3.4,59.9-3.2,87.5,5.6
						c1.1,0.3,2.3,0.6,3.4,1.1c0.2,0.1,0.7,0.1,0.8,0.3c-1.3-1.5-1,1.5-1,2.3c0,4.9,1,10.6,6.1,12.6
						C169.7,105.9,170.4,103.6,168.9,103z"/>
				</g>
			</g>
			<g>
				<g>
					<path d="M178.6,109.2c-2.5,2.7-9.3,3.9-13,4.8c-20.8,4.6-42.8,4.8-64,4.7c0.4,0.4,0.8,0.8,1.2,1.2c0,0,0,0,0,0
						c0-0.7-0.6-1.2-1.2-1.2c0,0-0.1,0-0.1,0c-0.7,0-1.2,0.6-1.2,1.2c0,0,0,0,0,0c0.4-0.4,0.8-0.8,1.2-1.2
						c-21.2,0.1-43.2-0.1-64-4.7c-3.7-0.8-10.6-2.1-13-4.8c-0.6-0.7-1.9-0.4-2.1,0.5c-3.8,19.5-3.4,43.6,6.6,61.1
						c9.7,17,32.1,23.1,50.1,25.6c7.7,1,14.3,2,22.4,2.4c-0.4-0.4-0.8-0.8-1.2-1.2c0,0,0,0,0,0c0,0.6,0.6,1.3,1.2,1.2
						c0,0,0.1,0,0.1,0c0.7,0,1.2-0.6,1.2-1.2c0,0,0,0,0,0c-0.4,0.4-0.8,0.8-1.2,1.2c7.2-0.3,13.2-1.4,19.8-2.1
						c8.7-1,17.4-2.8,25.6-5.8c9.4-3.4,18.7-8.4,24.8-16.5c7.8-10.4,10.2-24.8,10.7-37.5c0.4-9,0-18.3-1.8-27.2
						c-0.3-1.6-2.7-0.9-2.4,0.7c3.7,18.9,3.4,42.8-6.6,59.7c-9.7,16.4-32.1,22-49.7,24.1c-6.8,0.8-13.6,1.9-20.4,2.2
						c-0.7,0-1.2,0.5-1.2,1.2c0,0,0,0,0,0c0.4-0.4,0.8-0.8,1.2-1.2c0,0-0.1,0-0.1,0c0.4,0.4,0.8,0.8,1.2,1.2c0,0,0,0,0,0
						c0-0.7-0.6-1.2-1.2-1.2c-13.5-0.6-28.4-2.5-41.2-6.6c-9.8-3.1-19.8-7.9-26.4-16c-8.3-10.3-10.5-25.4-10.9-38.2
						c-0.3-8.4,0.1-17,1.8-25.2c-0.7,0.2-1.4,0.4-2.1,0.5c3,3.3,9.5,4.3,13.5,5.3c21.2,4.9,43.7,5.1,65.3,5c0.7,0,1.2-0.6,1.2-1.2
						c0,0,0,0,0,0c-0.4,0.4-0.8,0.8-1.2,1.2c0,0,0.1,0,0.1,0c-0.4-0.4-0.8-0.8-1.2-1.2c0,0,0,0,0,0c0,0.7,0.6,1.2,1.2,1.2
						c21.6,0.1,44.1-0.1,65.3-5c4-0.9,10.5-2,13.5-5.3C181.4,109.8,179.7,108.1,178.6,109.2z"/>
				</g>
			</g>
			<g>
				<g>
					<path d="M181.7,101.2c-0.5-12.5-2.9-25.3-6.4-37.3C169,42.3,157,24.9,138,12.4C120.8,1.1,98.5-2,79.1,5.2
						c-20.8,7.7-38.2,25.2-46.7,45.5c-6.3,15-9.6,31.4-10.9,47.6c-0.1,0.9,0,2-0.2,2.9c0.2-1-0.8,2-0.9,2.5
						c-0.3,1.7-0.3,3.6,0.5,5.1c0.7,1.5,2.1,2.5,3.5,3.3c7.1,4.2,16.6,5.2,24.6,6.3c24.6,3.3,49.9,3.3,74.7,2.4
						c16.4-0.6,34.3-1.1,50-6.6c6.3-2.2,11.4-5.9,7.7-13.7c-0.7-1.4-2.8-0.2-2.1,1.2c3.2,6.8-2.5,8.9-7.5,10.5
						c-12.5,4-26.1,4.9-39.1,5.6c-23.4,1.3-47.1,1.3-70.5-0.5c-11.1-0.9-22.9-1.9-33.4-5.9c-1.3-0.5-3.2-1.3-4.2-2.1
						c-2.7-2.3-1.4-5.5-0.8-8.6c0.7-4.2,0.7-8.5,1.3-12.7c1.1-7.9,2.7-15.8,5-23.5c6.3-21.5,18.3-38.8,37.4-50.9
						c16.8-10.6,38.4-13.1,57-5.7c23.7,9.5,40.3,30.3,47.7,54.2c3.9,12.5,6.4,25.8,7,39C179.3,102.8,181.7,102.8,181.7,101.2z"/>
					<path d="M103.4,109.9c-0.6,0-1.3,0-1.9,0c0.4,0.4,0.8,0.8,1.2,1.2c0,0,0,0,0,0c0-0.7-0.6-1.2-1.2-1.2c0,0-0.1,0-0.1,0
						c-0.7,0-1.2,0.6-1.2,1.2c0,0,0,0,0,0c0.4-0.4,0.8-0.8,1.2-1.2c-22.3,0.1-44.8-2.9-66.7-6.9c0,0.8,0,1.6,0,2.4
						c10.5-4,4.4-19.3,4.7-27.6c1-24.8,14.1-49.1,37.2-59.4c13.8-6.2,28-7.2,42.4-2.7c10.6,3.3,20.2,9.2,27.6,17.4
						c9.2,10.2,14,24.5,16.2,37.9c0.9,5.8,0.8,11.1-0.3,16.8c-1.1,5.9-0.7,15,5.7,17.5c0-0.8,0-1.6,0-2.4
						C147,106.8,125.1,109.8,103.4,109.9c-1.6,0-1.6,2.5,0,2.5c21.9-0.1,44-3.1,65.5-7c1.3-0.2,1-2,0-2.4
						c-5.9-2.3-4.5-11.5-3.5-16.4c1.3-6.2,0.5-12.9-0.7-19c-2.4-12.2-6.8-24.9-14.9-34.5c-6.7-8-15.4-14.1-25.1-17.9
						c-13.1-5.2-26.4-6.1-40-2.2c-9.3,2.7-18,7.2-25.2,13.6c-10.1,8.8-15.4,20.1-19.2,32.8c-2.4,8.1-4.3,17.1-3.1,25.7
						c0.8,5.4,3.6,15.4-3.2,18c-1,0.4-1.3,2.1,0,2.4c22.1,4,44.9,7,67.4,6.9c0.7,0,1.2-0.6,1.2-1.2c0,0,0,0,0,0
						c-0.4,0.4-0.8,0.8-1.2,1.2c0,0,0.1,0,0.1,0c-0.4-0.4-0.8-0.8-1.2-1.2c0,0,0,0,0,0c0,0.7,0.6,1.2,1.2,1.2c0.6,0,1.3,0,1.9,0
						C105,112.3,105,109.9,103.4,109.9z"/>
				</g>
			</g>
		</g>
		<g>
			<g>
				<path d="M21.9,131c17.6,2.5,35.3,4.4,53.1,5.7c28,2,55.6,0.7,83.4-2.6c7.5-0.9,15-1.9,22.5-3.1c1.6-0.3,0.9-2.6-0.7-2.4
					c-19.3,3.1-38.9,5.3-58.4,6.3c-26.2,1.4-52.4-0.7-78.4-3.7c-6.9-0.8-13.9-1.6-20.8-2.6C21,128.4,20.3,130.8,21.9,131L21.9,131z"
					/>
			</g>
		</g>
		<g>
			<g>
				<path d="M21.9,148.8c17.6,2.5,35.3,4.4,53.1,5.7c28,2,55.6,0.7,83.4-2.6c7.5-0.9,15-1.9,22.5-3.1c1.6-0.3,0.9-2.6-0.7-2.4
					c-19.3,3.1-38.9,5.3-58.4,6.3c-26.2,1.4-52.4-0.7-78.4-3.7c-6.9-0.8-13.9-1.6-20.8-2.6C21,146.2,20.3,148.6,21.9,148.8
					L21.9,148.8z"/>
			</g>
		</g>
		<g>
			<g>
				<path d="M27.2,166.6c23.5,3.8,47.5,6.4,71.3,6.9c25.8,0.5,52.1-2.2,77.5-6.9c1.6-0.3,0.9-2.7-0.7-2.4
					c-25.2,4.6-51.2,7.3-76.8,6.8c-23.6-0.5-47.3-3-70.6-6.8C26.3,163.9,25.6,166.3,27.2,166.6L27.2,166.6z"/>
			</g>
		</g>
		<g>
			<g>
				<path d="M40,97.3c4.7-2.6,10.1-4.1,15.2-5.4c15-4,30.8-5.3,46.3-5.3c15.5,0.1,31.1,1.9,46,6.5c5.4,1.6,11,3.5,15.9,6.4
					c1.4,0.8,2.6-1.3,1.2-2.1c-11.6-6.8-26.2-9.8-39.3-11.6C101,82.5,74.7,83.5,51,90.5c-4.1,1.2-8.4,2.6-12.3,4.7
					C37.3,96,38.6,98.1,40,97.3L40,97.3z"/>
			</g>
		</g>
		<g>
			<g>
				<path d="M48,116.7c-2.2,8.2-1.8,17.3-0.7,25.6c2.8,20.6,13.4,38.8,27.9,53.4c1.1,1.1,2.9-0.6,1.7-1.7
					c-14.4-14.5-24.8-32.6-27.4-53.1c-0.9-7.6-1.2-16,0.8-23.5C50.8,115.8,48.4,115.1,48,116.7L48,116.7z"/>
			</g>
		</g>
		<g>
			<g>
				<path d="M65.2,118.9c1.2,11.6,2.9,23.1,5.1,34.6c1.7,8.8,3.6,17.6,6.5,26.1c2,6,4.4,12.8,9.1,17.3c1.1,1.1,2.9-0.6,1.7-1.7
					c-4.8-4.7-7.1-11.9-9.1-18.1c-2.6-8.2-4.5-16.7-6.1-25.2c-2-10.9-3.7-21.8-4.8-32.8C67.5,117.4,65,117.4,65.2,118.9L65.2,118.9z
					"/>
			</g>
		</g>
		<g>
			<g>
				<path d="M90.8,119.9c-0.4,12.5-0.3,25.1,0.3,37.6c0.4,8.6,0.9,17.3,2.3,25.8c0.8,4.7,1.5,11.8,5.5,15.1c1.2,1,3-0.7,1.7-1.7
					c-4-3.2-4.5-11.1-5.2-15.7c-1.3-8.8-1.7-17.7-2-26.5c-0.4-11.5-0.5-23-0.2-34.5C93.3,118.3,90.8,118.3,90.8,119.9L90.8,119.9z"
					/>
			</g>
		</g>
		<g>
			<g>
				<path d="M27.4,112.4c-4.8,27.7,5.9,58.2,25.9,77.5c1.1,1.1,2.9-0.6,1.7-1.7c-19.3-18.6-30-48.2-25.3-75.1
					C30,111.5,27.7,110.8,27.4,112.4L27.4,112.4z"/>
			</g>
		</g>
		<g>
			<g>
				<path d="M158,117.3c2.1,7.2,2,15.3,1.2,22.6c-2.3,20.2-12.8,38-27,52.2c-1.1,1.1,0.6,2.9,1.7,1.7c14.1-14.2,24.7-31.8,27.4-51.8
					c1.1-8.2,1.4-17.4-1-25.4C159.9,115.2,157.6,115.8,158,117.3L158,117.3z"/>
			</g>
		</g>
		<g>
			<g>
				<path d="M140.8,118.9c-0.9,10.8-2.3,21.6-4.1,32.4c-1.4,8.3-3.1,16.6-5.5,24.6c-1.9,6.3-4.1,13.5-8.9,18.2
					c-1.1,1.1,0.6,2.9,1.7,1.7c4.5-4.3,6.7-10.7,8.6-16.4c2.8-8.6,4.6-17.5,6.2-26.4c1.9-11.3,3.4-22.7,4.3-34.1
					C143.4,117.4,140.9,117.4,140.8,118.9L140.8,118.9z"/>
			</g>
		</g>
		<g>
			<g>
				<path d="M115.2,119.9c0.4,11.4,0.5,22.8,0.2,34.2c-0.2,8.5-0.6,17.1-1.7,25.5c-0.6,4.8-1,13.1-5.1,16.4c-1.2,1,0.5,2.7,1.7,1.7
					c3.8-3.1,4.6-9.9,5.3-14.4c1.4-8.6,1.8-17.4,2.1-26.2c0.4-12.4,0.4-24.9-0.1-37.4C117.6,118.3,115.1,118.3,115.2,119.9
					L115.2,119.9z"/>
			</g>
		</g>
		<g>
			<g>
				<path d="M178.7,113.1c4.8,26-6.7,54.3-25.3,72.2c-1.1,1.1,0.6,2.8,1.7,1.7c19.3-18.5,30.9-47.7,25.9-74.6
					C180.7,110.8,178.4,111.5,178.7,113.1L178.7,113.1z"/>
			</g>
		</g>
		<g>
			<g>
				<path d="M28.4,112.5c1.4-3.8,5.4-6.6,9.7-6.5c1.6,0,1.6-2.4,0-2.5c-5.4-0.1-10.2,3.2-12.1,8.3C25.5,113.4,27.9,114,28.4,112.5
					L28.4,112.5z"/>
			</g>
		</g>
		<g>
			<g>
				<path d="M38.3,115.5c1.7-4.6,6.4-7.7,11.4-7.6c1.6,0,1.6-2.4,0-2.5c-6.1-0.1-11.7,3.6-13.8,9.4C35.3,116.3,37.7,117,38.3,115.5
					L38.3,115.5z"/>
			</g>
		</g>
		<g>
			<g>
				<path d="M52.1,117.5c1.7-4.6,6.4-7.7,11.4-7.6c1.6,0,1.6-2.4,0-2.5c-6.1-0.1-11.7,3.6-13.8,9.4
					C49.2,118.3,51.6,118.9,52.1,117.5L52.1,117.5z"/>
			</g>
		</g>
		<g>
			<g>
				<path d="M69.9,119.4c1.5-4.9,5.8-8.2,10.9-8.1c1.6,0,1.6-2.4,0-2.5c-6.2-0.1-11.5,4-13.3,9.9C67,120.3,69.4,121,69.9,119.4
					L69.9,119.4z"/>
			</g>
		</g>
		<g>
			<g>
				<path d="M90.6,119.6c-0.7-3.2,2.2-6.3,5.5-7.6c1.5-0.6,0.8-2.9-0.7-2.4c-4.3,1.6-8.3,5.6-7.2,10.6
					C88.6,121.9,91,121.2,90.6,119.6L90.6,119.6z"/>
			</g>
		</g>
		<g>
			<g>
				<path d="M177.9,111.9c-1.9-5.1-6.7-8.4-12.1-8.3c-1.6,0-1.6,2.5,0,2.5c4.3-0.1,8.3,2.7,9.7,6.5
					C176.1,114,178.5,113.4,177.9,111.9L177.9,111.9z"/>
			</g>
		</g>
		<g>
			<g>
				<path d="M168,114.8c-2.2-5.8-7.7-9.5-13.8-9.4c-1.6,0-1.6,2.5,0,2.5c5-0.1,9.7,3,11.4,7.6C166.2,117,168.6,116.3,168,114.8
					L168,114.8z"/>
			</g>
		</g>
		<g>
			<g>
				<path d="M154.2,116.8c-2.2-5.8-7.7-9.5-13.8-9.4c-1.6,0-1.6,2.5,0,2.5c5-0.1,9.7,3,11.4,7.6
					C152.4,118.9,154.8,118.3,154.2,116.8L154.2,116.8z"/>
			</g>
		</g>
		<g>
			<g>
				<path d="M136.4,118.8c-1.8-5.9-7.1-10.1-13.3-9.9c-1.6,0-1.6,2.5,0,2.5c5.1-0.1,9.5,3.2,10.9,8.1
					C134.5,121,136.9,120.3,136.4,118.8L136.4,118.8z"/>
			</g>
		</g>
		<g>
			<g>
				<path d="M115.7,120.3c1.1-5-2.8-8.9-7.2-10.6c-1.5-0.6-2.1,1.8-0.7,2.4c2.4,0.9,4.6,2.4,5.3,5c0.2,0.8,0.3,2.2,0.2,2.6
					C113,121.2,115.3,121.9,115.7,120.3L115.7,120.3z"/>
			</g>
		</g>
		<g>
			<g>
				<path d="M22.7,89.3c4.2,4.7,9.3,10,15.4,12.2c1.5,0.5,2.1-1.8,0.7-2.4c-5.6-2-10.4-7.2-14.3-11.5C23.4,86.3,21.6,88.1,22.7,89.3
					L22.7,89.3z"/>
			</g>
		</g>
		<g>
			<g>
				<path d="M38.3,86.8C35.1,93,28,97.3,21.9,100.2c-1.4,0.7-0.2,2.8,1.2,2.1c6.4-3,13.9-7.7,17.2-14.3C41.1,86.6,39,85.4,38.3,86.8
					L38.3,86.8z"/>
			</g>
		</g>
		<g>
			<g>
				<path d="M23.2,88.6c5.1,2.1,11.3,1.6,16.5,0c1.5-0.5,0.9-2.8-0.7-2.4c-4.8,1.5-10.4,2-15.1,0C22.4,85.6,21.8,88,23.2,88.6
					L23.2,88.6z"/>
			</g>
		</g>
		<g>
			<g>
				<path d="M36.7,102.3c-5.8-3.7-13.9-4.5-16.4,3.3c-0.5,1.5,1.9,2.2,2.4,0.7c2-6.1,8.4-4.6,12.7-1.8
					C36.8,105.3,38,103.2,36.7,102.3L36.7,102.3z"/>
			</g>
		</g>
		<g>
			<g>
				<path d="M178.6,87.5c-3.9,4.3-8.7,9.5-14.3,11.5c-1.5,0.5-0.8,2.9,0.7,2.4c6-2.2,11.1-7.5,15.4-12.2
					C181.4,88.1,179.6,86.3,178.6,87.5L178.6,87.5z"/>
			</g>
		</g>
		<g>
			<g>
				<path d="M162.6,88c3.4,6.6,10.8,11.2,17.2,14.3c1.4,0.7,2.7-1.4,1.2-2.1c-6.1-2.9-13.1-7.1-16.3-13.4
					C164,85.4,161.9,86.6,162.6,88L162.6,88z"/>
			</g>
		</g>
		<g>
			<g>
				<path d="M179.1,86.2c-4.8,2-10.4,1.5-15.1,0c-1.5-0.5-2.2,1.9-0.7,2.4c5.2,1.6,11.3,2.1,16.5,0C181.2,88,180.6,85.6,179.1,86.2
					L179.1,86.2z"/>
			</g>
		</g>
		<g>
			<g>
				<path d="M167.6,104.5c4.3-2.7,10.8-4.3,12.7,1.8c0.5,1.5,2.9,0.9,2.4-0.7c-2.5-7.8-10.5-7-16.4-3.3
					C165,103.2,166.2,105.3,167.6,104.5L167.6,104.5z"/>
			</g>
		</g>
		<g>
			<g>
				<path d="M50.9,84.6C47.5,87,44.6,90.2,43,94c-0.6,1.5,1.8,2.1,2.4,0.7c1.3-3.1,3.9-5.9,6.7-7.9C53.4,85.9,52.2,83.7,50.9,84.6
					L50.9,84.6z"/>
			</g>
		</g>
		<g>
			<g>
				<path d="M61.7,82.3c-3.5,1.4-6.4,4.3-7.8,7.8c-0.6,1.5,1.8,2.1,2.4,0.7c0.8-1.9,2.2-3.5,3.8-4.7c0.5-0.4,1.1-0.7,1.7-1
					c0.2-0.1,1.1-0.5,0.6-0.3C63.8,84.1,63.2,81.7,61.7,82.3L61.7,82.3z"/>
			</g>
		</g>
		<g>
			<g>
				<path d="M69.6,81.3c-3.4,0.8-6.1,3.7-7.4,6.9c-0.6,1.5,1.8,2.1,2.4,0.7c1-2.4,3.1-4.5,5.7-5.2C71.8,83.3,71.2,80.9,69.6,81.3
					L69.6,81.3z"/>
			</g>
		</g>
		<g>
			<g>
				<path d="M78.5,80.3c-3.6,0.7-6.4,3.5-7.8,6.8c-0.6,1.5,1.8,2.1,2.4,0.7c1-2.5,3.4-4.5,6-5.1C80.7,82.3,80.1,80,78.5,80.3
					L78.5,80.3z"/>
			</g>
		</g>
		<g>
			<g>
				<path d="M88.4,79.6c-3.6,0.5-6.5,3.2-7.8,6.5c-0.6,1.5,1.8,2.1,2.4,0.7c1-2.5,3.4-4.4,6-4.7C90.6,81.8,89.9,79.4,88.4,79.6
					L88.4,79.6z"/>
			</g>
		</g>
		<g>
			<g>
				<path d="M99,79.6c-3.6,0.3-6.9,2.5-8.8,5.6c-0.8,1.4,1.3,2.6,2.1,1.2c1-1.7,2.6-3,4.4-3.8c0.5-0.2,1.1-0.4,1.7-0.5
					C98.7,82.1,99,82,99,82C100.6,81.9,100.6,79.4,99,79.6L99,79.6z"/>
			</g>
		</g>
		<g>
			<g>
				<path d="M149.8,86.3c3,2.4,5.7,5.8,7,9.5c0.5,1.5,2.9,0.8,2.4-0.7c-1.4-4.1-4.2-7.9-7.6-10.6C150.3,83.6,148.6,85.3,149.8,86.3
					L149.8,86.3z"/>
			</g>
		</g>
		<g>
			<g>
				<path d="M139.5,84.4c3,1.5,5.3,4.4,6.3,7.5c0.5,1.5,2.9,0.9,2.4-0.7c-1.3-3.7-3.9-7.3-7.5-9C139.3,81.6,138.1,83.7,139.5,84.4
					L139.5,84.4z"/>
			</g>
		</g>
		<g>
			<g>
				<path d="M131.9,83.7c2.7,0.7,4.7,3.5,5.7,6.1c0.5,1.5,2.9,0.8,2.4-0.7c-1.2-3.4-3.7-6.8-7.4-7.9C131,80.8,130.4,83.2,131.9,83.7
					L131.9,83.7z"/>
			</g>
		</g>
		<g>
			<g>
				<path d="M123,82.7c2.7,0.5,5,2.6,6,5.1c0.6,1.5,3,0.8,2.4-0.7c-1.3-3.3-4.2-6.1-7.8-6.8C122.1,80,121.4,82.3,123,82.7L123,82.7z
					"/>
			</g>
		</g>
		<g>
			<g>
				<path d="M113.1,82c2.7,0.4,5,2.3,6,4.7c0.6,1.5,3,0.8,2.4-0.7c-1.3-3.2-4.2-6-7.8-6.5C112.2,79.4,111.6,81.8,113.1,82L113.1,82z
					"/>
			</g>
		</g>
		<g>
			<g>
				<path d="M103.2,82c0,0,0.3,0,0.6,0.1c0.6,0.1,1.1,0.3,1.7,0.5c1.9,0.8,3.4,2.1,4.4,3.8c0.8,1.4,3,0.1,2.1-1.2
					c-1.9-3.1-5.2-5.3-8.8-5.6C101.6,79.4,101.6,81.9,103.2,82L103.2,82z"/>
			</g>
		</g>
	</g>
</g>
</svg>
