<?xml version="1.0" encoding="utf-8"?>
<!-- Generator: Adobe Illustrator 22.1.0, SVG Export Plug-In . SVG Version: 6.00 Build 0)  -->
<svg version="1.1" id="petit_pois" xmlns="http://www.w3.org/2000/svg" xmlns:xlink="http://www.w3.org/1999/xlink" x="0px" y="0px"
	 viewBox="0 0 200 200" style="enable-background:new 0 0 200 200;" xml:space="preserve">
<g>
	<g>
		<g>
			<path d="M14.7,30c0.5,16.8,5.4,34.1,11.5,49.7C40,114.6,64.9,144,97.3,163c10.5,6.1,21.6,11.2,33.1,15.3c6.5,2.3,13.2,4.3,19.9,6
				c3.7,0.9,10.8,3.9,14.6,2c5.5-2.9-5.7-10.7-8.2-12.9c-26.3-23.1-52-47.1-76-72.6c-13.6-14.4-27-29.4-37.8-46.1
				c-3.8-6-7.5-12.3-9.5-19.1C31.9,30.3,23,21.3,17.1,26c-1.1,0.9-2,2.3-2.4,3.7c-0.5,1.5,1.9,2.2,2.4,0.7c0.6-1.9,2.2-3.3,4.2-3.1
				c4.9,0.3,8.9,6.2,10.2,10.3c1.9,6,5.1,11.6,8.4,16.9c9.4,14.9,21.1,28.4,33,41.4c23.7,26,49.4,50.2,75.7,73.6
				c4.5,4,9.8,7.8,13.7,12c0.3,0.3,2,2,1.8,2.4c-0.7,1.4-7.7-0.7-8.7-1c-6.4-1.5-12.8-3.3-19.1-5.3c-11.6-3.8-22.8-8.5-33.5-14.4
				c-32.2-17.7-57.5-45.4-72.1-79.1c-4.9-11.2-8.6-23-11-35c-1.2-6.1-1.4-12.3-2.5-18.3c-0.1-0.3,0-0.6,0-0.9
				C17.1,28.5,14.6,28.4,14.7,30z"/>
		</g>
	</g>
	<g>
		<g>
			<path d="M18.8,26.5c-1.7-2.8-3.8-5.6-6.3-7.8c-1.5-1.3-3.3-2.6-5.3-3c-0.4-0.1-2.2,0.1-2.3-0.1c-0.2-0.3,1.3-1.8,1.5-2
				c0.2-0.2,1.2-1,1.2-1.2c0,0.2-1.1-0.3-0.6,0.3c0.5,0.6,2.8,1.1,3.5,1.5c5.1,2.7,9,7.1,11.1,12.5c0.6,1.5,2.9,0.8,2.4-0.7
				c-2.3-5.9-6.4-10.8-12-13.8c-2.2-1.2-4.6-2.9-6.7-1c-2.2,2-5.1,6.3-0.3,6.9c1.6,0.2,2.9,0.2,4.4,1.2c1.4,0.9,2.6,2.1,3.6,3.4
				c1.4,1.6,2.7,3.3,3.7,5.1C17.5,29.1,19.7,27.8,18.8,26.5L18.8,26.5z"/>
		</g>
	</g>
	<g>
		<g>
			<path d="M33,33.9c0.1-3.7,1.5-8.7,0.6-12.2c-1.3-5.2-7.9-10.5-13.1-10.8c0.1,0.8,0.2,1.6,0.3,2.4c6.2-2.2,10.7,1.8,15.5,5
				c1.2,0.8,1.5,0.8,2.9,1c9.6,1.3,18.1,6.9,25,13.3c6.2,5.7,11.5,12.4,17.1,18.7c6.2,7,12.4,14.1,18.6,21.1
				c13.5,15.3,27,30.6,40.8,45.5c4.6,4.9,9.2,9.9,14,14.6c4.9,4.7,10,8.6,14.3,14c3.4,4.2,6.6,8.6,9.4,13.3c1.5,2.5,2.3,5.1,3.3,7.6
				c0.9,2.4,3.5,3.2,5.8,4.1c2.4,0.9,7,1.3,9,2.8c-1.2-0.9,0-0.2-1.2,0.3c-3.5,1.5-7,2.1-10.9,2.4c-10.2,0.9-23.3-0.2-31.3-7.7
				c-15.8-14.8-32.6-29.1-48.3-44.3c-14.2-13.7-28-27.9-40.9-42.9C53.4,69.9,42.4,56.8,35.8,41.8c-1.2-2.7-2.2-5.4-2.8-8.3
				c-0.4-1.5-2.7-0.9-2.4,0.7c3.3,14.4,13.5,27.3,22.5,38.6c13,16.3,27.4,31.5,42.2,46.2c12.8,12.7,26,25.1,39.5,37.2
				c5,4.5,11.9,10.3,16.1,14.3c5.9,5.7,15.4,8.8,23.4,9.3c5.5,0.4,11.6-0.2,17-1.3c2-0.4,4.8-1,6.3-2.6c1.6-1.8,0.9-3.3-0.9-4.2
				c-3.4-1.7-8.1-1.4-11.2-3.9c-1.6-1.3-2.1-4.4-3.2-6.5c-4.8-9-11.5-18.3-19.2-25.1c-4-3.6-8-6.9-11.8-10.8
				C137.3,111.1,124.1,96,110.8,81C98.2,66.8,85.7,52.4,73,38.1c-7.5-8.4-16.3-16.3-27.2-19.9c-2.5-0.8-4.9-1.1-7.4-1.5
				c-1.4-0.2,0.8,0.6-0.2-0.1c-1.6-1.1-2.9-2.4-4.6-3.4c-4.1-2.5-8.8-4-13.5-2.3c-1.3,0.5-1.1,2.3,0.3,2.4c3.9,0.2,6.9,3.2,9,6.2
				c1.1,1.6,1.7,2.9,1.7,3.5c0,3.5-0.6,7.2-0.7,10.8C30.5,35.5,33,35.5,33,33.9z"/>
		</g>
	</g>
	<g>
		<g>
			<g>
				<path d="M103.8,111.5c2.3-1.4,4.7-1,7.1,0.1c1.3,0.6,2.4-0.9,1.5-1.9c-2.7-3.3-5.4-6.5-8.2-9.7c-0.8-0.9-2.4,0.1-2.1,1.2
					c1.7,5.5-1.2,10.8-7.7,8c-1-0.4-2.5,0.6-1.7,1.7c2.6,3.5,5.3,6.9,8,10.2c0.8,0.9,2.5-0.1,2.1-1.2c-1.1-3-1.4-6.3,1.2-8.6
					c1.2-1.1-0.6-2.8-1.7-1.7c-3.2,2.9-3.2,7.1-1.8,11c0.7-0.4,1.4-0.8,2.1-1.2c-2.6-3.2-5.1-6.4-7.6-9.7c-0.6,0.6-1.1,1.1-1.7,1.7
					c8.1,3.4,13.8-2.7,11.3-10.8c-0.7,0.4-1.4,0.8-2.1,1.2c2.7,3.2,5.5,6.4,8.2,9.7c0.5-0.6,1-1.3,1.5-1.9c-3.3-1.6-6.4-2.1-9.6-0.1
					C101.2,110.2,102.5,112.3,103.8,111.5z"/>
			</g>
		</g>
		<g>
			<g>
				<path d="M121.1,128.4c0.9-0.6,1.8-1,2.9-1c0.7-0.1,1.2-1.2,0.7-1.8c-2-2.8-4.1-5.5-6.2-8.3c-0.8-1-2.3,0.1-2.1,1.2
					c1.5,5.9-2.5,10.2-8.5,7.2c-1.2-0.6-2.5,0.9-1.5,1.9c4.1,4.4,8.4,8.6,12.9,12.7c1,0.9,2.7-0.2,1.9-1.5c-2-3.3-3.2-7.6,0.1-10.6
					c1.2-1.1-0.6-2.8-1.7-1.7c-4.1,3.8-3,9.3-0.5,13.6c0.6-0.5,1.3-1,1.9-1.5c-4.5-4-8.8-8.3-12.9-12.7c-0.5,0.6-1,1.3-1.5,1.9
					c7.9,3.9,14.2-1.6,12.1-10c-0.7,0.4-1.4,0.8-2.1,1.2c2,2.6,3.9,5.1,5.8,7.8c0.2-0.6,0.5-1.2,0.7-1.8c-1.4,0.2-2.3,0.6-3.5,1.3
					C118.5,127.1,119.8,129.2,121.1,128.4z"/>
			</g>
		</g>
		<g>
			<g>
				<path d="M73,74.6c-1.3,0.6-2.7,0.4-4-0.1c-1-0.3-2,0.9-1.4,1.8c1.8,2.6,3.7,5.1,5.5,7.7c0.7,1,2.8,0.4,2.3-0.9
					c-0.8-2-1.7-4.7-0.7-6.8c0.7-1.4-1.4-2.7-2.1-1.2c-1.3,2.8-0.7,5.9,0.4,8.7c0.8-0.3,1.5-0.6,2.3-0.9c-1.8-2.6-3.7-5.1-5.5-7.7
					c-0.5,0.6-0.9,1.2-1.4,1.8c2,0.7,4,0.7,5.9-0.2C75.6,76.1,74.4,74,73,74.6z"/>
			</g>
		</g>
		<g>
			<g>
				<path d="M89.7,94.7c2.2-1.4,4.3-1.1,6.6-0.1c1.3,0.6,2.5-0.8,1.5-1.9c-2.3-2.6-4.6-5.2-6.9-7.8c-0.8-0.9-2.4,0-2.1,1.2
					c0.6,2.1,1.6,6.1-1.4,7c-2.4,0.8-5.4-1.6-7.1-3c-1-0.8-2.8,0.3-1.9,1.5c2.4,3.4,4.9,6.7,7.3,10.1c0.9,1.2,2.4,0.4,2.3-0.9
					c-0.3-2.4,0.1-4.5,1.9-6.2c1.2-1.1-0.6-2.8-1.7-1.7c-2.6,2.3-3,5.3-2.6,8.6c0.8-0.3,1.5-0.6,2.3-0.9c-2.5-3.4-4.9-6.7-7.3-10.1
					c-0.6,0.5-1.3,1-1.9,1.5c2.7,2.3,6.8,5.1,10.5,3.2c3.6-1.8,3.1-6.5,2.1-9.7c-0.7,0.4-1.4,0.8-2.1,1.2c2.3,2.6,4.6,5.2,6.9,7.8
					c0.5-0.6,1-1.3,1.5-1.9c-3.1-1.4-6.1-1.8-9.1,0.1C87.1,93.4,88.3,95.5,89.7,94.7z"/>
			</g>
		</g>
		<g>
			<g>
				<path d="M75.9,75.2c1.1-0.5,2.4-0.1,3.4,0.2c1.2,0.4,2-1.2,1.2-2.1c-1.2-1.3-2.4-2.6-3.6-3.9c-0.7-0.8-2.2-0.2-2.1,0.9
					c0.1,1.1,0,2.2-0.6,3.2c-0.8,1.4,1.4,2.6,2.1,1.2c0.8-1.4,1-2.9,0.9-4.4c-0.7,0.3-1.4,0.6-2.1,0.9c1.2,1.3,2.4,2.6,3.6,3.9
					c0.4-0.7,0.8-1.4,1.2-2.1c-1.8-0.6-3.6-0.8-5.3,0c-0.6,0.3-0.7,1.2-0.4,1.7C74.5,75.4,75.3,75.4,75.9,75.2z"/>
			</g>
		</g>
		<g>
			<g>
				<path d="M62.9,60.8c0.8-0.5,1.5-0.7,2.4-0.7c1.1,0,1.6-1.3,0.9-2.1c-0.8-0.9-1.8-1.7-2.7-2.6c-0.7-0.6-1.8-0.4-2.1,0.5
					c-0.5,2-2,2.9-4,2.9c-0.9,0-1.6,1.1-1.1,1.9c1,1.4,1.9,2.7,2.9,4.1c0.7,1,2.3,0.7,2.3-0.6c0-1.4,0.4-2.6,1.5-3.6
					c1.2-1-0.5-2.8-1.7-1.7c-1.6,1.4-2.2,3.3-2.3,5.3c0.8-0.2,1.5-0.4,2.3-0.6c-1-1.4-1.9-2.7-2.9-4.1c-0.4,0.6-0.7,1.2-1.1,1.9
					c3.1,0,5.6-1.7,6.4-4.7c-0.7,0.2-1.4,0.4-2.1,0.5c0.9,0.8,1.8,1.7,2.7,2.6c0.3-0.7,0.6-1.4,0.9-2.1c-1.3,0-2.5,0.3-3.7,1.1
					C60.4,59.6,61.6,61.7,62.9,60.8z"/>
			</g>
		</g>
		<g>
			<g>
				<path d="M50.9,43.4C47,39.7,43.1,36,39.2,32.3c-1-0.9-2.8,0.3-1.9,1.5c3.2,4.5,6.4,9,9.6,13.5c0.5,0.7,1.7,0.9,2.1,0
					c0.4-0.8,0.9-1.5,1.7-1.9c1.4-0.8,0.1-2.9-1.2-2.1c-1.2,0.7-2,1.6-2.6,2.8c0.7,0,1.4,0,2.1,0c-3.2-4.5-6.4-9-9.6-13.5
					c-0.6,0.5-1.3,1-1.9,1.5c3.9,3.7,7.8,7.4,11.8,11.2C50.3,46.3,52.1,44.5,50.9,43.4z"/>
			</g>
		</g>
		<g>
			<g>
				<path d="M172.5,174.7c1.1,0.5,2.2,1.1,3.4,1.5c0.9,0.3,2,0.3,2.3-0.8c0.2-0.8-0.4-1.5-0.9-2c-0.8-0.7-1.6-1.4-2.5-2
					c-0.7-0.6-1.7-0.4-2.1,0.5c-0.1,0.3-0.3,0.6-0.5,0.8c-0.4,0.5-0.5,1.3,0,1.7c0.5,0.5,1.3,0.5,1.7,0c0.5-0.6,0.9-1.2,1.1-1.9
					c-0.7,0.2-1.4,0.4-2.1,0.5c0.7,0.6,1.4,1.1,2.1,1.7c0.2,0.2,0.4,0.4,0.6,0.6c0,0,0.2,0.2,0.2,0.2c0,0-0.2-0.3-0.1-0.1
					c-0.2-0.4-0.1-0.6,0.1-1c0.3-0.4,0.3-0.6,0.8-0.6c-0.2,0,0.3,0.1,0.1,0c-0.2-0.1-0.5-0.1-0.7-0.2c-0.2-0.1-0.3-0.1-0.5-0.2
					c-0.4-0.1,0.2,0.1-0.2-0.1c-0.1,0-0.2-0.1-0.3-0.1c-0.5-0.2-1.1-0.5-1.6-0.7c-0.6-0.3-1.3-0.2-1.7,0.4
					C171.8,173.6,171.9,174.5,172.5,174.7z"/>
			</g>
		</g>
		<g>
			<g>
				<path d="M134.7,146.9c1-1.2,2.2-1.6,3.8-1.7c1-0.1,1.7-1.3,0.9-2.1c-1.1-1-2.2-2.1-3.3-3.2c-0.7-0.7-1.8-0.3-2.1,0.5
					c-1.3,3.6-4.7,3.9-7.8,2.7c-1.1-0.4-2.1,1.3-1.2,2.1c2.3,1.9,4.7,3.8,7.1,5.6c0.8,0.6,1.8-0.2,1.9-1.1c0-1.1,0.3-2.2,0.9-3.1
					c0.9-1.3-1.3-2.6-2.1-1.2c-0.9,1.4-1.2,2.7-1.2,4.3c0.6-0.4,1.2-0.7,1.9-1.1c-2.3-1.7-4.5-3.4-6.6-5.2c-0.4,0.7-0.8,1.4-1.2,2.1
					c4.6,1.7,9.1,0.3,10.8-4.5c-0.7,0.2-1.4,0.4-2.1,0.5c1.1,1.1,2.2,2.1,3.3,3.2c0.3-0.7,0.6-1.4,0.9-2.1c-2.2,0.2-4,0.8-5.5,2.5
					C131.9,146.3,133.7,148,134.7,146.9z"/>
			</g>
		</g>
		<g>
			<g>
				<path d="M157.7,161.5c0.2-0.3,0.5-0.5,0.7-0.7c0.5-0.4,0.5-1.4,0-1.7c-1.2-0.9-2.4-1.9-3.6-2.8c-0.8-0.6-2.1-0.3-2.1,0.9
					c0,1.7-0.5,3.1-2,4c-0.8,0.5-0.8,1.6,0,2.1c1.6,1,3.3,1.9,4.9,2.8c0.9,0.5,2.1-0.3,1.8-1.4c-0.3-1.3-0.4-2.3,0.4-3.4
					c0.9-1.3-1.2-2.5-2.1-1.2c-1.1,1.6-1.1,3.5-0.6,5.3c0.6-0.5,1.2-0.9,1.8-1.4c-1.6-0.9-3.3-1.9-4.9-2.8c0,0.7,0,1.4,0,2.1
					c2.2-1.4,3.3-3.5,3.2-6.1c-0.7,0.3-1.4,0.6-2.1,0.9c1.2,0.9,2.4,1.9,3.6,2.8c0-0.6,0-1.2,0-1.7c-0.3,0.2-0.5,0.4-0.7,0.7
					C154.9,160.9,156.7,162.6,157.7,161.5z"/>
			</g>
		</g>
		<g>
			<g>
				<path d="M63.5,55.4c-4.2-4-8.4-8-12.6-12c-0.4-0.4-1-0.5-1.5-0.2c-1.2,0.8-1.9,1.5-2.6,2.8c-0.2,0.4-0.3,0.9,0,1.2
					c1.6,2.3,3.2,4.6,4.9,6.8c0.9,1.2,1.8,2.5,2.6,3.7c0.6,0.9,1.4,2.5,2.2,3.1c2.9,2.1,6.5-1.9,7.3-4.4c0.5-1.5-1.9-2.2-2.4-0.7
					c-0.3,0.9-1.3,2.6-2.4,2.7c-1.4,0.1-1.6-0.7-2.3-1.6c-1-1.4-2-2.8-3-4.2c-0.8-1.2-1.7-2.4-2.5-3.5c-1.2-1.7-2.9-2.5-0.6-4
					c-0.5-0.1-1-0.1-1.5-0.2c4.2,4,8.4,8,12.6,12C62.9,58.3,64.7,56.5,63.5,55.4z"/>
			</g>
		</g>
		<g>
			<g>
				<path d="M74.7,76.3c1.3-1.9,3.4-3.2,2.6-6c-0.6-2.1-3.3-4.1-4.9-5.7c-2.2-2.4-5.3-7.8-9-6.7c-1.7,0.5-3,1.7-3.7,3.4
					c-1.2,3,0.2,4.2,1.9,6.6c1.1,1.6,2.3,3.2,3.4,4.7c0.8,1.2,1.7,2.9,2.7,3.8c1.6,1.4,4.4,1.1,6.2,0.4c1.4-0.6,0.8-3-0.7-2.4
					c-2.8,1.2-4,0.1-5.4-2c-1.1-1.6-2.3-3.2-3.4-4.7c-1.1-1.5-3.8-4.2-2.2-6.2c1.6-2,2.4-1.6,3.6-0.3c1.8,1.9,3.6,3.9,5.5,5.8
					c1,1.1,3.3,2.7,3.4,4.2c0.1,1.5-1.5,2.6-2.3,3.7C71.6,76.4,73.8,77.6,74.7,76.3z"/>
			</g>
		</g>
		<g>
			<g>
				<path d="M90,94.4c1.8-1.7,2.2-3.9,1.9-6.3c-0.4-3.5-2.7-5.2-4.9-7.7C83.8,77,78.8,69,73.6,74.1c-4.6,4.5,0.1,10.9,3,14.9
					c2.8,3.9,8.1,8.7,13.2,5.7c1.4-0.8,0.1-2.9-1.2-2.1c-4.4,2.6-8.8-3.4-10.9-6.4c-1.9-2.6-5.2-7.3-2.3-10.2c3-2.9,6.6,2.6,8.5,4.7
					c2.6,2.9,8.6,8.1,4.5,12.1C87.1,93.8,88.9,95.5,90,94.4z"/>
			</g>
		</g>
		<g>
			<g>
				<path d="M74.2,76.8c0.9-0.5,1.6-1.2,2.1-2c0.7-1.1-0.6-2.2-1.7-1.7c-0.9,0.5-1.6,1.2-2.1,2c-0.8,1.4,1.4,2.6,2.1,1.2
					c0.3-0.5,0.7-0.9,1.2-1.2c-0.6-0.6-1.1-1.1-1.7-1.7c-0.3,0.5-0.7,0.9-1.2,1.2C71.6,75.4,72.8,77.5,74.2,76.8z"/>
			</g>
		</g>
		<g>
			<g>
				<path d="M102.5,111c2-1.8,2.9-4.2,2.8-6.9c-0.1-3.4-1.7-4.9-3.8-7.4c-2.2-2.6-3.8-4.9-7.3-5.5c-2.4-0.4-4.9,0.3-6.6,2
					c-1.6,1.6-2.2,4-2.1,6.2c0.1,2.9,2.5,5.1,4.2,7.3c1.4,1.9,2.7,4.3,5,5.2c2.7,0.9,5.3,0.8,7.7-0.7c1.3-0.8,0.1-3-1.2-2.1
					c-3.8,2.4-6.7-0.1-9-3.1c-2.1-2.8-5.5-6.1-3.6-9.8c1-2,3.8-3.1,6-2.3c2.1,0.8,3.4,2.6,4.8,4.2c1.4,1.6,3,3,3.4,5.2
					c0.4,2.3-0.2,4.5-1.9,6C99.6,110.3,101.3,112,102.5,111z"/>
			</g>
		</g>
		<g>
			<g>
				<path d="M116.6,127.8c1.9-1.7,2.8-4,2.8-6.5c0-3.2-1.6-4.8-3.5-7.2c-2.1-2.6-3.6-5-7-5.8c-2.3-0.5-4.7-0.1-6.6,1.3
					c-4.1,3.3-3.2,9.5-0.2,13.1c2,2.4,3.8,5.2,6.9,6.2c2.6,0.8,5.1,0.6,7.3-0.9c1.3-0.9,0.1-3-1.2-2.1c-4.2,2.7-7.6-0.7-10.2-3.7
					c-2.3-2.7-4.6-7-1.5-10.3c3.7-4,8.1,0.5,10.4,3.4c2.6,3.2,4.9,7.4,1.1,10.8C113.7,127.1,115.5,128.9,116.6,127.8z"/>
			</g>
		</g>
		<g>
			<g>
				<path d="M134,144.7c1.2-1.1,1.9-2.2,2.4-3.7c0.1-0.4,0-0.9-0.3-1.2c-4.4-4.4-7.8-9.2-11.3-14.3c-0.3-0.5-0.8-0.7-1.4-0.6
					c-6.4,1.1-7.7,7.8-5.3,13c1.3,2.8,4.5,5.8,7.2,7.4c2.6,1.5,6,1.1,8.5-0.4c1.3-0.8,0.1-3-1.2-2.1c-8.5,5.3-19.5-13.6-8.5-15.4
					c-0.5-0.2-0.9-0.4-1.4-0.6c1.7,2.4,3.3,5,5.1,7.4c1,1.3,2,2.5,3,3.6c1.5,1.7,3.8,3.1,1.4,5.2C131,144.1,132.8,145.8,134,144.7z"
					/>
			</g>
		</g>
		<g>
			<g>
				<path d="M154,161.5c0.8-1.3,1.8-3.5,1.1-5c-0.6-1.2-2.8-2.4-3.9-3.2c-1.2-1-2.5-2-3.7-3c-1.6-1.4-3.2-2.7-4.8-4.1
					c-0.9-0.8-2.3-2.6-3.4-3.1c-1.4-0.5-2.8-0.2-4.2,0.4c-2.9,1.4-5,5.3-2.5,7.8c4.9,4.8,12.2,8.5,18.1,12c0.4,0.2,0.9,0.2,1.2,0
					c0.9-0.6,1.1-0.7,1.8-1.5c1.1-1.1-0.6-2.9-1.7-1.7c-1.5,1.5-7.7-3.6-9.3-4.7c-1.4-1-2.9-1.9-4.3-2.9c-0.9-0.6-3.6-1.9-4-2.9
					c0-3.4,1.4-4.6,4.2-3.7c0.4,0.3,0.8,0.7,1.1,1c1.7,1,3.2,2.8,4.7,4.1c2.2,1.9,9.3,5.7,7.3,9.2
					C151.1,161.6,153.2,162.8,154,161.5z"/>
			</g>
		</g>
		<g>
			<g>
				<path d="M155.8,160c-0.8,1.3-1.2,2.8-0.9,4.3c0.4,2.2,2.4,2.7,4.3,3.7c4.4,2.3,8.8,4.6,13.3,6.8c0.5,0.2,1.1,0.2,1.5-0.2
					c0.5-0.6,0.8-1.2,1.1-1.9c0.1-0.4,0-1-0.3-1.2c-5.5-4.3-11.1-8.4-16.6-12.6c-0.4-0.3-1.1-0.2-1.5,0.2c-0.2,0.2-0.5,0.5-0.7,0.7
					c-1.1,1.1,0.6,2.8,1.7,1.7c0.2-0.2,0.5-0.5,0.7-0.7c-0.5,0.1-1,0.1-1.5,0.2c1.1,0.8,15.4,11.7,15.3,11.9c0.5-0.1,1-0.1,1.5-0.2
					c-2.6-1.2-5.1-2.5-7.7-3.9c-2.6-1.3-10.4-3.8-8.2-7.5C158.7,159.8,156.6,158.6,155.8,160z"/>
			</g>
		</g>
	</g>
</g>
</svg>
