<?xml version="1.0" encoding="utf-8"?>
<!-- Generator: Adobe Illustrator 22.1.0, SVG Export Plug-In . SVG Version: 6.00 Build 0)  -->
<svg version="1.1" id="poireau" xmlns="http://www.w3.org/2000/svg" xmlns:xlink="http://www.w3.org/1999/xlink" x="0px" y="0px"
	 viewBox="0 0 200 200" style="enable-background:new 0 0 200 200;" xml:space="preserve">
<g>
	<g>
		<g>
			<g>
				<path d="M138.5,39.8c3-4.4,5.8-9,8.5-13.6c1.5-2.6,3.1-5.2,4.1-8.1c0.6-1.8,0.7-3.5,1.7-5.3c1.7-2.9,4.3-5.8,7.2-7.5
					c5.1-3.1,7.9,0.1,9.3,5.2c2,7.8,0.4,17.4-4.8,23.8c-1,1.2,0.8,3,1.8,1.8c5.4-6.7,7.4-16.2,5.8-24.6c-1.6-8.4-7.1-13.1-14.7-7.4
					c-2.8,2.1-5.3,4.9-7,8c-1.2,2.2-1.3,4.7-2.3,7c-3.1,6.8-7.5,13.2-11.6,19.4C135.4,39.9,137.6,41.1,138.5,39.8L138.5,39.8z"/>
			</g>
		</g>
		<g>
			<g>
				<path d="M148,43.8c5.5-2.2,10.9-4.3,16.4-6.5c3.9-1.5,10.7-5.2,14-5.3c5.5-0.1,13.1,3.5,10.5,9.9c-2.7,6.6-10.2,10.4-15.7,14.5
					c-2.4,1.8-4.8,3.7-7.2,5.6c-1.3,1,0.5,2.8,1.8,1.8c4-3.2,8-6.2,12.1-9.2c4.7-3.4,9.8-6.8,11.8-12.7c2.3-7-4-10.6-9.9-11.9
					c-5-1-8.3,1.1-13,2.9c-7.1,2.8-14.2,5.6-21.3,8.4C145.8,42,146.5,44.4,148,43.8L148,43.8z"/>
			</g>
		</g>
		<g>
			<g>
				<path d="M147.7,69.9c8.9-2,17.9-3.9,26.8-5.9c-0.5-0.3-1-0.6-1.5-0.9c0.6,3.2,1,6.5,1.7,9.7c0.4,1.8,0.5,1.1-0.5,3.2
					c-4.6,9-15.8,13-24.9,15.2c-19.4,4.5-35.9,19.6-50.1,32.8c-6.9,6.5-13.4,13.3-19.7,20.3c-10.8,12-22.2,24.1-31.4,37.4
					c-1,1.5-1.8,3.1-2.5,4.7c-0.2,0.4,0.7-0.5-0.4,0.6c-1.1,1.1-2.1,2.2-3.3,3.2c-4.2,3.5-9.4,6.1-15,5.5
					c-6.1-0.6-15.3-5.9-13.4-13.1c1.5-5.6,6.2-9.7,10.2-13.6c3.2-3.2,6.3-6.6,9.4-9.9c17.9-18.8,36.1-37.2,53.6-56.4
					c6.6-7.3,13.3-14.9,18.1-23.6c4.6-8.2,6.4-18.3,9.3-27.1c1.8-5.5,3.5-13.3,6.2-17.6c1.7-2.8,5.1-7.8,8.8-7.9
					c7.3-0.2,7.6,15,7.2,19.8c-0.4,4.1-1.4,8.4-3.1,12.2c-0.7,1.5,1.5,2.7,2.2,1.3c4.1-9.1,5.3-21,0.8-30.2
					c-4.2-8.5-11.3-5.3-16,0.8c-3.5,4.6-4.7,10-6.5,15.4c-1.9,5.8-3.9,11.6-5.7,17.5c-1.6,5-2.7,10.1-5.2,14.7
					c-6.7,12-16.7,22-26.1,32c-12,12.6-24,25.2-36,37.8c-7.5,7.8-15.2,15.5-22.5,23.4c-5.8,6.3-10.9,14.8-3.2,21.6
					c8.3,7.4,18.7,7.1,27.3,0.5c1.9-1.4,4.4-3.2,5.6-5.3c0.9-1.5,1.5-3.3,2.5-4.8c5.1-7.4,11.2-14.3,17-21.1
					c7.6-8.9,15.2-17.8,23.4-26.2c14.6-14.9,31.1-30.8,50.4-39.3c10.4-4.6,21.9-5,30.6-13.2c2.7-2.6,6-6.2,5.7-10.1
					c-0.3-3.5-1.2-7.1-1.8-10.6c-0.1-0.7-0.9-1-1.5-0.9c-8.9,2-17.9,3.9-26.8,5.9C145.5,67.8,146.2,70.3,147.7,69.9L147.7,69.9z"/>
			</g>
		</g>
		<g>
			<g>
				<path d="M80.1,109.2c9.8-1.6,17.7,5.4,20.2,14.5c0.4,1.5,2.8,0.9,2.4-0.7c-2.9-10.5-12-18.1-23.3-16.3
					C77.9,107.1,78.6,109.5,80.1,109.2L80.1,109.2z"/>
			</g>
		</g>
	</g>
	<g>
		<g>
			<path d="M75.7,117.9c-3.9,1.8-7.3,5.8-10.3,8.7c-5.6,5.5-10.9,11.2-16.3,16.9c-7.3,7.9-14.6,15.9-21.7,24c-1.1,1.2,0.7,3,1.8,1.8
				c6.9-7.8,13.9-15.6,21-23.2c5.3-5.7,10.6-11.3,16-16.8c3.1-3.1,6.6-7.4,10.7-9.3C78.4,119.4,77.2,117.2,75.7,117.9L75.7,117.9z"
				/>
		</g>
	</g>
</g>
</svg>
