<?xml version="1.0" encoding="utf-8"?>
<!-- Generator: Adobe Illustrator 22.1.0, SVG Export Plug-In . SVG Version: 6.00 Build 0)  -->
<svg version="1.1" id="poivron" xmlns="http://www.w3.org/2000/svg" xmlns:xlink="http://www.w3.org/1999/xlink" x="0px" y="0px"
	 viewBox="0 0 200 200" style="enable-background:new 0 0 200 200;" xml:space="preserve">
<g>
	<g>
		<g>
			<g>
				<path d="M105.8,79.9c14.1-5.5,30-10.1,45.2-10c6.5,0.1,15.6,1.1,18.8,7.8c2.2,4.6,2.7,10.1,3.1,15.1c1.2,15.3-0.4,31-3.3,46.1
					c-3,15.1-7.4,31.2-16.7,43.8c-4,5.5-9.4,10.5-16.2,12c-7.8,1.8-15.5-1.5-21.8-5.8c-0.3-0.2-0.9-0.2-1.3,0
					c-7.3,5.4-20.2,11.4-27.9,3c-0.4-0.4-1-0.4-1.5-0.2c-13.3,6.5-31,5.1-42-5.4C28,172.7,24.4,150.4,23,131.8
					c-0.6-8-0.8-16-0.7-24.1c0.1-8.7,0-18,1.4-26.7c0.9-5.5,6.3-11.6,9.8-15.7c4.4-5.1,10.1-8.9,16.6-10.3
					c19.8-4.3,41.4,11.1,54.5,24.5c1.1,1.2,2.9-0.6,1.8-1.8c-11.7-12-28.1-23.4-45-25.6C48.8,50.6,37.6,55.8,30,65.7
					c-3.1,4-7.6,9.1-8.6,14.3c-1.7,8.1-1.3,17.2-1.5,25.4c-0.7,29.8,1.1,87.4,41.2,92.4c7.5,0.9,15.3-0.3,22.3-3.1
					c0.6-0.2,1.4-0.4,2-0.8c-0.3,0.2-1.2-0.8-1,0.1c0.2,0.8,3,2.2,3.6,2.5c4.7,2.4,10.3,2.5,15.3,0.9c1.5-0.5,2.9-1,4.2-1.7
					c1.8-0.9,4.5-3.5,6.3-3.8c1.8-0.3,5,2.3,6.9,3.2c38.8,17.2,51.5-49.2,54-73.8c1-9.4,1.4-19,0.7-28.5c-0.4-5.7-1-12.5-4-17.5
					c-4.8-8-17-8.3-25.1-7.7c-11.7,0.8-23.4,3.8-34.5,7.6c-2.2,0.7-4.4,1.5-6.6,2.4C103.7,78.1,104.3,80.5,105.8,79.9z"/>
			</g>
		</g>
		<g>
			<g>
				<path d="M93.8,68.4c2.2-4.8,4.3-9.7,6.5-14.5c1.1-2.6,2.5-4.9,2.8-7.7c1.7-12.5,5-25.3,14.5-34.3c3.1-2.9,6.9-5.6,11-6.9
					c3.6-1.1,10.9-1.7,14.5-0.1c3.5,1.5,0.5,3.2-0.9,5.1c-0.7,1-1.1,2.2-1.7,3.2c-1.1,1.7-2.6,3.1-4.5,3.9c-2.5,1-4.2,0.1-6.6,0.2
					c-4,0.3-6,4.4-7.3,7.7c-3,7.6-3.9,16.2-4.3,24.3c-0.4,8-0.4,16.8,2.3,24.5c0.5,1.5,3,0.9,2.4-0.7c-2.8-7.8-2.7-16.8-2.2-25
					c0.5-8,1.3-17.4,5.2-24.6c1.6-3,2.6-3.7,5.8-3.4c3.5,0.4,6.6-0.6,9.1-3c1.7-1.6,2.5-3.6,3.7-5.5c0.6-1-0.4,0.5,0.2-0.2
					c0.4-0.5,0.9-0.9,1.3-1.4c1.7-2.1,2.6-4.7,0.3-6.6c-1.7-1.4-4.4-1.6-6.5-1.7c-5.3-0.4-10.3,0-15,2.4
					c-13.5,6.7-20.5,21.6-22.9,35.9c-0.4,2.1-0.6,4.2-0.8,6.4c0,0.3-0.3,1.7,0.1,0.5c-0.2,0.7-0.7,1.5-1,2.2c-2.7,6-5.4,12-8,18
					C91,68.6,93.1,69.9,93.8,68.4L93.8,68.4z"/>
			</g>
		</g>
		<g>
			<g>
				<path d="M93,89.4c-0.4,13.8-1.1,27.5-2.1,41.3c-0.8,10.8-1.7,21.6-3.3,32.4c-1,7.1-1.9,15.5-5.5,21.9c-0.8,1.4,1.4,2.7,2.2,1.3
					c3.5-6.2,4.5-14.1,5.5-21.1c1.6-10.7,2.6-21.5,3.4-32.3c1.1-14.4,1.9-28.9,2.2-43.4C95.5,87.8,93,87.8,93,89.4L93,89.4z"/>
			</g>
		</g>
		<g>
			<g>
				<path d="M111.2,89c-1.9,8.7-2.6,17.9-3.1,26.8c-1.2,22.8,0.7,45.7,4.9,68.1c0.3,1.6,2.7,0.9,2.4-0.7c-4.2-22.2-6-44.9-4.8-67.5
					c0.5-8.7,1.1-17.6,3-26.1C114,88.1,111.6,87.5,111.2,89L111.2,89z"/>
			</g>
		</g>
	</g>
	<g>
		<g>
			<path d="M39.6,173.8c-8.9-18.1-10.4-39.3-9.9-59.2c0.3-10.7,1.1-21.6,3-32.2c0.3-1.6-2.1-2.2-2.4-0.7c-2,11.2-2.9,22.7-3.1,34.1
				c-0.4,20,1.3,41.1,10.3,59.2C38.1,176.5,40.3,175.2,39.6,173.8L39.6,173.8z"/>
		</g>
	</g>
	<g>
		<g>
			<path d="M139.7,189.9c6.8-6.6,11.7-15.9,15.4-24.5C166,141,169,113.8,168,87.4c-0.1-1.6-2.6-1.6-2.5,0c1,26.3-1.9,53.4-12.8,77.6
				c-3.7,8.1-8.2,16.9-14.7,23.1C136.8,189.2,138.6,191,139.7,189.9L139.7,189.9z"/>
		</g>
	</g>
	<g>
		<g>
			<path d="M114.7,21.6c-5.6,18-11.4,38.1-10.5,57.1c0.1,1.6,2.6,1.6,2.5,0c-0.9-18.8,4.9-38.7,10.4-56.5
				C117.6,20.7,115.2,20,114.7,21.6L114.7,21.6z"/>
		</g>
	</g>
</g>
</svg>
