<?xml version="1.0" encoding="utf-8"?>
<!-- Generator: Adobe Illustrator 22.1.0, SVG Export Plug-In . SVG Version: 6.00 Build 0)  -->
<svg version="1.1" id="pomme_de_terre" xmlns="http://www.w3.org/2000/svg" xmlns:xlink="http://www.w3.org/1999/xlink" x="0px"
	 y="0px" viewBox="0 0 200 200" style="enable-background:new 0 0 200 200;" xml:space="preserve">
<g>
	<g>
		<g>
			<path d="M49.6,34.9c2.5-4.5,6.5-8.6,10.6-11.6c4.1-3,8.8-5.2,13.8-6.3c4.8-1.1,10.5,0.4,14.9-1.6c13.6-6,29.8-16,44.9-9.4
				c5,2.2,8.9,6.1,11.9,10.7c4.5,7.1,5.4,14.5,6.2,22.7c1.2,11.8,2.2,23.5,2.8,35.3c0.2,3.7-0.2,7.8,0.4,11.4
				c0.7,4.4,2.1,8.7,2.4,13.2c2.2,27.6-10.3,52-21.4,76.5c-2.3,5-4.7,12.4-9.7,15.4c-4.4,2.7-10.9,2.3-15.9,3
				c-10.2,1.4-20.6,2.9-31,1.9c-13.8-1.3-24.8-7.4-32.7-18.9c-6.1-8.7-11.7-19.8-8.8-30.7c1.2-4.6,4-7.9,4.3-12.7
				c1.2-16.5-1.2-33.5-1.9-50.1c-0.4-8.7-0.7-17.4-0.1-26.1c0.2-2.9,0.4-6,1.4-8.8c1.4-4.1,4.3-7.9,6.5-11.6
				C48.7,36.6,49.1,35.8,49.6,34.9c0.8-1.4-1.3-2.7-2.2-1.3c-2.8,4.8-6.6,9.6-8.3,14.9c-2.1,6.9-1.7,14.9-1.7,22
				c0.2,19.5,2.5,39,2.4,58.5c0,2.5,0.2,5.5-0.6,8c-0.7,2.4-2.3,4.4-3.1,6.8c-3,8.4-1,17.2,2.7,25.1c5.5,11.4,13.8,21.7,25.8,26.4
				c10.8,4.2,22.7,4.1,34.1,2.9c7.9-0.8,16-1.6,23.8-3.1c4.8-1,8-3.6,10.5-7.7c5.8-9.5,9.6-20.4,14.2-30.5
				c6.3-13.8,11.3-28,12.6-43.2c0.7-8.3,0.4-16.9-1.5-25.1c-0.8-3.3-0.9-4.3-1-8.1c-0.3-10.5-1.1-20.9-2-31.4
				c-0.7-7.7-0.6-16.7-2.8-24.1c-1.6-5.3-4.8-10.7-8.5-14.8c-12.6-13.9-31.5-8.8-46.5-2c-3.2,1.5-6.4,3.5-9.7,4.6
				c-2.8,0.9-6.1,0.3-9.1,0.6c-2.9,0.3-5.7,0.8-8.4,1.7c-8,2.5-15.1,7.7-20.2,14.3c-1,1.3-1.9,2.6-2.7,4
				C46.7,35.1,48.9,36.3,49.6,34.9z"/>
		</g>
	</g>
	<g>
		<g>
			<path d="M119.7,23.5c9.6-0.3,16.5,9.3,19.9,17c0.6,1.5,2.8,0.2,2.2-1.3c-3.7-8.5-11.6-18.5-22-18.2
				C118.1,21.1,118.1,23.6,119.7,23.5L119.7,23.5z"/>
		</g>
	</g>
	<g>
		<g>
			<path d="M74.2,42.2c5.7-1.5,12-0.4,17.2,2.1c1.4,0.7,2.7-1.5,1.3-2.2c-5.8-2.8-12.8-4.1-19.1-2.4C72,40.2,72.6,42.6,74.2,42.2
				L74.2,42.2z"/>
		</g>
	</g>
	<g>
		<g>
			<path d="M63.7,62.8c-4.4,2.9-10.1,7.4-10.7,13.1c-0.2,1.6,2.3,1.6,2.5,0C56,71.4,61.4,67.3,65,65C66.3,64.1,65.1,61.9,63.7,62.8
				L63.7,62.8z"/>
		</g>
	</g>
	<g>
		<g>
			<path d="M89.4,116.7c-1.4,5.1-4.8,10.4-10,12c-1.5,0.5-0.9,2.9,0.7,2.4c6.1-1.9,10.2-7.8,11.8-13.7
				C92.2,115.8,89.8,115.1,89.4,116.7L89.4,116.7z"/>
		</g>
	</g>
	<g>
		<g>
			<path d="M61.9,167.4c3.2,7,9.8,12.8,17.5,14c1.6,0.2,2.3-2.2,0.7-2.4c-7.1-1.1-13.1-6.3-16-12.8
				C63.4,164.6,61.2,165.9,61.9,167.4L61.9,167.4z"/>
		</g>
	</g>
	<g>
		<g>
			<path d="M109.1,163.2c6.7-2.6,10.1-11,11.8-17.4c0.4-1.6-2-2.2-2.4-0.7c-1.4,5.5-4.8,13.6-10,15.6
				C106.9,161.4,107.6,163.8,109.1,163.2L109.1,163.2z"/>
		</g>
	</g>
	<g>
		<g>
			<path d="M137.3,80.3c-2.1,4-6,7-9.9,9.1c-1.4,0.7-0.2,2.9,1.3,2.2c4.3-2.2,8.5-5.6,10.8-9.9C140.2,80.2,138.1,78.9,137.3,80.3
				L137.3,80.3z"/>
		</g>
	</g>
</g>
</svg>
