<svg id="potiron" xmlns="http://www.w3.org/2000/svg" viewBox="0 0 200 200"><title>Potiron</title><path d="M98.58,52.72C104.7,38,100.73,20.69,90,9.05l-.55,2.09,13.42-3.88c2.57-.74,5.28-1.33,7.79-2.25a8.37,8.37,0,0,1,1.85-.54c-1.64.12-.94-.81-.56.49.59,2,2.89,4.28,3.94,6.07a83.48,83.48,0,0,1,5.58,11.25c4.21,10.47,6,21.75,3.42,32.86-.37,1.56,2,2.23,2.41.66C131.66,37.37,124.6,17,113.15,2.37a1.22,1.22,0,0,0-1.22-.32L88.82,8.73a1.26,1.26,0,0,0-.55,2.08c10.13,11,13.68,27.38,7.9,41.24-.62,1.49,1.8,2.14,2.41.67Z" transform="translate(-1.72 -2)"/><path d="M108.94,62.88c17.86-11.57,42.78-6.15,59.63,4.19A53.45,53.45,0,0,1,192.23,96.8c3.61,10.91,4.67,22.53,4.5,34-.18,12.11-.86,26.08-4.87,37.68-6.36,18.33-33.15,20.49-48.89,20.31-12.83-.16-26.06-.72-38.54-4-2.83-.74-6.12-2.86-9-3-3-.15-6.51,1-9.55,1.25a115.63,115.63,0,0,1-21.13-.35c-16.26-1.75-32.46-6.14-43.58-18.82C4.31,144.6.61,112,6.64,88.07,9,78.57,13.56,69.59,20.73,62.8,31.24,52.86,45,49.76,59,48.5c14.36-1.29,37.91-2,47.25,12,.3.45.92,1.66.9,1.59.54,1.5,3,.85,2.41-.67-3.71-10.2-18.3-14-27.59-15.27C57.41,42.93,27,47.09,12.17,69.1,1.6,84.76.44,105.2,2.65,123.42c1.14,9.37,3.1,18.67,7.11,27.26,5.1,10.92,13.22,20.65,24,26.33,14.54,7.67,33.19,9.49,49.41,8.68,4.24-.22,8.34-.91,12.52-1.42,1.32-.16-1-.38-.21-.11a17.28,17.28,0,0,1,1.62.79c7.41,3.34,16.07,4.33,24.06,5.16,22,2.27,56.31,5.15,70.73-16.35a20.48,20.48,0,0,0,3-7.17,175.42,175.42,0,0,0,3.58-22.45c2.2-22.62.95-49.26-14.37-67.48-16.46-19.58-47.78-28.49-71.59-18.37a32.1,32.1,0,0,0-4.83,2.43C106.33,61.6,107.59,63.76,108.94,62.88Z" transform="translate(-1.72 -2)"/><path d="M86.07,184.15l.64,6.56A1.29,1.29,0,0,0,88,192l4.77.43c1.21.11,3.15.66,4.35.35s2.17-1.85,3-2.68l3.47-3.6c1.12-1.16-.65-2.93-1.77-1.77l-3.06,3.18c-.61.63-1.27,1.24-1.84,1.91-.91,1.07-.79.33,0,.47-2.87-.54-5.94-.53-8.84-.79l1.25,1.25-.64-6.56c-.15-1.59-2.65-1.6-2.5,0Z" transform="translate(-1.72 -2)"/><path d="M60.77,60.63C54,67.44,49,76.47,45.27,85.19c-8.9,20.79-9.79,43.62-4.46,65.45a1.25,1.25,0,0,0,2.41-.66c-5.3-21.71-4.3-44.55,4.89-65.08,3.56-8,8.21-16.24,14.42-22.5a1.25,1.25,0,0,0-1.76-1.77Z" transform="translate(-1.72 -2)"/><path d="M104.36,66.8c-8,6.29-13.63,16.22-17.11,25.54C78,117.13,84.38,144,95.72,166.92c.71,1.44,2.87.18,2.16-1.26C86.69,143,80.5,116.52,90,92.16c3.36-8.63,8.76-17.74,16.15-23.6,1.26-1-.52-2.75-1.77-1.76Z" transform="translate(-1.72 -2)"/><path d="M145.58,80.34c9.84,27.6,10.3,62-4.43,87.83a1.25,1.25,0,0,0,2.15,1.26c15.06-26.36,14.75-61.53,4.7-89.76-.54-1.5-3-.85-2.42.67Z" transform="translate(-1.72 -2)"/><path d="M178.68,77.83a164.32,164.32,0,0,1,9.91,38.38c3.11,22.42,1.56,48.51-17.12,64-1.24,1,.54,2.79,1.77,1.77,18.37-15.27,20.83-40.65,18.21-62.92a164.85,164.85,0,0,0-10.36-41.93c-.59-1.47-3-.83-2.41.67Z" transform="translate(-1.72 -2)"/><path d="M34.74,55.84c-7.62,6-13.27,15.31-17.14,24-10.27,23-9.16,48.94-2.81,72.87A1.25,1.25,0,0,0,17.2,152c-6.32-23.8-7.44-49.83,3.31-72.57,3.75-7.94,9-16.35,16-21.85,1.27-1-.51-2.75-1.77-1.77Z" transform="translate(-1.72 -2)"/><path d="M41.73,160.69q.89,2.15,1.83,4.26c.68,1.49,1.34,3.61,2.6,4.73s3-.69,1.76-1.76c-1-.86-1.63-3-2.2-4.23s-1.07-2.44-1.58-3.67c-.61-1.47-3-.82-2.41.67Z" transform="translate(-1.72 -2)"/><path d="M138.18,175.47a19.12,19.12,0,0,1-5.26,5.49c-1.35.86-.1,3,1.26,2.16a22.2,22.2,0,0,0,6.16-6.39c.9-1.34-1.27-2.59-2.16-1.26Z" transform="translate(-1.72 -2)"/><path d="M100.53,7C110.16,21.55,117,41.2,113,58.62c-.36,1.57,2.05,2.24,2.41.67,4.2-18.09-2.66-38.42-12.68-53.59-.88-1.34-3-.08-2.16,1.26Z" transform="translate(-1.72 -2)"/></svg>