<?xml version="1.0" encoding="utf-8"?>
<!-- Generator: Adobe Illustrator 22.1.0, SVG Export Plug-In . SVG Version: 6.00 Build 0)  -->
<svg version="1.1" id="potimarron" xmlns="http://www.w3.org/2000/svg" xmlns:xlink="http://www.w3.org/1999/xlink" x="0px" y="0px"
	 viewBox="0 0 200 200" style="enable-background:new 0 0 200 200;" xml:space="preserve">
<g>
	<g>
		<g>
			<path d="M96,35c3.8-5.2,7.5-10.5,11.3-15.7c2.7-3.7,5.3-7.4,8-11.1c0.8-1.1,1.7-2.2,2.4-3.3c0.8-1.3,1.4-0.9-0.1-0.6
				c3.2-0.5,7.1,0.3,10.1,0.9c2.7,0.5,5.5,1.1,8,2.3c1.1,0.5,3.1,1.3,3.7,2.3c0.8,1.3,0.3,0.2-0.4,1.9c-2.1,4.7-5.6,9.1-8.1,13.6
				c-1.7,3-3.3,5.9-5,8.9c-0.5,0.8,0.1,1.9,1.1,1.9c2.8,0,9.5-0.7,11.3,1.8c0.8,1.1,0.5,4,0.6,5.3c0.1,2.4,0.2,4.8,0.3,7.2
				c0,2.1-0.8,6.1,0.1,8.1c0.6,1.4,3.1,2.5,4.3,3.3c8,5.7,16.2,11.6,23.1,18.6c3.2,3.2,4.8,6.1,6.2,10.4c8.1,26,5.8,58.9-13.5,79.5
				c-7.8,8.3-17.9,14.1-28.7,17.8c-10.4,3.5-23.7,6.5-34,1.1c-1.4-0.8-2.7,1.4-1.3,2.2c8.3,4.4,19.3,3.6,28,1.5
				c10.9-2.7,21.4-7.2,30.3-14.1c14-10.8,22.1-26.9,24.7-44.2c2-13.6,1.2-27.9-2.3-41.2c-0.9-3.4-1.8-7-3.7-10
				c-5.2-8.3-15.2-14.6-22.9-20.3c-2-1.4-3.9-2.9-5.9-4.3c-0.6-0.4-2.7-2.3-2.2-1.3c0.5,1.2,0.2-0.3,0.3-0.7c0.2-0.9,0-2.2,0-3.2
				c0-2.8-0.1-5.7-0.2-8.5c-0.1-2.8,0.4-7.9-2.2-9.8c-3-2.1-8.8-1.8-12.3-1.8c0.4,0.6,0.7,1.3,1.1,1.9c4.6-8.3,9.1-16.8,14.5-24.7
				c0.3-0.5,0.1-1.1-0.2-1.5C137.8,3.6,129,2.5,122.2,2c-4.3-0.3-5.2-0.5-7.6,2.9c-6.9,9.6-13.8,19.3-20.8,28.9
				C92.9,35.1,95.1,36.3,96,35L96,35z"/>
		</g>
	</g>
	<g>
		<g>
			<path d="M100.3,191.4c-0.7,0.9-1.3,1.8-2,2.6c-0.6,0.8-1.8,1.9-0.9,1.4c-2.8,1.5-7.2,1.4-10.2,1.3c-6.1-0.2-17.6-2.8-16.9-11.1
				c0.1-1.6-2.4-1.6-2.5,0c-0.7,8.4,9.1,12.3,15.8,13.3c4,0.6,10.6,1,14.4-1.1c2-1.1,3.2-3.4,4.6-5.2
				C103.5,191.4,101.3,190.1,100.3,191.4L100.3,191.4z"/>
		</g>
	</g>
	<g>
		<g>
			<path d="M72.8,184.5c-12.5-2.5-25.8-8.4-34.6-17.6c-6.9-7.2-11-19.4-13.3-29.1c-3.4-14.1-0.6-28.2,7.3-40.4
				c6.2-9.6,14.8-17.5,23.9-24.3c2.9-2.1,5.8-4.2,8.9-6.1c1.7-1.1,4-2,5.4-3.5c2.1-2.3,3.3-6.9,4.8-9.7c1.3-2.6,2.8-5.1,4.2-7.6
				c1.8-3,3.5-6.3,5.8-9c0.9-1.1-0.3-0.1,1-0.9c1.9-1,6.2-2.1,8-0.7c1.5,1.2,1.9,3,3.9,4c4.2,2.1,9.6,1.4,14,1
				c1.6-0.2,1.6-2.7,0-2.5c-4.2,0.4-10.9,1.5-14.3-1.7c-1.8-1.7-1.3-3-4.1-3.6c-5.9-1.2-9.5,1.2-12.4,5.6c-2.7,4.1-5.2,8.3-7.5,12.6
				c-1.6,3-2.9,6.5-4.7,9.4c-2.3,3.5-7.2,5.6-10.6,8c-9.6,6.7-18.6,14.5-25.7,23.9c-9,12.1-13.5,26.6-11.1,41.6
				c0.9,5.4,2.5,10.5,4.5,15.6c1.9,4.9,3.6,10.1,6.6,14.4c8.6,12.5,25,20,39.6,22.9C73.7,187.2,74.4,184.8,72.8,184.5L72.8,184.5z"
				/>
		</g>
	</g>
	<g>
		<g>
			<path d="M68.3,63.7c11.2,10.3,28.5,11.5,42.5,7.5c1.5-0.4,0.9-2.9-0.7-2.4c-13,3.7-29.5,2.8-40-6.8
				C68.9,60.8,67.2,62.6,68.3,63.7L68.3,63.7z"/>
		</g>
	</g>
	<g>
		<g>
			<path d="M58.9,91.3c-6.4,7.5-10.7,17.3-13.1,26.7c-5.9,22.2-0.4,44.6,11.5,63.8c0.8,1.4,3,0.1,2.2-1.3
				c-11.8-19-17.1-41.1-11-62.9c2.4-8.6,6.3-17.7,12.2-24.6C61.7,91.8,60,90.1,58.9,91.3L58.9,91.3z"/>
		</g>
	</g>
	<g>
		<g>
			<path d="M111,98.8c4.3,7.5,6.3,16.8,7,25.4c1.8,22.3-7.4,42.9-21.9,59.4c-1.1,1.2,0.7,3,1.8,1.8c14.6-16.7,24.1-37.5,22.7-60.1
				c-0.6-9.3-2.7-19.5-7.4-27.7C112.3,96.2,110.2,97.4,111,98.8L111,98.8z"/>
		</g>
	</g>
	<g>
		<g>
			<path d="M157.2,91.2c7.4,23.5,5.1,52.6-9.4,72.8c-7.7,10.8-18.6,18.5-30.7,23.9c-1.5,0.7-0.2,2.8,1.3,2.2
				c19.6-8.7,34.9-23.9,41.3-44.6c4.5-14.5,4.7-30.3,2.1-45.2c-0.6-3.3-1.2-6.6-2.2-9.7C159.1,89,156.7,89.6,157.2,91.2L157.2,91.2z
				"/>
		</g>
	</g>
</g>
</svg>
