<?xml version="1.0" encoding="utf-8"?>
<!-- Generator: Adobe Illustrator 22.1.0, SVG Export Plug-In . SVG Version: 6.00 Build 0)  -->
<svg version="1.1" id="scarole" xmlns="http://www.w3.org/2000/svg" xmlns:xlink="http://www.w3.org/1999/xlink" x="0px" y="0px"
	 viewBox="0 0 187.1 198.1" style="enable-background:new 0 0 187.1 198.1;" xml:space="preserve">
<title>Scarole</title>
<path d="M114.9,37.9c5.3-2.7,10.8-5.2,16.4-7.3c7.6-2.9,20.5-8.5,28.4-3.8c4.6,2.8,5.5,10.9,3.6,14.8c-3.8,7.9-12.3,15.9-20,19.6
	c-0.4,0.2-0.6,0.6-0.6,1.1c0.8,9.5-9,14.6-17.1,16.3c-0.6,0.2-0.9,0.9-0.8,1.5c0.6,3.4-1.2,7-3.6,9.2c-2.1,1.9-5.1,2.1-7.1,3.9
	c-2.4,2.1-3.5,4.5-7,5.4c-1.6,0.4-0.9,2.8,0.7,2.4c2.6-0.7,4.9-2.1,6.7-4c2.8-2.7,6.6-3.8,9.3-6.6c2.8-2.9,4.1-6.9,3.5-10.9
	l-0.9,1.5c6.5-1.3,14-4.8,17.4-10.8c1-1.9,1-3.8,1.6-5.7c0.8-2.6,3.9-3.6,6.1-5.4c4.6-3.8,8.7-8.3,12.1-13.3
	c3.3-4.4,4.1-10.2,2.1-15.3c-3.7-10-16.1-8-24.2-5.9c-9.6,2.7-19,6.4-27.8,11.1C112.3,36.5,113.6,38.6,114.9,37.9L114.9,37.9z"/>
<path d="M153.5,57.3c6.9-2.9,15.8-3.3,21.9,1.4c9,7,0.2,15.4-6.4,19.9c-1.1,0.7-2.7,1.3-3.5,2.3s-1.1,3.1-1.6,4.3
	c-3.4,7.9-8.9,16-17.7,18c-0.4,0.1-0.8,0.4-0.9,0.9c-1.5,7.3-9.8,10.3-16.4,10.8c-1.6,0.1-1.6,2.6,0,2.5c6.2-0.5,13.9-2.9,17.3-8.5
	c1.5-2.5,1.1-3.1,4-4.3c2.1-0.9,4-2.1,5.8-3.6c3.7-3.2,6.6-7.1,8.7-11.5c1.2-2.3,1.8-5.5,3.2-7.6c-0.9,1.3,0.3,0.1,1.1-0.4
	c1.5-0.9,2.9-1.9,4.2-2.9c5.7-4.4,12.3-12,6.8-19.1c-6.2-8-18.4-8.3-27.1-4.7C151.4,55.5,152,57.9,153.5,57.3L153.5,57.3z"/>
<path d="M168.7,81.6c3.9-0.1,7.8,0.7,11.3,2.3c2.7,1.3,4.8,3.4,4.7,6.6c-0.3,6.8-6.1,9.2-11.1,12.3c-5.4,3.4-7.7,6.7-11.5,11.8
	c-3.6,4.9-8.9,12.8-15.7,13.4c-1.6,0.1-1.6,2.6,0,2.5c6.9-0.6,12.6-7.3,16.4-12.6c2.2-3,4.2-6.8,6.8-9.4c3.6-3.6,10-4.9,13.5-8.6
	c4.9-5.1,5.7-13.6-0.8-17.6c-4-2.4-9.2-3.2-13.8-3.2c-0.7,0-1.3,0.6-1.3,1.3S168,81.6,168.7,81.6z"/>
<path d="M170.5,107.6c3.9-0.5,7.6,2.3,5,6.4c-2,3.3-6.9,7.2-10.2,9.6c-4.9,3.5-13.1,7-19.1,10c-14.4,7-30.8,10-44.7,18.1
	c-4.1,2.4-7.6,5.2-12.2,6.8c-3.8,1.4-7.1,1.9-10.6,4c-7.6,4.6-14.6,10.6-21.3,16.5c-9.5,8.3-21.4,18.8-35,16.6
	c-14-2.3-19.4-20.1-19.9-32.3c-0.3-7.3,0.8-14.6,3-21.5c3.5-10.8,7.7-21.4,12.3-31.7C27,89.3,37.6,68.7,52.2,51.4
	c3.4-4.1,7.2-8,11.2-11.6c5.4-4.7,9.5-11.1,14.4-16.3c6.5-6.9,13.8-13.6,22.4-17.6c3.8-1.8,11.4-4.8,15.5-2.8c2.1,1,3.7,3.2,4.9,5.1
	c0.4,0.6,1.6,3.4,1.5,2.5c0.3,2.7-0.9,6.1-1.5,8.6c-1.1,4.8-2.5,9.8-5.1,14c-1.1,1.8-3,2.8-4.1,4.4c-1.3,1.9-1.5,5.7-2.3,7.9
	c-1.2,3.3-2.9,8.2-4.7,10.7c-2.2,2.8-5.1,5.3-7.6,7.9l-5.9,6.1c-0.5,0.5-0.5,1.3,0,1.8c6.8,6.2-15.6,13.6-17.7,18.9
	c-0.2,0.5,0.2,1,0.1,1.4s0.6-1.2-0.2-0.8c-0.4,0.2-1.2,1.8-1.5,2.2c-4,5.8-8.9,11.9-15.5,14.9c-1.5,0.7-0.2,2.8,1.3,2.2
	c7.8-3.5,13.7-11.3,18.1-18.4c0.3-0.5,0.2-1.1-0.2-1.5c0.8,0.9-0.2,0.7,0.9,0c1.4-0.9,2.7-2.2,4.2-3.2c4.1-2.6,9.4-4.6,12.4-8.6
	c1.9-2.6,2.4-6.4-0.2-8.8v1.8c4.5-4.7,10-9.1,13.9-14.3c2.6-3.5,4.1-8.7,5.5-12.7c0.9-2.7,1.1-4.8,2.9-6.8c1.6-1.7,2.9-3.6,4-5.7
	c2.1-4.6,3.7-9.4,4.6-14.3c0.4-2.2,1.6-5.4,1.2-7.6c-0.4-2.8-3.3-6.1-5.3-7.9c-2.8-2.5-5.6-3-9.1-2.3C91.9,3.9,78.7,17.8,67.4,31.7
	c-4.2,5.2-9.2,9.3-13.7,14.2c-4,4.4-7.7,9-11.1,13.9c-7.3,10.5-13.8,21.5-19.4,32.9c-7.6,15.2-14.2,30.9-19.6,47
	c-5.4,16.2-5.4,36,5.5,50c12.3,15.8,32.9,5.9,45.1-4.7c4.8-4.2,9.6-8.5,14.6-12.4c4.2-3.4,8.6-6.8,13.4-9.3s10.3-3.2,15.2-6.1
	c2.4-1.4,4.6-3.2,7.2-4.4c4.6-2.1,9.3-4.1,14-6c8.9-3.7,18.2-6.2,26.9-10.3c5.4-2.5,44.4-20.2,31.1-30.2c-1.8-1.2-4-1.7-6.1-1.4
	C168.9,105.2,168.9,107.7,170.5,107.6L170.5,107.6z"/>
<path d="M122.8,18.6c3.3-2,6.9-3.6,10.6-4.6c2.6-0.7,5.9-1.3,8.4,0.1c3.8,2,3.6,7.1,3.3,10.7c-0.1,1.6,2.4,1.6,2.5,0
	c0.6-7.8-2.2-14.7-11.1-13.9c-5.2,0.5-10.5,2.8-15,5.6c-0.6,0.4-0.7,1.2-0.3,1.7C121.6,18.7,122.3,18.9,122.8,18.6z"/>
<path d="M163.3,45.3c0.2,0,0.5,0.1,0.7,0.2c0.7,0.2,1.3,0.5,1.9,0.9c2.4,1.8,2.4,5.1,2,7.8c-0.3,1.6,2.1,2.3,2.4,0.7
	c0.6-3.5,0.4-7.5-2.5-10c-1.3-1.1-2.9-1.8-4.6-1.9C161.7,42.7,161.7,45.2,163.3,45.3L163.3,45.3z"/>
<path d="M176.2,75.1c0.8,0.2,1.5,0.7,2.1,1.2c1.7,1.6,1.3,3.8,0.5,5.8c-0.6,1.5,1.8,2.1,2.4,0.7c1.6-4.2,0.2-8.7-4.3-10
	c-0.7-0.2-1.3,0.3-1.5,0.9C175.2,74.3,175.5,75,176.2,75.1L176.2,75.1z"/>
<path d="M86.7,56.3c-12.3,9.5-23.2,20.8-32.1,33.6c-7.4,10.6-11.7,22.7-17.9,33.9c-2.6,4.6-5.1,9.2-7.8,13.8
	c-0.4,0.6-0.2,1.4,0.4,1.7c0.6,0.4,1.4,0.2,1.7-0.4c2.3-4,4.6-8,6.9-12c3.1-5.5,6.2-10.9,8.5-16.8c2.3-5.8,5.3-11.4,8.8-16.5
	c9-13.4,20-25.2,32.7-35.1C89.2,57.4,87.9,55.3,86.7,56.3L86.7,56.3z"/>
<path d="M122.7,65.2c-8.9,4.9-17,11.6-24.7,18.1c-21.6,18.3-40.3,39.8-56.9,62.6c-1,1.3,1.2,2.6,2.2,1.3
	c16.5-22.6,35.1-43.9,56.5-62.1c7.5-6.4,15.5-12.9,24.2-17.7C125.4,66.6,124.1,64.4,122.7,65.2z"/>
<path d="M152.9,85.7c-28.7,14.1-58.1,29.4-83.6,48.8c-6.1,4.6-12.8,9.8-16.7,16.6c-0.3,0.6,0,1.4,0.6,1.7c0.6,0.3,1.2,0.1,1.6-0.4
	c3.4-5.9,9.2-10.6,14.5-14.7c8-6.1,16.4-11.8,25.1-17c15.9-9.8,32.4-18.8,49-27.3c3.6-1.8,7.2-3.7,10.8-5.4
	C155.7,87.2,154.4,85,152.9,85.7L152.9,85.7z"/>
<path d="M151.8,115.1c-13.3,4.8-26.4,10-39.3,15.6c-9.4,4-18.8,8.2-27.8,13.2c-4.7,2.6-12,6-14.3,11.2c-0.7,1.4,1.5,2.7,2.2,1.3
	c2.4-5.4,10.6-8.8,15.4-11.3c8.7-4.7,17.8-8.7,26.8-12.6c12.4-5.3,25-10.3,37.8-14.9C153.9,116.9,153.3,114.5,151.8,115.1z"/>
</svg>
