<?xml version="1.0" encoding="utf-8"?>
<!-- Generator: Adobe Illustrator 22.1.0, SVG Export Plug-In . SVG Version: 6.00 Build 0)  -->
<svg version="1.1" id="tomate" xmlns="http://www.w3.org/2000/svg" xmlns:xlink="http://www.w3.org/1999/xlink" x="0px" y="0px"
	 viewBox="0 0 200 200" style="enable-background:new 0 0 200 200;" xml:space="preserve">
<g>
	<g>
		<g>
			<g>
				<path d="M192.3,60.3c-10.6-20.7-38.8-22-59-20.8c-9.8,0.6-19.5,2-29.1,3.9c-7.4,1.5-15.3-1.5-22.7-2.5
					c-20.6-2.8-47.9-4.8-65.2,9.2C4.1,59.9,1.8,78,1.2,92.6c-1.5,35.4,11.4,77.7,47.3,91.6c10.5,4.1,21.8,5.3,33,4.6
					c2.9-0.2,5.8-0.5,8.7-0.9c3.8-0.5,7.8-1.9,11.6-1.4c6.5,0.8,12.7,2.2,19.3,2.5c20.6,0.8,40.7-5.8,54.8-21.3
					c12.5-13.8,19.2-32.1,21.9-50.3c2.4-15.9,2.3-33.1-2.3-48.6C194.6,65.7,193.6,63,192.3,60.3c-0.7-1.4-2.8-0.2-2.1,1.2
					c6.1,12.8,7.1,28.2,6.4,42.2c-0.8,17.6-5,35.7-14.1,50.9c-9.8,16.2-25.4,27.5-44.1,30.7c-5.7,1-11.4,1.3-17.2,1.1
					c-6.8-0.3-13.3-1.9-20-2.6c-2.6-0.3-5.2,0.7-7.8,1.1c-3.5,0.6-7.1,1.1-10.7,1.3c-5.7,0.4-11.4,0.4-17-0.3
					c-19.5-2.4-36.2-13-46.7-29.5c-9.5-14.9-14-32.7-15.1-50.2C3,91.9,3.7,76.1,9.5,62.9c9.3-21.1,37.8-22.2,57.5-21
					c9.5,0.6,19.1,1.9,28.4,3.8c3,0.6,4.9,1,7.9,0.3c3.8-0.8,7.6-1.5,11.5-2.1c20.4-3.2,46.4-5.8,64.7,5.8
					c4.6,2.9,8.2,6.9,10.7,11.7C190.9,62.9,193.1,61.7,192.3,60.3z"/>
			</g>
		</g>
		<g>
			<g>
				<path d="M80.2,41.5C76.7,31,67,22.7,57.9,17.2c-0.1,0.8-0.2,1.5-0.3,2.3c10.2-2.2,21,7,28,13.1c4.8,4.2,9.5,8.8,13.7,13.8
					c1,1.2,2.8-0.5,1.7-1.7C96,38.6,90.2,33,84,28.1C76.8,22.2,66.9,14.9,57,17.1c-1.1,0.2-1.2,1.7-0.3,2.3
					c8.5,5.1,17.9,12.9,21.2,22.8C78.3,43.6,80.7,43,80.2,41.5L80.2,41.5z"/>
			</g>
		</g>
		<g>
			<g>
				<path d="M118.7,42.7c3.3-10,12.7-18.1,21.4-23.3c0.9-0.5,0.8-2-0.3-2.3c-9.8-2.1-19,5.1-25.8,11.2c-5.5,5-10.5,10.6-14.9,16.5
					c-0.9,1.3,1.2,2.5,2.1,1.2c3.6-4.9,7.8-9.6,12.1-13.8c6.4-6.2,16-15,25.7-12.8c-0.1-0.8-0.2-1.5-0.3-2.3
					c-9.3,5.6-18.9,14.1-22.5,24.8C115.8,43.5,118.2,44.2,118.7,42.7L118.7,42.7z"/>
			</g>
		</g>
		<g>
			<g>
				<path d="M91.4,35.5c3.7-9.3,7.3-18.6,11-27.9c-0.8-0.1-1.6-0.2-2.4-0.3c-0.5,9.6,0.7,21.7,7.8,28.8c1.1,1.1,2.9-0.6,1.7-1.7
					c-6.6-6.6-7.5-18.2-7.1-27.1c0.1-1.5-2-1.5-2.4-0.3c-3.7,9.3-7.3,18.6-11,27.9C88.5,36.3,90.9,36.9,91.4,35.5L91.4,35.5z"/>
			</g>
		</g>
		<g>
			<g>
				<path d="M96.1,57c-4.8,11.3-7.4,23.9-8.9,36.1c-3.5,27.5,0.1,55.4,11.1,81c0.6,1.5,2.8,0.2,2.1-1.2
					c-10.8-25.1-14.2-52.6-10.8-79.7c1.5-11.4,4.3-25,8.5-34.8C98.9,56.8,96.7,55.5,96.1,57L96.1,57z"/>
			</g>
		</g>
	</g>
	<g>
		<g>
			<path d="M183.5,81.8c1.8,10.2,0.4,21.5-1.9,31.5c-6,25.9-21.9,47.6-42.8,63.7c-1.2,1,0,3.1,1.2,2.1c21.1-16.2,37.4-38,43.7-64.2
				c2.6-10.8,4.1-22.8,2.1-33.8C185.7,79.6,183.3,80.3,183.5,81.8L183.5,81.8z"/>
		</g>
	</g>
	<g>
		<g>
			<path d="M17.6,70.8c-4.5,11.2-5.7,24.3-5,36.2c1.6,26.3,15.5,48.5,36.3,64.2c1.3,1,2.5-1.2,1.2-2.1c-20.9-15.8-34.4-38.6-35.2-65
				c-0.3-10.8,1-22.4,5-32.6C20.6,70,18.2,69.4,17.6,70.8L17.6,70.8z"/>
		</g>
	</g>
</g>
</svg>
